<?xml version="1.0" encoding="UTF-8"?>
<!--Generator: Apple Native CoreSVG 360-->
<!DOCTYPE svg
PUBLIC "-//W3C//DTD SVG 1.1//EN"
       "http://www.w3.org/Graphics/SVG/1.1/DTD/svg11.dtd">
<svg version="1.1" xmlns="http://www.w3.org/2000/svg" xmlns:xlink="http://www.w3.org/1999/xlink" viewBox="0 0 3300 2200">
 <!--glyph: "100194", point size: 100.0, font version: "21.1d1e1", template writer version: "138.0.0"-->
 <style>.defaults {-sfsymbols-variable-value-mode:color;-sfsymbols-draw-reverses-motion-groups:false}

.monochrome-0 {-sfsymbols-motion-group:0;-sfsymbols-layer-tags:command}

.multicolor-0:tintColor {-sfsymbols-motion-group:0;-sfsymbols-layer-tags:command}

.hierarchical-0:primary {-sfsymbols-motion-group:0;-sfsymbols-layer-tags:command}

.SFSymbolsPreviewWireframe {fill:none;opacity:1.0;stroke:black;stroke-width:0.5}
</style>
 <g id="Notes">
  <rect height="2200" id="artboard" style="fill:white;opacity:1" width="3300" x="0" y="0"/>
  <line style="fill:none;stroke:black;opacity:1;stroke-width:0.5;" x1="263" x2="3036" y1="292" y2="292"/>
  <text style="stroke:none;fill:black;font-family:sans-serif;font-size:13;font-weight:bold;" transform="matrix(1 0 0 1 263 322)">Weight/Scale Variations</text>
  <text style="stroke:none;fill:black;font-family:sans-serif;font-size:13;text-anchor:middle;" transform="matrix(1 0 0 1 559.711 322)">Ultralight</text>
  <text style="stroke:none;fill:black;font-family:sans-serif;font-size:13;text-anchor:middle;" transform="matrix(1 0 0 1 856.422 322)">Thin</text>
  <text style="stroke:none;fill:black;font-family:sans-serif;font-size:13;text-anchor:middle;" transform="matrix(1 0 0 1 1153.13 322)">Light</text>
  <text style="stroke:none;fill:black;font-family:sans-serif;font-size:13;text-anchor:middle;" transform="matrix(1 0 0 1 1449.84 322)">Regular</text>
  <text style="stroke:none;fill:black;font-family:sans-serif;font-size:13;text-anchor:middle;" transform="matrix(1 0 0 1 1746.56 322)">Medium</text>
  <text style="stroke:none;fill:black;font-family:sans-serif;font-size:13;text-anchor:middle;" transform="matrix(1 0 0 1 2043.27 322)">Semibold</text>
  <text style="stroke:none;fill:black;font-family:sans-serif;font-size:13;text-anchor:middle;" transform="matrix(1 0 0 1 2339.98 322)">Bold</text>
  <text style="stroke:none;fill:black;font-family:sans-serif;font-size:13;text-anchor:middle;" transform="matrix(1 0 0 1 2636.69 322)">Heavy</text>
  <text style="stroke:none;fill:black;font-family:sans-serif;font-size:13;text-anchor:middle;" transform="matrix(1 0 0 1 2933.4 322)">Black</text>
  <line style="fill:none;stroke:black;opacity:1;stroke-width:0.5;" x1="263" x2="3036" y1="1903" y2="1903"/>
  <g transform="matrix(0.2 0 0 0.2 263 1933)">
   <path d="m46.2402 4.15039c21.7773 0 39.4531-17.627 39.4531-39.4043s-17.6758-39.4043-39.4531-39.4043c-21.7285 0-39.4043 17.627-39.4043 39.4043s17.6758 39.4043 39.4043 39.4043Zm0-7.42188c-17.6758 0-31.9336-14.3066-31.9336-31.9824s14.2578-31.9824 31.9336-31.9824 31.9824 14.3066 31.9824 31.9824-14.3066 31.9824-31.9824 31.9824Zm3.61328-17.7734v-28.4668c0-2.24609-1.46484-3.75977-3.71094-3.75977-2.14844 0-3.61328 1.51367-3.61328 3.75977v28.4668c0 2.19727 1.46484 3.71094 3.61328 3.71094 2.24609 0 3.71094-1.51367 3.71094-3.71094Zm-17.8223-10.5957h28.418c2.19727 0 3.71094-1.46484 3.71094-3.61328 0-2.19727-1.51367-3.71094-3.71094-3.71094h-28.418c-2.24609 0-3.75977 1.51367-3.75977 3.71094 0 2.14844 1.51367 3.61328 3.75977 3.61328Z"/>
  </g>
  <g transform="matrix(0.2 0 0 0.2 281.506 1933)">
   <path d="m58.5449 14.5508c27.4902 0 49.8047-22.3145 49.8047-49.8047s-22.3145-49.8047-49.8047-49.8047-49.8047 22.3145-49.8047 49.8047 22.3145 49.8047 49.8047 49.8047Zm0-8.30078c-22.9492 0-41.5039-18.5547-41.5039-41.5039s18.5547-41.5039 41.5039-41.5039 41.5039 18.5547 41.5039 41.5039-18.5547 41.5039-41.5039 41.5039Zm4.05273-23.0957v-36.9141c0-2.49023-1.70898-4.19922-4.15039-4.19922-2.39258 0-4.05273 1.70898-4.05273 4.19922v36.9141c0 2.44141 1.66016 4.15039 4.05273 4.15039 2.44141 0 4.15039-1.66016 4.15039-4.15039Zm-22.5586-14.4043h36.9629c2.44141 0 4.15039-1.61133 4.15039-4.00391 0-2.44141-1.70898-4.15039-4.15039-4.15039h-36.9629c-2.49023 0-4.15039 1.70898-4.15039 4.15039 0 2.39258 1.66016 4.00391 4.15039 4.00391Z"/>
  </g>
  <g transform="matrix(0.2 0 0 0.2 304.924 1933)">
   <path d="m74.8535 28.3203c35.1074 0 63.623-28.4668 63.623-63.5742s-28.5156-63.623-63.623-63.623-63.5742 28.5156-63.5742 63.623 28.4668 63.5742 63.5742 63.5742Zm0-9.08203c-30.127 0-54.4922-24.3652-54.4922-54.4922s24.3652-54.4922 54.4922-54.4922 54.4922 24.3652 54.4922 54.4922-24.3652 54.4922-54.4922 54.4922Zm4.44336-30.3223v-48.4863c0-2.73438-1.85547-4.63867-4.54102-4.63867-2.58789 0-4.44336 1.9043-4.44336 4.63867v48.4863c0 2.68555 1.85547 4.58984 4.44336 4.58984 2.68555 0 4.54102-1.85547 4.54102-4.58984Zm-28.7109-19.7754h48.4863c2.68555 0 4.58984-1.80664 4.58984-4.39453 0-2.73438-1.85547-4.58984-4.58984-4.58984h-48.4863c-2.73438 0-4.58984 1.85547-4.58984 4.58984 0 2.58789 1.85547 4.39453 4.58984 4.39453Z"/>
  </g>
  <text style="stroke:none;fill:black;font-family:sans-serif;font-size:13;font-weight:bold;" transform="matrix(1 0 0 1 263 1953)">Design Variations</text>
  <text style="stroke:none;fill:black;font-family:sans-serif;font-size:13;" transform="matrix(1 0 0 1 263 1971)">Symbols are supported in up to nine weights and three scales.</text>
  <text style="stroke:none;fill:black;font-family:sans-serif;font-size:13;" transform="matrix(1 0 0 1 263 1989)">For optimal layout with text and other symbols, vertically align</text>
  <text style="stroke:none;fill:black;font-family:sans-serif;font-size:13;" transform="matrix(1 0 0 1 263 2007)">symbols with the adjacent text.</text>
  <line style="fill:none;stroke:#00AEEF;stroke-width:0.5;opacity:1.0;" x1="776" x2="776" y1="1919" y2="1933"/>
  <g transform="matrix(0.2 0 0 0.2 776 1933)">
   <path d="m16.5527 0.78125c2.58789 0 3.85742-0.976562 4.78516-3.71094l20.5566-57.5195h0.244141l20.6055 57.5195c0.927734 2.73438 2.19727 3.71094 4.73633 3.71094 2.58789 0 4.24805-1.5625 4.24805-4.00391 0-0.830078-0.146484-1.61133-0.537109-2.63672l-22.9004-60.9863c-1.12305-2.97852-3.125-4.49219-6.25-4.49219-3.02734 0-5.07812 1.46484-6.15234 4.44336l-22.9004 61.084c-0.390625 1.02539-0.537109 1.80664-0.537109 2.63672 0 2.44141 1.5625 3.95508 4.10156 3.95508Zm10.2051-20.9473h30.6641c2.00195 0 3.66211-1.66016 3.66211-3.66211 0-2.05078-1.66016-3.66211-3.66211-3.66211h-30.6641c-2.00195 0-3.66211 1.61133-3.66211 3.66211 0 2.00195 1.66016 3.66211 3.66211 3.66211Z"/>
  </g>
  <line style="fill:none;stroke:#00AEEF;stroke-width:0.5;opacity:1.0;" x1="792.836" x2="792.836" y1="1919" y2="1933"/>
  <text style="stroke:none;fill:black;font-family:sans-serif;font-size:13;font-weight:bold;" transform="matrix(1 0 0 1 776 1953)">Margins</text>
  <text style="stroke:none;fill:black;font-family:sans-serif;font-size:13;" transform="matrix(1 0 0 1 776 1971)">Leading and trailing margins on the left and right side of each symbol</text>
  <text style="stroke:none;fill:black;font-family:sans-serif;font-size:13;" transform="matrix(1 0 0 1 776 1989)">can be adjusted by modifying the x-location of the margin guidelines.</text>
  <text style="stroke:none;fill:black;font-family:sans-serif;font-size:13;" transform="matrix(1 0 0 1 776 2007)">Modifications are automatically applied proportionally to all</text>
  <text style="stroke:none;fill:black;font-family:sans-serif;font-size:13;" transform="matrix(1 0 0 1 776 2025)">scales and weights.</text>
  <g transform="matrix(0.2 0 0 0.2 1289 1933)">
   <path d="m14.209 13.1348 7.86133 7.86133c4.29688 4.39453 9.32617 4.10156 13.8672-1.02539l60.6934-68.2129-4.88281-4.88281-60.2539 67.6758c-1.80664 1.95312-3.4668 2.44141-5.81055 0.0976562l-5.17578-5.12695c-2.29492-2.29492-1.80664-3.95508 0.195312-5.81055l67.4805-62.1582-4.88281-4.83398-68.0664 62.5977c-4.98047 4.58984-5.32227 9.47266-1.02539 13.8184Zm44.873-97.4609c-2.05078 2.00195-2.24609 4.88281-1.07422 6.78711 1.12305 1.80664 3.4668 3.02734 6.5918 2.24609 5.85938-1.66016 12.5977-2.39258 18.8965 0.927734l-2.68555 7.12891c-1.61133 4.00391-0.732422 6.88477 1.70898 9.42383l10.2539 10.3027c2.34375 2.39258 4.54102 2.44141 7.08008 1.95312l4.44336-0.732422 2.58789 2.53906-0.195312 2.24609c-0.0976562 2.29492 0.537109 4.29688 2.7832 6.49414l3.36914 3.32031c2.29492 2.29492 5.51758 2.49023 7.8125 0.195312l12.9883-13.0371c2.29492-2.34375 2.14844-5.37109-0.195312-7.66602l-3.41797-3.41797c-2.19727-2.19727-4.05273-3.02734-6.34766-2.88086l-2.34375 0.244141-2.44141-2.44141 1.02539-4.6875c0.634766-2.73438-0.244141-4.98047-2.88086-7.61719l-11.2793-11.1816c-12.9395-12.8418-35.5957-11.0352-46.6797-0.146484Zm7.08008 2.05078c8.78906-6.39648 25.9766-5.66406 33.6914 1.95312l12.3047 12.207c1.02539 1.02539 1.2207 1.80664 0.927734 3.32031l-1.46484 6.64062 6.73828 6.68945 4.39453-0.244141c1.12305-0.0488281 1.51367 0.0488281 2.34375 0.878906l2.53906 2.49023-10.8398 10.8398-2.49023-2.49023c-0.830078-0.878906-0.976562-1.2207-0.927734-2.39258l0.292969-4.3457-6.68945-6.73828-6.83594 1.17188c-1.41602 0.292969-2.05078 0.195312-3.17383-0.878906l-8.93555-8.88672c-1.07422-1.02539-1.17188-1.70898-0.488281-3.36914l4.58984-11.4746c-6.10352-6.34766-17.041-7.51953-25.5859-4.58984-0.683594 0.244141-0.927734-0.390625-0.390625-0.78125Z"/>
  </g>
  <text style="stroke:none;fill:black;font-family:sans-serif;font-size:13;font-weight:bold;" transform="matrix(1 0 0 1 1289 1953)">Exporting</text>
  <text style="stroke:none;fill:black;font-family:sans-serif;font-size:13;" transform="matrix(1 0 0 1 1289 1971)">Symbols should be outlined when exporting to ensure the</text>
  <text style="stroke:none;fill:black;font-family:sans-serif;font-size:13;" transform="matrix(1 0 0 1 1289 1989)">design is preserved when submitting to Xcode.</text>
  <text id="template-version" style="stroke:none;fill:black;font-family:sans-serif;font-size:13;text-anchor:end;" transform="matrix(1 0 0 1 3036 1933)">Template v.7.0</text>
  <text style="stroke:none;fill:black;font-family:sans-serif;font-size:13;text-anchor:end;" transform="matrix(1 0 0 1 3036 1951)">Requires Xcode 26 or greater</text>
  <text id="descriptive-name" style="stroke:none;fill:black;font-family:sans-serif;font-size:13;text-anchor:end;" transform="matrix(1 0 0 1 3036 1969)">Generated from command</text>
  <text style="stroke:none;fill:black;font-family:sans-serif;font-size:13;text-anchor:end;" transform="matrix(1 0 0 1 3036 1987)">Typeset at 100.0 points</text>
  <text style="stroke:none;fill:black;font-family:sans-serif;font-size:13;" transform="matrix(1 0 0 1 263 726)">Small</text>
  <text style="stroke:none;fill:black;font-family:sans-serif;font-size:13;" transform="matrix(1 0 0 1 263 1156)">Medium</text>
  <text style="stroke:none;fill:black;font-family:sans-serif;font-size:13;" transform="matrix(1 0 0 1 263 1586)">Large</text>
 </g>
 <g id="Guides">
  <g id="H-reference" style="fill:#27AAE1;stroke:none;" transform="matrix(1 0 0 1 339 696)">
   <path d="M0.993654 0L3.63775 0L29.3281-67.1323L30.0303-67.1323L30.0303-70.459L28.1226-70.459ZM11.6885-24.4799L46.9815-24.4799L46.2315-26.7285L12.4385-26.7285ZM55.1196 0L57.7637 0L30.6382-70.459L29.4326-70.459L29.4326-67.1323Z"/>
  </g>
  <line id="Baseline-S" style="fill:none;stroke:#27AAE1;opacity:1;stroke-width:0.5;" x1="263" x2="3036" y1="696" y2="696"/>
  <line id="Capline-S" style="fill:none;stroke:#27AAE1;opacity:1;stroke-width:0.5;" x1="263" x2="3036" y1="625.541" y2="625.541"/>
  <g id="H-reference" style="fill:#27AAE1;stroke:none;" transform="matrix(1 0 0 1 339 1126)">
   <path d="M0.993654 0L3.63775 0L29.3281-67.1323L30.0303-67.1323L30.0303-70.459L28.1226-70.459ZM11.6885-24.4799L46.9815-24.4799L46.2315-26.7285L12.4385-26.7285ZM55.1196 0L57.7637 0L30.6382-70.459L29.4326-70.459L29.4326-67.1323Z"/>
  </g>
  <line id="Baseline-M" style="fill:none;stroke:#27AAE1;opacity:1;stroke-width:0.5;" x1="263" x2="3036" y1="1126" y2="1126"/>
  <line id="Capline-M" style="fill:none;stroke:#27AAE1;opacity:1;stroke-width:0.5;" x1="263" x2="3036" y1="1055.54" y2="1055.54"/>
  <g id="H-reference" style="fill:#27AAE1;stroke:none;" transform="matrix(1 0 0 1 339 1556)">
   <path d="M0.993654 0L3.63775 0L29.3281-67.1323L30.0303-67.1323L30.0303-70.459L28.1226-70.459ZM11.6885-24.4799L46.9815-24.4799L46.2315-26.7285L12.4385-26.7285ZM55.1196 0L57.7637 0L30.6382-70.459L29.4326-70.459L29.4326-67.1323Z"/>
  </g>
  <line id="Baseline-L" style="fill:none;stroke:#27AAE1;opacity:1;stroke-width:0.5;" x1="263" x2="3036" y1="1556" y2="1556"/>
  <line id="Capline-L" style="fill:none;stroke:#27AAE1;opacity:1;stroke-width:0.5;" x1="263" x2="3036" y1="1485.54" y2="1485.54"/>
  <line id="right-margin-Black-S" style="fill:none;stroke:#00AEEF;stroke-width:0.5;opacity:1.0;" x1="2981.15" x2="2981.15" y1="600.785" y2="720.121"/>
  <line id="left-margin-Black-S" style="fill:none;stroke:#00AEEF;stroke-width:0.5;opacity:1.0;" x1="2885.65" x2="2885.65" y1="600.785" y2="720.121"/>
  <line id="right-margin-Regular-S" style="fill:none;stroke:#00AEEF;stroke-width:0.5;opacity:1.0;" x1="1495.79" x2="1495.79" y1="600.785" y2="720.121"/>
  <line id="left-margin-Regular-S" style="fill:none;stroke:#00AEEF;stroke-width:0.5;opacity:1.0;" x1="1403.9" x2="1403.9" y1="600.785" y2="720.121"/>
  <line id="right-margin-Ultralight-S" style="fill:none;stroke:#00AEEF;stroke-width:0.5;opacity:1.0;" x1="605.386" x2="605.386" y1="600.785" y2="720.121"/>
  <line id="left-margin-Ultralight-S" style="fill:none;stroke:#00AEEF;stroke-width:0.5;opacity:1.0;" x1="514.036" x2="514.036" y1="600.785" y2="720.121"/>
 </g>
 <g id="Symbols">
  <g id="Black-S" transform="matrix(1 0 0 1 2885.65 696)">
   <path class="monochrome-0 multicolor-0:tintColor hierarchical-0:primary SFSymbolsPreviewWireframe" d="M26.5137 2.73438C35.9863 2.73438 43.1641-4.93164 43.1641-13.9648L43.1641-56.3477C43.1641-65.4297 35.6445-73.0469 26.5137-73.0469C17.1875-73.0469 9.76562-65.4785 9.76562-56.3477C9.76562-47.1191 17.2363-39.6973 26.4648-39.6973L37.0117-39.6973C40.3809-39.6973 43.1152-42.4316 43.1152-45.8008C43.1152-49.1699 40.3809-51.9043 37.0117-51.9043L27.0508-51.9043C24.1699-51.9043 22.168-53.8574 22.168-56.2988C22.168-58.7402 24.0723-60.6445 26.5137-60.6445C28.8574-60.6445 30.9082-58.6426 30.9082-55.7617L30.9082-14.5508C30.9082-11.7188 28.8574-9.66797 26.5137-9.66797C24.0723-9.66797 22.168-11.5723 22.168-14.0137C22.168-16.4551 24.1699-18.4082 27.0508-18.4082L68.457-18.4082C71.3379-18.4082 73.3398-16.4551 73.3398-14.0137C73.3398-11.5723 71.4355-9.66797 68.9941-9.66797C66.6504-9.66797 64.5996-11.6699 64.5996-14.5508L64.5996-55.7617C64.5996-58.6426 66.6504-60.6445 68.9941-60.6445C71.4355-60.6445 73.3398-58.7402 73.3398-56.2988C73.3398-53.8574 71.3379-51.9043 68.457-51.9043L37.0117-51.9043C33.6426-51.9043 30.9082-49.1699 30.9082-45.8008C30.9082-42.4316 33.6426-39.6973 37.0117-39.6973L69.043-39.6973C78.2715-39.6973 85.7422-47.1191 85.7422-56.3477C85.7422-65.4785 78.3203-73.0469 68.9941-73.0469C59.8633-73.0469 52.3438-65.4297 52.3438-56.3477L52.3438-13.9648C52.3438-4.88281 59.8633 2.73438 68.9941 2.73438C78.3203 2.73438 85.7422-4.83398 85.7422-13.9648C85.7422-23.1934 78.2715-30.6152 69.043-30.6152L26.4648-30.6152C17.2363-30.6152 9.76562-23.1934 9.76562-13.9648C9.76562-4.83398 17.1875 2.73438 26.5137 2.73438Z" data-clipstroke-keyframes="0 0 0 0.58703166 0.54399943 0 0.09880676 0.6194204 0.51173 0 0.16105829 0.6529961 0.5029501 0 0.21395667 0.6872128 0.4941094 0 0.24064797 0.7209683 0.4853772 0 0.4073207 0.7755104 0.43084922 0 0.43445432 0.80954504 0.4219723 0 0.46103486 0.8434825 0.41327634 0 0.49054167 0.87805736 0.403623 0 0.6534161 0.9313466 0.35033768 0 0.68292296 0.96626824 0.34068435 0 0.7098375 0 0.3318791 0 0.7366267 0.03397649 0.32311484 0 0.9032694 0.088518545 0.2685967 0 0.9299607 0.12227402 0.2598645 0 0.95698357 0.1564907 0.25102383 0 0.9842058 0.1903125 0.24211791 0 1 0.19547544 0.23695074"/>
  </g>
  <g id="Regular-S" transform="matrix(1 0 0 1 1403.9 696)">
   <path class="monochrome-0 multicolor-0:tintColor hierarchical-0:primary SFSymbolsPreviewWireframe" d="M23.7305 0.732422C31.4453 0.732422 37.6953-5.51758 37.6953-13.2812L37.6953-57.4219C37.6953-65.1855 31.4453-71.4355 23.7305-71.4355C16.0156-71.4355 9.76562-65.1855 9.76562-57.4219C9.76562-49.6582 16.0156-43.6035 23.7305-43.6035L34.3262-43.6035C36.1328-43.6035 37.5977-45.0684 37.5977-46.9238C37.5977-48.7305 36.1328-50.1953 34.3262-50.1953L23.7305-50.1953C19.8242-50.1953 16.5527-53.4668 16.5527-57.4219C16.5527-61.377 19.8242-64.5996 23.7305-64.5996C27.6367-64.5996 30.9082-61.377 30.9082-57.4219L30.9082-13.2812C30.9082-9.32617 27.6367-6.10352 23.7305-6.10352C19.8242-6.10352 16.5527-9.32617 16.5527-13.2812C16.5527-17.2363 19.8242-20.5078 23.7305-20.5078L68.1641-20.5078C72.0703-20.5078 75.3418-17.2363 75.3418-13.2812C75.3418-9.32617 72.0703-6.10352 68.1641-6.10352C64.2578-6.10352 61.0352-9.32617 61.0352-13.2812L61.0352-57.4219C61.0352-61.377 64.2578-64.5996 68.1641-64.5996C72.0703-64.5996 75.3418-61.377 75.3418-57.4219C75.3418-53.4668 72.0703-50.1953 68.1641-50.1953L34.3262-50.1953C32.4707-50.1953 31.0059-48.7305 31.0059-46.9238C31.0059-45.0684 32.4707-43.6035 34.3262-43.6035L68.1641-43.6035C75.8789-43.6035 82.1289-49.6582 82.1289-57.4219C82.1289-65.1855 75.8789-71.4355 68.1641-71.4355C60.4492-71.4355 54.1992-65.1855 54.1992-57.4219L54.1992-13.2812C54.1992-5.51758 60.4492 0.732422 68.1641 0.732422C75.8789 0.732422 82.1289-5.51758 82.1289-13.2812C82.1289-21.0449 75.8789-27.0508 68.1641-27.0508L23.7305-27.0508C16.0156-27.0508 9.76562-21.0449 9.76562-13.2812C9.76562-5.51758 16.0156 0.732422 23.7305 0.732422Z" data-clipstroke-keyframes="0 0 0 0.6199821 0.5964422 0 0.09574791 0.6587485 0.5576751 0 0.14789188 0.6868859 0.54319155 0 0.19600305 0.7154253 0.528512 0 0.23185314 0.7438448 0.5139969 0 0.3725317 0.8008032 0.4570385 0 0.40867397 0.8293395 0.4424051 0 0.44463816 0.85776204 0.4278438 0 0.48069504 0.8859723 0.413245 0 0.62230736 0.9433088 0.35590857 0 0.65866005 0.97169536 0.34118995 0 0.6946206 0 0.32663015 0 0.7305745 0.028477905 0.31207302 0 0.8712531 0.08543629 0.25511461 0 0.907207 0.11385577 0.24055749 0 0.9434634 0.14239515 0.22587791 0 0.9795139 0.17064452 0.21128167 0 1 0.17893901 0.20298718"/>
  </g>
  <g id="Ultralight-S" transform="matrix(1 0 0 1 514.036 696)">
   <path class="monochrome-0 multicolor-0:tintColor hierarchical-0:primary SFSymbolsPreviewWireframe" d="M22.0503 0.687012C28.8115 0.687012 34.335-4.88184 34.335-11.6465L34.335-58.875C34.335-65.6396 28.8115-71.2085 22.0503-71.2085C15.3345-71.2085 9.76562-65.6396 9.76562-58.875C9.76562-52.0649 15.3345-46.5097 22.0503-46.5097L33.2363-46.5097C33.8623-46.5097 34.3282-47.021 34.3282-47.605C34.3282-48.231 33.8623-48.6968 33.2363-48.6968L22.0503-48.6968C16.5093-48.6968 11.9663-53.2852 11.9663-58.875C11.9663-64.4194 16.5093-69.0044 22.0503-69.0044C27.5913-69.0044 32.1797-64.4194 32.1797-58.875L32.1797-11.6465C32.1797-6.05667 27.5913-1.51713 22.0503-1.51713C16.5093-1.51713 11.9663-6.05667 11.9663-11.6465C11.9663-17.2363 16.5093-21.8247 22.0503-21.8247L69.2993-21.8247C74.7949-21.8247 79.3833-17.2363 79.3833-11.6465C79.3833-6.05667 74.7949-1.51713 69.2993-1.51713C63.7583-1.51713 59.1734-6.05667 59.1734-11.6465L59.1734-58.875C59.1734-64.4194 63.7583-69.0044 69.2993-69.0044C74.7949-69.0044 79.3833-64.4194 79.3833-58.875C79.3833-53.2852 74.7949-48.6968 69.2993-48.6968L33.2363-48.6968C32.6523-48.6968 32.1865-48.231 32.1865-47.605C32.1865-47.021 32.6523-46.5097 33.2363-46.5097L69.2993-46.5097C76.0151-46.5097 81.584-52.0649 81.584-58.875C81.584-65.6396 76.0151-71.2085 69.2993-71.2085C62.5381-71.2085 56.9692-65.6396 56.9692-58.875L56.9692-11.6465C56.9692-4.88184 62.5381 0.687012 69.2993 0.687012C76.0151 0.687012 81.584-4.88184 81.584-11.6465C81.584-18.4566 76.0151-24.0083 69.2993-24.0083L22.0503-24.0083C15.3345-24.0083 9.76562-18.4566 9.76562-11.6465C9.76562-4.88184 15.3345 0.687012 22.0503 0.687012Z" data-clipstroke-keyframes="0 0 0 0.6493329 0.6399237 0 0.08969616 0.6914833 0.59779096 0 0.13572177 0.71524775 0.57826495 0 0.18241107 0.7393669 0.5584692 0 0.22524764 0.76335496 0.53875417 0 0.34927765 0.8216274 0.48048174 0 0.39160672 0.84581095 0.46059448 0 0.43342614 0.8697346 0.44094664 0 0.47539926 0.8937079 0.42122662 0 0.59948313 0.9520056 0.3629289 0 0.6419998 0.97627383 0.3429535 0 0.6834118 0 0.32349712 0 0.72566277 0.024048723 0.30364653 0 0.84969276 0.082321145 0.24537411 0 0.89166117 0.106271796 0.2256563 0 0.93382144 0.13039091 0.20584834 0 0.97580767 0.15436101 0.18612215 0 1 0.16572718 0.17475598"/>
  </g>
 </g>
</svg>
