<?xml version="1.0" encoding="UTF-8"?>
<!--Generator: Apple Native CoreSVG 360-->
<!DOCTYPE svg
PUBLIC "-//W3C//DTD SVG 1.1//EN"
       "http://www.w3.org/Graphics/SVG/1.1/DTD/svg11.dtd">
<svg version="1.1" xmlns="http://www.w3.org/2000/svg" xmlns:xlink="http://www.w3.org/1999/xlink" viewBox="0 0 3300 2200">
 <!--glyph: "100DFA", point size: 100.0, font version: "21.1d1e1", template writer version: "138.0.0"-->
 <style>.defaults {-sfsymbols-draw-reverses-motion-groups:true}

.monochrome-0 {-sfsymbols-motion-group:0;-sfsymbols-layer-tags:lightrail}

.multicolor-0:tintColor {-sfsymbols-motion-group:0;-sfsymbols-layer-tags:lightrail}

.hierarchical-0:primary {-sfsymbols-motion-group:0;-sfsymbols-layer-tags:lightrail}

.SFSymbolsPreviewWireframe {fill:none;opacity:1.0;stroke:black;stroke-width:0.5}
</style>
 <g id="Notes">
  <rect height="2200" id="artboard" style="fill:white;opacity:1" width="3300" x="0" y="0"/>
  <line style="fill:none;stroke:black;opacity:1;stroke-width:0.5;" x1="263" x2="3036" y1="292" y2="292"/>
  <text style="stroke:none;fill:black;font-family:sans-serif;font-size:13;font-weight:bold;" transform="matrix(1 0 0 1 263 322)">Weight/Scale Variations</text>
  <text style="stroke:none;fill:black;font-family:sans-serif;font-size:13;text-anchor:middle;" transform="matrix(1 0 0 1 559.711 322)">Ultralight</text>
  <text style="stroke:none;fill:black;font-family:sans-serif;font-size:13;text-anchor:middle;" transform="matrix(1 0 0 1 856.422 322)">Thin</text>
  <text style="stroke:none;fill:black;font-family:sans-serif;font-size:13;text-anchor:middle;" transform="matrix(1 0 0 1 1153.13 322)">Light</text>
  <text style="stroke:none;fill:black;font-family:sans-serif;font-size:13;text-anchor:middle;" transform="matrix(1 0 0 1 1449.84 322)">Regular</text>
  <text style="stroke:none;fill:black;font-family:sans-serif;font-size:13;text-anchor:middle;" transform="matrix(1 0 0 1 1746.56 322)">Medium</text>
  <text style="stroke:none;fill:black;font-family:sans-serif;font-size:13;text-anchor:middle;" transform="matrix(1 0 0 1 2043.27 322)">Semibold</text>
  <text style="stroke:none;fill:black;font-family:sans-serif;font-size:13;text-anchor:middle;" transform="matrix(1 0 0 1 2339.98 322)">Bold</text>
  <text style="stroke:none;fill:black;font-family:sans-serif;font-size:13;text-anchor:middle;" transform="matrix(1 0 0 1 2636.69 322)">Heavy</text>
  <text style="stroke:none;fill:black;font-family:sans-serif;font-size:13;text-anchor:middle;" transform="matrix(1 0 0 1 2933.4 322)">Black</text>
  <line style="fill:none;stroke:black;opacity:1;stroke-width:0.5;" x1="263" x2="3036" y1="1903" y2="1903"/>
  <g transform="matrix(0.2 0 0 0.2 263 1933)">
   <path d="m46.2402 4.15039c21.7773 0 39.4531-17.627 39.4531-39.4043s-17.6758-39.4043-39.4531-39.4043c-21.7285 0-39.4043 17.627-39.4043 39.4043s17.6758 39.4043 39.4043 39.4043Zm0-7.42188c-17.6758 0-31.9336-14.3066-31.9336-31.9824s14.2578-31.9824 31.9336-31.9824 31.9824 14.3066 31.9824 31.9824-14.3066 31.9824-31.9824 31.9824Zm3.61328-17.7734v-28.4668c0-2.24609-1.46484-3.75977-3.71094-3.75977-2.14844 0-3.61328 1.51367-3.61328 3.75977v28.4668c0 2.19727 1.46484 3.71094 3.61328 3.71094 2.24609 0 3.71094-1.51367 3.71094-3.71094Zm-17.8223-10.5957h28.418c2.19727 0 3.71094-1.46484 3.71094-3.61328 0-2.19727-1.51367-3.71094-3.71094-3.71094h-28.418c-2.24609 0-3.75977 1.51367-3.75977 3.71094 0 2.14844 1.51367 3.61328 3.75977 3.61328Z"/>
  </g>
  <g transform="matrix(0.2 0 0 0.2 281.506 1933)">
   <path d="m58.5449 14.5508c27.4902 0 49.8047-22.3145 49.8047-49.8047s-22.3145-49.8047-49.8047-49.8047-49.8047 22.3145-49.8047 49.8047 22.3145 49.8047 49.8047 49.8047Zm0-8.30078c-22.9492 0-41.5039-18.5547-41.5039-41.5039s18.5547-41.5039 41.5039-41.5039 41.5039 18.5547 41.5039 41.5039-18.5547 41.5039-41.5039 41.5039Zm4.05273-23.0957v-36.9141c0-2.49023-1.70898-4.19922-4.15039-4.19922-2.39258 0-4.05273 1.70898-4.05273 4.19922v36.9141c0 2.44141 1.66016 4.15039 4.05273 4.15039 2.44141 0 4.15039-1.66016 4.15039-4.15039Zm-22.5586-14.4043h36.9629c2.44141 0 4.15039-1.61133 4.15039-4.00391 0-2.44141-1.70898-4.15039-4.15039-4.15039h-36.9629c-2.49023 0-4.15039 1.70898-4.15039 4.15039 0 2.39258 1.66016 4.00391 4.15039 4.00391Z"/>
  </g>
  <g transform="matrix(0.2 0 0 0.2 304.924 1933)">
   <path d="m74.8535 28.3203c35.1074 0 63.623-28.4668 63.623-63.5742s-28.5156-63.623-63.623-63.623-63.5742 28.5156-63.5742 63.623 28.4668 63.5742 63.5742 63.5742Zm0-9.08203c-30.127 0-54.4922-24.3652-54.4922-54.4922s24.3652-54.4922 54.4922-54.4922 54.4922 24.3652 54.4922 54.4922-24.3652 54.4922-54.4922 54.4922Zm4.44336-30.3223v-48.4863c0-2.73438-1.85547-4.63867-4.54102-4.63867-2.58789 0-4.44336 1.9043-4.44336 4.63867v48.4863c0 2.68555 1.85547 4.58984 4.44336 4.58984 2.68555 0 4.54102-1.85547 4.54102-4.58984Zm-28.7109-19.7754h48.4863c2.68555 0 4.58984-1.80664 4.58984-4.39453 0-2.73438-1.85547-4.58984-4.58984-4.58984h-48.4863c-2.73438 0-4.58984 1.85547-4.58984 4.58984 0 2.58789 1.85547 4.39453 4.58984 4.39453Z"/>
  </g>
  <text style="stroke:none;fill:black;font-family:sans-serif;font-size:13;font-weight:bold;" transform="matrix(1 0 0 1 263 1953)">Design Variations</text>
  <text style="stroke:none;fill:black;font-family:sans-serif;font-size:13;" transform="matrix(1 0 0 1 263 1971)">Symbols are supported in up to nine weights and three scales.</text>
  <text style="stroke:none;fill:black;font-family:sans-serif;font-size:13;" transform="matrix(1 0 0 1 263 1989)">For optimal layout with text and other symbols, vertically align</text>
  <text style="stroke:none;fill:black;font-family:sans-serif;font-size:13;" transform="matrix(1 0 0 1 263 2007)">symbols with the adjacent text.</text>
  <line style="fill:none;stroke:#00AEEF;stroke-width:0.5;opacity:1.0;" x1="776" x2="776" y1="1919" y2="1933"/>
  <g transform="matrix(0.2 0 0 0.2 776 1933)">
   <path d="m16.5527 0.78125c2.58789 0 3.85742-0.976562 4.78516-3.71094l20.5566-57.5195h0.244141l20.6055 57.5195c0.927734 2.73438 2.19727 3.71094 4.73633 3.71094 2.58789 0 4.24805-1.5625 4.24805-4.00391 0-0.830078-0.146484-1.61133-0.537109-2.63672l-22.9004-60.9863c-1.12305-2.97852-3.125-4.49219-6.25-4.49219-3.02734 0-5.07812 1.46484-6.15234 4.44336l-22.9004 61.084c-0.390625 1.02539-0.537109 1.80664-0.537109 2.63672 0 2.44141 1.5625 3.95508 4.10156 3.95508Zm10.2051-20.9473h30.6641c2.00195 0 3.66211-1.66016 3.66211-3.66211 0-2.05078-1.66016-3.66211-3.66211-3.66211h-30.6641c-2.00195 0-3.66211 1.61133-3.66211 3.66211 0 2.00195 1.66016 3.66211 3.66211 3.66211Z"/>
  </g>
  <line style="fill:none;stroke:#00AEEF;stroke-width:0.5;opacity:1.0;" x1="792.836" x2="792.836" y1="1919" y2="1933"/>
  <text style="stroke:none;fill:black;font-family:sans-serif;font-size:13;font-weight:bold;" transform="matrix(1 0 0 1 776 1953)">Margins</text>
  <text style="stroke:none;fill:black;font-family:sans-serif;font-size:13;" transform="matrix(1 0 0 1 776 1971)">Leading and trailing margins on the left and right side of each symbol</text>
  <text style="stroke:none;fill:black;font-family:sans-serif;font-size:13;" transform="matrix(1 0 0 1 776 1989)">can be adjusted by modifying the x-location of the margin guidelines.</text>
  <text style="stroke:none;fill:black;font-family:sans-serif;font-size:13;" transform="matrix(1 0 0 1 776 2007)">Modifications are automatically applied proportionally to all</text>
  <text style="stroke:none;fill:black;font-family:sans-serif;font-size:13;" transform="matrix(1 0 0 1 776 2025)">scales and weights.</text>
  <g transform="matrix(0.2 0 0 0.2 1289 1933)">
   <path d="m14.209 13.1348 7.86133 7.86133c4.29688 4.39453 9.32617 4.10156 13.8672-1.02539l60.6934-68.2129-4.88281-4.88281-60.2539 67.6758c-1.80664 1.95312-3.4668 2.44141-5.81055 0.0976562l-5.17578-5.12695c-2.29492-2.29492-1.80664-3.95508 0.195312-5.81055l67.4805-62.1582-4.88281-4.83398-68.0664 62.5977c-4.98047 4.58984-5.32227 9.47266-1.02539 13.8184Zm44.873-97.4609c-2.05078 2.00195-2.24609 4.88281-1.07422 6.78711 1.12305 1.80664 3.4668 3.02734 6.5918 2.24609 5.85938-1.66016 12.5977-2.39258 18.8965 0.927734l-2.68555 7.12891c-1.61133 4.00391-0.732422 6.88477 1.70898 9.42383l10.2539 10.3027c2.34375 2.39258 4.54102 2.44141 7.08008 1.95312l4.44336-0.732422 2.58789 2.53906-0.195312 2.24609c-0.0976562 2.29492 0.537109 4.29688 2.7832 6.49414l3.36914 3.32031c2.29492 2.29492 5.51758 2.49023 7.8125 0.195312l12.9883-13.0371c2.29492-2.34375 2.14844-5.37109-0.195312-7.66602l-3.41797-3.41797c-2.19727-2.19727-4.05273-3.02734-6.34766-2.88086l-2.34375 0.244141-2.44141-2.44141 1.02539-4.6875c0.634766-2.73438-0.244141-4.98047-2.88086-7.61719l-11.2793-11.1816c-12.9395-12.8418-35.5957-11.0352-46.6797-0.146484Zm7.08008 2.05078c8.78906-6.39648 25.9766-5.66406 33.6914 1.95312l12.3047 12.207c1.02539 1.02539 1.2207 1.80664 0.927734 3.32031l-1.46484 6.64062 6.73828 6.68945 4.39453-0.244141c1.12305-0.0488281 1.51367 0.0488281 2.34375 0.878906l2.53906 2.49023-10.8398 10.8398-2.49023-2.49023c-0.830078-0.878906-0.976562-1.2207-0.927734-2.39258l0.292969-4.3457-6.68945-6.73828-6.83594 1.17188c-1.41602 0.292969-2.05078 0.195312-3.17383-0.878906l-8.93555-8.88672c-1.07422-1.02539-1.17188-1.70898-0.488281-3.36914l4.58984-11.4746c-6.10352-6.34766-17.041-7.51953-25.5859-4.58984-0.683594 0.244141-0.927734-0.390625-0.390625-0.78125Z"/>
  </g>
  <text style="stroke:none;fill:black;font-family:sans-serif;font-size:13;font-weight:bold;" transform="matrix(1 0 0 1 1289 1953)">Exporting</text>
  <text style="stroke:none;fill:black;font-family:sans-serif;font-size:13;" transform="matrix(1 0 0 1 1289 1971)">Symbols should be outlined when exporting to ensure the</text>
  <text style="stroke:none;fill:black;font-family:sans-serif;font-size:13;" transform="matrix(1 0 0 1 1289 1989)">design is preserved when submitting to Xcode.</text>
  <text id="template-version" style="stroke:none;fill:black;font-family:sans-serif;font-size:13;text-anchor:end;" transform="matrix(1 0 0 1 3036 1933)">Template v.7.0</text>
  <text style="stroke:none;fill:black;font-family:sans-serif;font-size:13;text-anchor:end;" transform="matrix(1 0 0 1 3036 1951)">Requires Xcode 26 or greater</text>
  <text id="descriptive-name" style="stroke:none;fill:black;font-family:sans-serif;font-size:13;text-anchor:end;" transform="matrix(1 0 0 1 3036 1969)">Generated from lightrail</text>
  <text style="stroke:none;fill:black;font-family:sans-serif;font-size:13;text-anchor:end;" transform="matrix(1 0 0 1 3036 1987)">Typeset at 100.0 points</text>
  <text style="stroke:none;fill:black;font-family:sans-serif;font-size:13;" transform="matrix(1 0 0 1 263 726)">Small</text>
  <text style="stroke:none;fill:black;font-family:sans-serif;font-size:13;" transform="matrix(1 0 0 1 263 1156)">Medium</text>
  <text style="stroke:none;fill:black;font-family:sans-serif;font-size:13;" transform="matrix(1 0 0 1 263 1586)">Large</text>
 </g>
 <g id="Guides">
  <g id="H-reference" style="fill:#27AAE1;stroke:none;" transform="matrix(1 0 0 1 339 696)">
   <path d="M0.993654 0L3.63775 0L29.3281-67.1323L30.0303-67.1323L30.0303-70.459L28.1226-70.459ZM11.6885-24.4799L46.9815-24.4799L46.2315-26.7285L12.4385-26.7285ZM55.1196 0L57.7637 0L30.6382-70.459L29.4326-70.459L29.4326-67.1323Z"/>
  </g>
  <line id="Baseline-S" style="fill:none;stroke:#27AAE1;opacity:1;stroke-width:0.5;" x1="263" x2="3036" y1="696" y2="696"/>
  <line id="Capline-S" style="fill:none;stroke:#27AAE1;opacity:1;stroke-width:0.5;" x1="263" x2="3036" y1="625.541" y2="625.541"/>
  <g id="H-reference" style="fill:#27AAE1;stroke:none;" transform="matrix(1 0 0 1 339 1126)">
   <path d="M0.993654 0L3.63775 0L29.3281-67.1323L30.0303-67.1323L30.0303-70.459L28.1226-70.459ZM11.6885-24.4799L46.9815-24.4799L46.2315-26.7285L12.4385-26.7285ZM55.1196 0L57.7637 0L30.6382-70.459L29.4326-70.459L29.4326-67.1323Z"/>
  </g>
  <line id="Baseline-M" style="fill:none;stroke:#27AAE1;opacity:1;stroke-width:0.5;" x1="263" x2="3036" y1="1126" y2="1126"/>
  <line id="Capline-M" style="fill:none;stroke:#27AAE1;opacity:1;stroke-width:0.5;" x1="263" x2="3036" y1="1055.54" y2="1055.54"/>
  <g id="H-reference" style="fill:#27AAE1;stroke:none;" transform="matrix(1 0 0 1 339 1556)">
   <path d="M0.993654 0L3.63775 0L29.3281-67.1323L30.0303-67.1323L30.0303-70.459L28.1226-70.459ZM11.6885-24.4799L46.9815-24.4799L46.2315-26.7285L12.4385-26.7285ZM55.1196 0L57.7637 0L30.6382-70.459L29.4326-70.459L29.4326-67.1323Z"/>
  </g>
  <line id="Baseline-L" style="fill:none;stroke:#27AAE1;opacity:1;stroke-width:0.5;" x1="263" x2="3036" y1="1556" y2="1556"/>
  <line id="Capline-L" style="fill:none;stroke:#27AAE1;opacity:1;stroke-width:0.5;" x1="263" x2="3036" y1="1485.54" y2="1485.54"/>
  <line id="right-margin-Black-S" style="fill:none;stroke:#00AEEF;stroke-width:0.5;opacity:1.0;" x1="2982.47" x2="2982.47" y1="600.785" y2="720.121"/>
  <line id="left-margin-Black-S" style="fill:none;stroke:#00AEEF;stroke-width:0.5;opacity:1.0;" x1="2884.33" x2="2884.33" y1="600.785" y2="720.121"/>
  <line id="right-margin-Regular-S" style="fill:none;stroke:#00AEEF;stroke-width:0.5;opacity:1.0;" x1="1494.82" x2="1494.82" y1="600.785" y2="720.121"/>
  <line id="left-margin-Regular-S" style="fill:none;stroke:#00AEEF;stroke-width:0.5;opacity:1.0;" x1="1404.87" x2="1404.87" y1="600.785" y2="720.121"/>
  <line id="right-margin-Ultralight-S" style="fill:none;stroke:#00AEEF;stroke-width:0.5;opacity:1.0;" x1="600.708" x2="600.708" y1="600.785" y2="720.121"/>
  <line id="left-margin-Ultralight-S" style="fill:none;stroke:#00AEEF;stroke-width:0.5;opacity:1.0;" x1="518.714" x2="518.714" y1="600.785" y2="720.121"/>
 </g>
 <g id="Symbols">
  <g id="Black-S" transform="matrix(1 0 0 1 2884.33 696)">
   <path class="monochrome-0 multicolor-0:tintColor hierarchical-0:primary SFSymbolsPreviewWireframe" d="M27.1973 8.83789L70.9473 8.83789C81.2988 8.83789 88.3789 1.41602 88.3789-9.32617L88.3789-29.3945C88.3789-39.3555 87.2559-50.1953 85.4004-57.959C83.0078-68.3105 75.7812-75.1953 66.0645-76.2207C63.9648-76.416 56.7871-76.9531 49.0723-76.9531C40.332-76.9531 34.1309-76.416 32.0801-76.2207C22.3633-75.1953 15.1367-68.3105 12.7441-57.959C10.8887-50.0488 9.76562-39.6973 9.76562-29.834L9.76562-9.32617C9.76562 1.41602 16.8457 8.83789 27.1973 8.83789ZM28.2227-2.14844C23.2422-2.14844 20.752-4.54102 20.752-9.32617L20.752-29.834C20.752-38.9648 21.7285-48.3398 23.4375-55.4688C24.8047-61.2793 28.2227-64.7461 33.1543-65.2344C35.1562-65.4297 40.7227-65.9668 49.0723-65.9668C56.3965-65.9668 63.0371-65.4297 64.9902-65.2344C69.9219-64.7461 73.3398-61.2793 74.707-55.4688C76.3672-48.4375 77.3926-38.6719 77.3926-29.3945L77.3926-9.32617C77.3926-4.54102 74.9023-2.14844 69.9219-2.14844ZM49.0723-20.3613C57.5684-20.4102 63.5254-20.7031 66.9434-21.0938C69.5312-21.3867 71.0938-23.1934 71.0938-25.7324L71.0938-32.2266C71.0938-38.2324 70.4102-44.3359 70.1172-46.0449C69.8242-48.2422 68.2129-49.8047 66.1133-50.0488C62.5977-50.4883 57.0312-50.7324 49.0723-50.7812C41.0156-50.7324 35.498-50.4883 32.0801-50.0488C29.9316-49.8047 28.3203-48.2422 28.0273-46.0449C27.7832-44.3359 27.0508-38.2324 27.0508-32.2266L27.0508-25.7324C27.0508-23.1934 28.6133-21.3867 31.2012-21.0938C34.5703-20.7031 40.4785-20.4102 49.0723-20.3613ZM32.4219-6.5918C35.4004-6.5918 37.6465-8.83789 37.6465-11.8164C37.6465-14.7949 35.4004-17.041 32.4219-17.041C29.4922-17.041 27.2461-14.7949 27.2461-11.8164C27.2461-8.83789 29.4434-6.5918 32.4219-6.5918ZM65.6738-6.5918C68.6523-6.5918 70.8984-8.83789 70.8984-11.8164C70.8984-14.7949 68.6523-17.041 65.6738-17.041C62.7441-17.041 60.498-14.7949 60.498-11.8164C60.498-8.83789 62.6953-6.5918 65.6738-6.5918ZM40.4785-53.9062L57.6172-53.9062C59.8633-53.9062 61.5723-55.6152 61.5723-57.8613C61.5723-60.1562 59.8633-61.8652 57.6172-61.8652L40.4785-61.8652C38.2324-61.8652 36.5723-60.1562 36.5723-57.8613C36.5723-55.5664 38.2324-53.9062 40.4785-53.9062ZM13.1836-81.4941C13.1836-78.7109 14.9902-76.6602 17.9688-76.6602C19.7266-76.6602 21.2891-77.6367 22.6074-79.0039C23.877-80.3223 25-80.8594 27.1973-80.8594L70.9473-80.8594C73.1445-80.8594 74.2676-80.3223 75.5371-79.0039C76.8555-77.6367 78.418-76.6602 80.1758-76.6602C83.1543-76.6602 84.9609-78.7109 84.9609-81.4941C84.9609-83.3984 84.082-85.3027 82.6172-86.7676C79.1504-90.2344 74.8535-91.3574 69.9219-91.3574L28.2227-91.3574C23.291-91.3574 18.9941-90.2344 15.5273-86.7676C14.0625-85.3027 13.1836-83.3984 13.1836-81.4941ZM47.998-72.7051L37.6465-85.498L24.9023-85.498L35.3027-72.7051ZM50.1465-72.7051L62.8418-72.7051L73.2422-85.498L60.498-85.498ZM26.5625 0.976562L17.7246 15.1367C16.2598 17.4805 17.1875 21.0938 20.7031 21.0938L24.2676 21.0938C26.1719 21.0938 27.3438 20.4102 28.3691 18.7988L39.4531 0.976562ZM58.7402 0.976562L69.8242 18.7988C70.8496 20.4102 72.0215 21.0938 73.9258 21.0938L76.5137 21.0938C80.0293 21.0938 81.9336 17.4805 80.0293 14.4531L71.6309 0.976562Z"/>
  </g>
  <g id="Regular-S" transform="matrix(1 0 0 1 1404.87 696)">
   <path class="monochrome-0 multicolor-0:tintColor hierarchical-0:primary SFSymbolsPreviewWireframe" d="M24.0234 4.29688L65.918 4.29688C74.5117 4.29688 80.1758-1.70898 80.1758-10.6445L80.1758-29.9805C80.1758-39.4531 79.1504-49.5605 77.3926-56.7871C75.3418-65.7227 69.2871-71.4844 61.0352-72.3633C59.0332-72.5586 52.2949-73.0957 44.9707-73.0957C36.7188-73.0957 30.957-72.5586 28.9551-72.3633C20.6543-71.4844 14.5996-65.7227 12.5977-56.7871C10.8398-49.5605 9.76562-39.8926 9.76562-30.4199L9.76562-10.6445C9.76562-1.70898 15.4785 4.29688 24.0234 4.29688ZM25-1.36719C18.6035-1.36719 15.4297-5.07812 15.4297-10.6445L15.4297-30.4199C15.4297-39.4531 16.4062-48.584 18.0664-55.4688C19.6289-62.1094 23.7305-66.1133 29.4922-66.6992C31.3965-66.8945 36.9141-67.4316 44.9707-67.4316C52.0996-67.4316 58.5449-66.8945 60.4492-66.6992C66.2109-66.1133 70.3613-62.1094 71.9238-55.4688C73.584-48.6328 74.5605-39.0137 74.5605-29.9805L74.5605-10.6445C74.5605-5.07812 71.3867-1.36719 64.9902-1.36719ZM44.9707-23.291C54.9805-23.3398 62.6465-23.7793 66.6016-24.3164C68.7988-24.6094 69.5312-26.0254 69.5312-28.0762L69.5312-32.8613C69.5312-40.8203 68.7012-47.0215 68.1641-49.2188C67.7734-50.7812 66.8457-51.9531 65.2344-52.1484C60.9863-52.6855 56.6406-52.9785 44.9707-53.0273C33.3008-52.9785 28.9551-52.6855 24.707-52.1484C23.1445-51.9531 22.2168-50.7812 21.8262-49.2188C21.2402-47.0215 20.4102-40.8203 20.4102-32.8613L20.4102-28.0762C20.4102-26.0254 21.1426-24.6094 23.3887-24.3164C27.3438-23.7793 34.9609-23.3398 44.9707-23.291ZM27.3438-6.98242C30.4199-6.98242 32.7637-9.22852 32.7637-12.4023C32.7637-15.5762 30.5176-17.8223 27.3438-17.8223C24.1699-17.8223 21.9238-15.5762 21.9238-12.4023C21.9238-9.22852 24.1699-6.98242 27.3438-6.98242ZM62.5488-6.93359C65.5762-6.93359 68.0176-9.27734 68.0176-12.4023C68.0176-15.5273 65.625-17.8711 62.5488-17.8711C59.4238-17.8711 57.0312-15.5273 57.0312-12.4023C57.0312-9.27734 59.4238-6.93359 62.5488-6.93359ZM35.3516-57.3242L54.5898-57.3242C56.1523-57.3242 57.1289-58.3496 57.1289-59.8633C57.1289-61.377 56.1523-62.3535 54.5898-62.3535L35.3516-62.3535C33.8379-62.3535 32.8125-61.377 32.8125-59.8633C32.8125-58.3496 33.8379-57.3242 35.3516-57.3242ZM12.793-78.6133C12.793-76.9043 14.0625-75.8301 15.6738-75.8301C16.4551-75.8301 17.334-76.2695 18.0176-77.1484C20.166-79.7852 22.5098-80.8105 26.8555-80.8105L63.1348-80.8105C67.4805-80.8105 69.8242-79.7852 71.9238-77.1484C72.6562-76.2695 73.4863-75.8301 74.3164-75.8301C75.8789-75.8301 77.1484-76.9043 77.1484-78.6133C77.1484-79.834 76.2695-81.1523 75.1465-82.1777C71.7773-85.4492 67.8711-86.5234 63.1348-86.5234L26.8555-86.5234C22.1191-86.5234 18.2129-85.4492 14.7949-82.1777C13.7207-81.1523 12.793-79.834 12.793-78.6133ZM40.4785-72.0703L33.1055-81.1523L25.293-81.1523L32.7148-72.0703ZM49.5117-72.0703L57.2266-72.0703L64.6484-81.1523L56.8848-81.1523ZM24.9512 2.29492L18.6523 12.4512C17.5293 14.209 18.5547 16.1133 20.5078 16.1133L22.8027 16.1133C23.9746 16.1133 24.6094 15.7227 25.2441 14.7461L32.959 2.29492ZM57.1777 2.29492L64.8926 14.7461C65.4785 15.7227 66.1621 16.1133 67.2852 16.1133L69.5801 16.1133C71.5332 16.1133 72.4609 14.1602 71.3867 12.4512L65.0879 2.29492Z"/>
  </g>
  <g id="Ultralight-S" transform="matrix(1 0 0 1 518.714 696)">
   <path class="monochrome-0 multicolor-0:tintColor hierarchical-0:primary SFSymbolsPreviewWireframe" d="M21.4805 0.527862L60.4688 0.527862C67.6094 0.527862 72.2291-4.29734 72.2291-11.8252L72.2291-31.3428C72.2291-40.0435 71.2491-49.3335 69.6275-56.0151C67.8946-63.6792 62.7935-68.5781 55.7222-69.3208C53.9473-69.5161 47.7539-70.0078 40.9746-70.0078C33.3584-70.0078 28.0508-69.5161 26.2305-69.3208C19.1558-68.5781 14.0547-63.6792 12.3252-56.0151C10.7036-49.2427 9.76562-40.3467 9.76562-31.7822L9.76562-11.8252C9.76562-4.29734 14.3433 0.527862 21.4805 0.527862ZM22.3662-1.59424C15.8335-1.59424 11.8877-5.4414 11.8877-11.8252L11.8877-31.7822C11.8877-40.3613 12.7735-48.9473 14.3428-55.4688C15.9507-62.2456 20.3247-66.522 26.4043-67.1079C28.127-67.3032 33.3721-67.8403 40.9746-67.8403C47.6494-67.8403 53.7769-67.3032 55.5904-67.1079C61.6245-66.522 66.002-62.2456 67.6099-55.4688C69.1792-49.0415 70.1104-40.0127 70.1104-31.3428L70.1104-11.8252C70.1104-5.4414 66.1192-1.59424 59.5865-1.59424ZM40.9746-21.7017C48.7139-21.7505 54.9268-22.0083 59.8355-22.4092C62.4869-22.6568 64.0367-24.3906 64.0367-27.0772L64.0367-34.3144C64.0367-40.4116 63.6607-43.7066 62.8965-47.8565C62.5059-50.1455 60.897-51.6353 58.6045-51.876C54.4927-52.2769 48.4215-52.6152 40.9746-52.6187C33.5278-52.6152 27.4566-52.2769 23.3447-51.876C21.0557-51.6353 19.4468-50.1455 19.0562-47.8565C18.334-43.7066 17.9126-40.4116 17.9126-34.3144L17.9126-27.0772C17.9126-24.3906 19.4624-22.6568 22.1172-22.4092C27.0259-22.0083 33.2354-21.7505 40.9746-21.7017ZM24.5283-8.39013C27.0142-8.39013 28.9492-10.2275 28.9492-12.7656C28.9492-15.3037 27.021-17.1865 24.5283-17.1865C21.9903-17.1865 20.1074-15.3037 20.1074-12.7656C20.1074-10.2275 21.9903-8.39013 24.5283-8.39013ZM57.3721-8.38671C59.8545-8.38671 61.7964-10.2309 61.7964-12.7656C61.7964-15.3003 59.858-17.1899 57.3721-17.1899C54.8374-17.1899 52.9444-15.3003 52.9444-12.7656C52.9444-10.2309 54.8374-8.38671 57.3721-8.38671ZM31.1739-58.0962L50.7754-58.0962C51.6568-58.0962 52.3155-58.7583 52.3155-59.6362C52.3155-60.5142 51.6568-61.1275 50.7754-61.1275L31.1739-61.1275C30.2959-61.1275 29.6338-60.5142 29.6338-59.6362C29.6338-58.7583 30.2959-58.0962 31.1739-58.0962ZM12.1572-75.1621C12.1572-74.3159 12.7456-73.6958 13.585-73.6958C14.1392-73.6958 14.6094-73.9082 15.0205-74.4693C17.2598-77.333 19.6035-78.313 24.0855-78.313L57.8672-78.313C62.3946-78.313 64.7383-77.333 66.9742-74.4693C67.3433-73.9082 67.8101-73.6958 68.3677-73.6958C69.2037-73.6958 69.7921-74.3159 69.7921-75.1621C69.7921-75.8833 69.4127-76.7022 68.4258-77.6368C65.647-80.3179 62.4673-81.3921 57.8672-81.3921L24.0855-81.3921C19.4854-81.3921 16.3057-80.3179 13.5234-77.6368C12.54-76.7022 12.1572-75.8833 12.1572-75.1621ZM35.9375-68.4375L26.8389-79.2451L22.8408-79.2451L31.9429-68.4375ZM46.0152-68.4375L50.0518-68.4375L59.1084-79.2451L55.1138-79.2451ZM23.4526-0.338846L17.4717 9.18167C16.939 10.0767 17.2832 10.982 18.3281 10.982L19.8057 10.982C20.4781 10.982 20.795 10.773 21.1573 10.2051L27.7823-0.338846ZM53.6812-0.338846L60.3062 10.2051C60.6651 10.773 60.9854 10.982 61.6543 10.982L63.1319 10.982C64.1314 10.982 64.5142 10.0733 63.9395 9.18167L58.004-0.338846Z"/>
  </g>
 </g>
</svg>
