<?xml version="1.0" encoding="UTF-8"?>
<!--Generator: Apple Native CoreSVG 360-->
<!DOCTYPE svg
PUBLIC "-//W3C//DTD SVG 1.1//EN"
       "http://www.w3.org/Graphics/SVG/1.1/DTD/svg11.dtd">
<svg version="1.1" xmlns="http://www.w3.org/2000/svg" xmlns:xlink="http://www.w3.org/1999/xlink" viewBox="0 0 3300 2200">
 <!--glyph: "100DFB", point size: 100.0, font version: "21.1d1e1", template writer version: "138.0.0"-->
 <style>.defaults {-sfsymbols-draw-reverses-motion-groups:true}

.monochrome-0 {-sfsymbols-motion-group:0;-sfsymbols-layer-tags:lightrail.fill}

.multicolor-0:tintColor {-sfsymbols-motion-group:0;-sfsymbols-layer-tags:lightrail.fill}

.hierarchical-0:primary {-sfsymbols-motion-group:0;-sfsymbols-layer-tags:lightrail.fill}

.SFSymbolsPreviewWireframe {fill:none;opacity:1.0;stroke:black;stroke-width:0.5}
</style>
 <g id="Notes">
  <rect height="2200" id="artboard" style="fill:white;opacity:1" width="3300" x="0" y="0"/>
  <line style="fill:none;stroke:black;opacity:1;stroke-width:0.5;" x1="263" x2="3036" y1="292" y2="292"/>
  <text style="stroke:none;fill:black;font-family:sans-serif;font-size:13;font-weight:bold;" transform="matrix(1 0 0 1 263 322)">Weight/Scale Variations</text>
  <text style="stroke:none;fill:black;font-family:sans-serif;font-size:13;text-anchor:middle;" transform="matrix(1 0 0 1 559.711 322)">Ultralight</text>
  <text style="stroke:none;fill:black;font-family:sans-serif;font-size:13;text-anchor:middle;" transform="matrix(1 0 0 1 856.422 322)">Thin</text>
  <text style="stroke:none;fill:black;font-family:sans-serif;font-size:13;text-anchor:middle;" transform="matrix(1 0 0 1 1153.13 322)">Light</text>
  <text style="stroke:none;fill:black;font-family:sans-serif;font-size:13;text-anchor:middle;" transform="matrix(1 0 0 1 1449.84 322)">Regular</text>
  <text style="stroke:none;fill:black;font-family:sans-serif;font-size:13;text-anchor:middle;" transform="matrix(1 0 0 1 1746.56 322)">Medium</text>
  <text style="stroke:none;fill:black;font-family:sans-serif;font-size:13;text-anchor:middle;" transform="matrix(1 0 0 1 2043.27 322)">Semibold</text>
  <text style="stroke:none;fill:black;font-family:sans-serif;font-size:13;text-anchor:middle;" transform="matrix(1 0 0 1 2339.98 322)">Bold</text>
  <text style="stroke:none;fill:black;font-family:sans-serif;font-size:13;text-anchor:middle;" transform="matrix(1 0 0 1 2636.69 322)">Heavy</text>
  <text style="stroke:none;fill:black;font-family:sans-serif;font-size:13;text-anchor:middle;" transform="matrix(1 0 0 1 2933.4 322)">Black</text>
  <line style="fill:none;stroke:black;opacity:1;stroke-width:0.5;" x1="263" x2="3036" y1="1903" y2="1903"/>
  <g transform="matrix(0.2 0 0 0.2 263 1933)">
   <path d="m46.2402 4.15039c21.7773 0 39.4531-17.627 39.4531-39.4043s-17.6758-39.4043-39.4531-39.4043c-21.7285 0-39.4043 17.627-39.4043 39.4043s17.6758 39.4043 39.4043 39.4043Zm0-7.42188c-17.6758 0-31.9336-14.3066-31.9336-31.9824s14.2578-31.9824 31.9336-31.9824 31.9824 14.3066 31.9824 31.9824-14.3066 31.9824-31.9824 31.9824Zm3.61328-17.7734v-28.4668c0-2.24609-1.46484-3.75977-3.71094-3.75977-2.14844 0-3.61328 1.51367-3.61328 3.75977v28.4668c0 2.19727 1.46484 3.71094 3.61328 3.71094 2.24609 0 3.71094-1.51367 3.71094-3.71094Zm-17.8223-10.5957h28.418c2.19727 0 3.71094-1.46484 3.71094-3.61328 0-2.19727-1.51367-3.71094-3.71094-3.71094h-28.418c-2.24609 0-3.75977 1.51367-3.75977 3.71094 0 2.14844 1.51367 3.61328 3.75977 3.61328Z"/>
  </g>
  <g transform="matrix(0.2 0 0 0.2 281.506 1933)">
   <path d="m58.5449 14.5508c27.4902 0 49.8047-22.3145 49.8047-49.8047s-22.3145-49.8047-49.8047-49.8047-49.8047 22.3145-49.8047 49.8047 22.3145 49.8047 49.8047 49.8047Zm0-8.30078c-22.9492 0-41.5039-18.5547-41.5039-41.5039s18.5547-41.5039 41.5039-41.5039 41.5039 18.5547 41.5039 41.5039-18.5547 41.5039-41.5039 41.5039Zm4.05273-23.0957v-36.9141c0-2.49023-1.70898-4.19922-4.15039-4.19922-2.39258 0-4.05273 1.70898-4.05273 4.19922v36.9141c0 2.44141 1.66016 4.15039 4.05273 4.15039 2.44141 0 4.15039-1.66016 4.15039-4.15039Zm-22.5586-14.4043h36.9629c2.44141 0 4.15039-1.61133 4.15039-4.00391 0-2.44141-1.70898-4.15039-4.15039-4.15039h-36.9629c-2.49023 0-4.15039 1.70898-4.15039 4.15039 0 2.39258 1.66016 4.00391 4.15039 4.00391Z"/>
  </g>
  <g transform="matrix(0.2 0 0 0.2 304.924 1933)">
   <path d="m74.8535 28.3203c35.1074 0 63.623-28.4668 63.623-63.5742s-28.5156-63.623-63.623-63.623-63.5742 28.5156-63.5742 63.623 28.4668 63.5742 63.5742 63.5742Zm0-9.08203c-30.127 0-54.4922-24.3652-54.4922-54.4922s24.3652-54.4922 54.4922-54.4922 54.4922 24.3652 54.4922 54.4922-24.3652 54.4922-54.4922 54.4922Zm4.44336-30.3223v-48.4863c0-2.73438-1.85547-4.63867-4.54102-4.63867-2.58789 0-4.44336 1.9043-4.44336 4.63867v48.4863c0 2.68555 1.85547 4.58984 4.44336 4.58984 2.68555 0 4.54102-1.85547 4.54102-4.58984Zm-28.7109-19.7754h48.4863c2.68555 0 4.58984-1.80664 4.58984-4.39453 0-2.73438-1.85547-4.58984-4.58984-4.58984h-48.4863c-2.73438 0-4.58984 1.85547-4.58984 4.58984 0 2.58789 1.85547 4.39453 4.58984 4.39453Z"/>
  </g>
  <text style="stroke:none;fill:black;font-family:sans-serif;font-size:13;font-weight:bold;" transform="matrix(1 0 0 1 263 1953)">Design Variations</text>
  <text style="stroke:none;fill:black;font-family:sans-serif;font-size:13;" transform="matrix(1 0 0 1 263 1971)">Symbols are supported in up to nine weights and three scales.</text>
  <text style="stroke:none;fill:black;font-family:sans-serif;font-size:13;" transform="matrix(1 0 0 1 263 1989)">For optimal layout with text and other symbols, vertically align</text>
  <text style="stroke:none;fill:black;font-family:sans-serif;font-size:13;" transform="matrix(1 0 0 1 263 2007)">symbols with the adjacent text.</text>
  <line style="fill:none;stroke:#00AEEF;stroke-width:0.5;opacity:1.0;" x1="776" x2="776" y1="1919" y2="1933"/>
  <g transform="matrix(0.2 0 0 0.2 776 1933)">
   <path d="m16.5527 0.78125c2.58789 0 3.85742-0.976562 4.78516-3.71094l20.5566-57.5195h0.244141l20.6055 57.5195c0.927734 2.73438 2.19727 3.71094 4.73633 3.71094 2.58789 0 4.24805-1.5625 4.24805-4.00391 0-0.830078-0.146484-1.61133-0.537109-2.63672l-22.9004-60.9863c-1.12305-2.97852-3.125-4.49219-6.25-4.49219-3.02734 0-5.07812 1.46484-6.15234 4.44336l-22.9004 61.084c-0.390625 1.02539-0.537109 1.80664-0.537109 2.63672 0 2.44141 1.5625 3.95508 4.10156 3.95508Zm10.2051-20.9473h30.6641c2.00195 0 3.66211-1.66016 3.66211-3.66211 0-2.05078-1.66016-3.66211-3.66211-3.66211h-30.6641c-2.00195 0-3.66211 1.61133-3.66211 3.66211 0 2.00195 1.66016 3.66211 3.66211 3.66211Z"/>
  </g>
  <line style="fill:none;stroke:#00AEEF;stroke-width:0.5;opacity:1.0;" x1="792.836" x2="792.836" y1="1919" y2="1933"/>
  <text style="stroke:none;fill:black;font-family:sans-serif;font-size:13;font-weight:bold;" transform="matrix(1 0 0 1 776 1953)">Margins</text>
  <text style="stroke:none;fill:black;font-family:sans-serif;font-size:13;" transform="matrix(1 0 0 1 776 1971)">Leading and trailing margins on the left and right side of each symbol</text>
  <text style="stroke:none;fill:black;font-family:sans-serif;font-size:13;" transform="matrix(1 0 0 1 776 1989)">can be adjusted by modifying the x-location of the margin guidelines.</text>
  <text style="stroke:none;fill:black;font-family:sans-serif;font-size:13;" transform="matrix(1 0 0 1 776 2007)">Modifications are automatically applied proportionally to all</text>
  <text style="stroke:none;fill:black;font-family:sans-serif;font-size:13;" transform="matrix(1 0 0 1 776 2025)">scales and weights.</text>
  <g transform="matrix(0.2 0 0 0.2 1289 1933)">
   <path d="m14.209 13.1348 7.86133 7.86133c4.29688 4.39453 9.32617 4.10156 13.8672-1.02539l60.6934-68.2129-4.88281-4.88281-60.2539 67.6758c-1.80664 1.95312-3.4668 2.44141-5.81055 0.0976562l-5.17578-5.12695c-2.29492-2.29492-1.80664-3.95508 0.195312-5.81055l67.4805-62.1582-4.88281-4.83398-68.0664 62.5977c-4.98047 4.58984-5.32227 9.47266-1.02539 13.8184Zm44.873-97.4609c-2.05078 2.00195-2.24609 4.88281-1.07422 6.78711 1.12305 1.80664 3.4668 3.02734 6.5918 2.24609 5.85938-1.66016 12.5977-2.39258 18.8965 0.927734l-2.68555 7.12891c-1.61133 4.00391-0.732422 6.88477 1.70898 9.42383l10.2539 10.3027c2.34375 2.39258 4.54102 2.44141 7.08008 1.95312l4.44336-0.732422 2.58789 2.53906-0.195312 2.24609c-0.0976562 2.29492 0.537109 4.29688 2.7832 6.49414l3.36914 3.32031c2.29492 2.29492 5.51758 2.49023 7.8125 0.195312l12.9883-13.0371c2.29492-2.34375 2.14844-5.37109-0.195312-7.66602l-3.41797-3.41797c-2.19727-2.19727-4.05273-3.02734-6.34766-2.88086l-2.34375 0.244141-2.44141-2.44141 1.02539-4.6875c0.634766-2.73438-0.244141-4.98047-2.88086-7.61719l-11.2793-11.1816c-12.9395-12.8418-35.5957-11.0352-46.6797-0.146484Zm7.08008 2.05078c8.78906-6.39648 25.9766-5.66406 33.6914 1.95312l12.3047 12.207c1.02539 1.02539 1.2207 1.80664 0.927734 3.32031l-1.46484 6.64062 6.73828 6.68945 4.39453-0.244141c1.12305-0.0488281 1.51367 0.0488281 2.34375 0.878906l2.53906 2.49023-10.8398 10.8398-2.49023-2.49023c-0.830078-0.878906-0.976562-1.2207-0.927734-2.39258l0.292969-4.3457-6.68945-6.73828-6.83594 1.17188c-1.41602 0.292969-2.05078 0.195312-3.17383-0.878906l-8.93555-8.88672c-1.07422-1.02539-1.17188-1.70898-0.488281-3.36914l4.58984-11.4746c-6.10352-6.34766-17.041-7.51953-25.5859-4.58984-0.683594 0.244141-0.927734-0.390625-0.390625-0.78125Z"/>
  </g>
  <text style="stroke:none;fill:black;font-family:sans-serif;font-size:13;font-weight:bold;" transform="matrix(1 0 0 1 1289 1953)">Exporting</text>
  <text style="stroke:none;fill:black;font-family:sans-serif;font-size:13;" transform="matrix(1 0 0 1 1289 1971)">Symbols should be outlined when exporting to ensure the</text>
  <text style="stroke:none;fill:black;font-family:sans-serif;font-size:13;" transform="matrix(1 0 0 1 1289 1989)">design is preserved when submitting to Xcode.</text>
  <text id="template-version" style="stroke:none;fill:black;font-family:sans-serif;font-size:13;text-anchor:end;" transform="matrix(1 0 0 1 3036 1933)">Template v.7.0</text>
  <text style="stroke:none;fill:black;font-family:sans-serif;font-size:13;text-anchor:end;" transform="matrix(1 0 0 1 3036 1951)">Requires Xcode 26 or greater</text>
  <text id="descriptive-name" style="stroke:none;fill:black;font-family:sans-serif;font-size:13;text-anchor:end;" transform="matrix(1 0 0 1 3036 1969)">Generated from lightrail.fill</text>
  <text style="stroke:none;fill:black;font-family:sans-serif;font-size:13;text-anchor:end;" transform="matrix(1 0 0 1 3036 1987)">Typeset at 100.0 points</text>
  <text style="stroke:none;fill:black;font-family:sans-serif;font-size:13;" transform="matrix(1 0 0 1 263 726)">Small</text>
  <text style="stroke:none;fill:black;font-family:sans-serif;font-size:13;" transform="matrix(1 0 0 1 263 1156)">Medium</text>
  <text style="stroke:none;fill:black;font-family:sans-serif;font-size:13;" transform="matrix(1 0 0 1 263 1586)">Large</text>
 </g>
 <g id="Guides">
  <g id="H-reference" style="fill:#27AAE1;stroke:none;" transform="matrix(1 0 0 1 339 696)">
   <path d="M0.993654 0L3.63775 0L29.3281-67.1323L30.0303-67.1323L30.0303-70.459L28.1226-70.459ZM11.6885-24.4799L46.9815-24.4799L46.2315-26.7285L12.4385-26.7285ZM55.1196 0L57.7637 0L30.6382-70.459L29.4326-70.459L29.4326-67.1323Z"/>
  </g>
  <line id="Baseline-S" style="fill:none;stroke:#27AAE1;opacity:1;stroke-width:0.5;" x1="263" x2="3036" y1="696" y2="696"/>
  <line id="Capline-S" style="fill:none;stroke:#27AAE1;opacity:1;stroke-width:0.5;" x1="263" x2="3036" y1="625.541" y2="625.541"/>
  <g id="H-reference" style="fill:#27AAE1;stroke:none;" transform="matrix(1 0 0 1 339 1126)">
   <path d="M0.993654 0L3.63775 0L29.3281-67.1323L30.0303-67.1323L30.0303-70.459L28.1226-70.459ZM11.6885-24.4799L46.9815-24.4799L46.2315-26.7285L12.4385-26.7285ZM55.1196 0L57.7637 0L30.6382-70.459L29.4326-70.459L29.4326-67.1323Z"/>
  </g>
  <line id="Baseline-M" style="fill:none;stroke:#27AAE1;opacity:1;stroke-width:0.5;" x1="263" x2="3036" y1="1126" y2="1126"/>
  <line id="Capline-M" style="fill:none;stroke:#27AAE1;opacity:1;stroke-width:0.5;" x1="263" x2="3036" y1="1055.54" y2="1055.54"/>
  <g id="H-reference" style="fill:#27AAE1;stroke:none;" transform="matrix(1 0 0 1 339 1556)">
   <path d="M0.993654 0L3.63775 0L29.3281-67.1323L30.0303-67.1323L30.0303-70.459L28.1226-70.459ZM11.6885-24.4799L46.9815-24.4799L46.2315-26.7285L12.4385-26.7285ZM55.1196 0L57.7637 0L30.6382-70.459L29.4326-70.459L29.4326-67.1323Z"/>
  </g>
  <line id="Baseline-L" style="fill:none;stroke:#27AAE1;opacity:1;stroke-width:0.5;" x1="263" x2="3036" y1="1556" y2="1556"/>
  <line id="Capline-L" style="fill:none;stroke:#27AAE1;opacity:1;stroke-width:0.5;" x1="263" x2="3036" y1="1485.54" y2="1485.54"/>
  <line id="right-margin-Black-S" style="fill:none;stroke:#00AEEF;stroke-width:0.5;opacity:1.0;" x1="2982.47" x2="2982.47" y1="600.785" y2="720.121"/>
  <line id="left-margin-Black-S" style="fill:none;stroke:#00AEEF;stroke-width:0.5;opacity:1.0;" x1="2884.33" x2="2884.33" y1="600.785" y2="720.121"/>
  <line id="right-margin-Regular-S" style="fill:none;stroke:#00AEEF;stroke-width:0.5;opacity:1.0;" x1="1491.93" x2="1491.93" y1="600.785" y2="720.121"/>
  <line id="left-margin-Regular-S" style="fill:none;stroke:#00AEEF;stroke-width:0.5;opacity:1.0;" x1="1407.75" x2="1407.75" y1="600.785" y2="720.121"/>
  <line id="right-margin-Ultralight-S" style="fill:none;stroke:#00AEEF;stroke-width:0.5;opacity:1.0;" x1="600.552" x2="600.552" y1="600.785" y2="720.121"/>
  <line id="left-margin-Ultralight-S" style="fill:none;stroke:#00AEEF;stroke-width:0.5;opacity:1.0;" x1="518.87" x2="518.87" y1="600.785" y2="720.121"/>
 </g>
 <g id="Symbols">
  <g id="Black-S" transform="matrix(1 0 0 1 2884.33 696)">
   <path class="monochrome-0 multicolor-0:tintColor hierarchical-0:primary SFSymbolsPreviewWireframe" d="M27.1973 8.83789L70.9473 8.83789C81.2988 8.83789 88.3789 1.41602 88.3789-9.32617L88.3789-29.3945C88.3789-39.3555 87.2559-50.1953 85.4004-57.959C83.0078-68.3105 75.7812-75.1953 66.0645-76.2207C63.9648-76.416 56.7871-76.9531 49.0723-76.9531C40.332-76.9531 34.1309-76.416 32.0801-76.2207C22.3633-75.1953 15.1367-68.3105 12.7441-57.959C10.8887-50.0488 9.76562-39.6973 9.76562-29.834L9.76562-9.32617C9.76562 1.41602 16.8457 8.83789 27.1973 8.83789ZM49.0723-19.7266C39.7949-19.7754 33.3984-20.0684 29.7363-20.5078C26.9531-20.8496 25.2441-22.8027 25.2441-25.5371L25.2441-32.5684C25.2441-39.0625 26.0254-45.6543 26.3184-47.5098C26.6113-49.8535 28.3691-51.5625 30.7129-51.8066C34.375-52.2949 40.3809-52.5879 49.0723-52.6367C57.666-52.5879 63.7207-52.2949 67.4805-51.8066C69.7754-51.5625 71.5332-49.8535 71.8262-47.5098C72.168-45.6543 72.9004-39.0625 72.9004-32.5684L72.9004-25.5371C72.9004-22.8027 71.1914-20.8496 68.4082-20.5078C64.6973-20.0684 58.252-19.7754 49.0723-19.7266ZM31.0547-2.39258C27.832-2.39258 25.4883-4.83398 25.4883-8.05664C25.4883-11.2793 27.8809-13.6719 31.0547-13.6719C34.2773-13.6719 36.7188-11.2793 36.7188-8.05664C36.7188-4.83398 34.2773-2.39258 31.0547-2.39258ZM67.041-2.39258C63.8184-2.39258 61.4258-4.83398 61.4258-8.05664C61.4258-11.2793 63.8672-13.6719 67.041-13.6719C70.2637-13.6719 72.6562-11.2793 72.6562-8.05664C72.6562-4.83398 70.2637-2.39258 67.041-2.39258ZM39.7949-58.4473C37.3535-58.4473 35.5469-60.2539 35.5469-62.6953C35.5469-65.1855 37.3535-67.041 39.7949-67.041L58.3008-67.041C60.7422-67.041 62.5977-65.1855 62.5977-62.6953C62.5977-60.3027 60.7422-58.4473 58.3008-58.4473ZM13.1836-81.4941C13.1836-78.7109 14.9902-76.6602 17.9688-76.6602C19.7266-76.6602 21.2891-77.6367 22.6074-79.0039C23.877-80.3223 25-80.8594 27.1973-80.8594L70.9473-80.8594C73.1445-80.8594 74.2676-80.3223 75.5371-79.0039C76.8555-77.6367 78.418-76.6602 80.1758-76.6602C83.1543-76.6602 84.9609-78.7109 84.9609-81.4941C84.9609-83.3984 84.082-85.3027 82.6172-86.7676C79.1504-90.2344 74.8535-91.3574 69.9219-91.3574L28.2227-91.3574C23.291-91.3574 18.9941-90.2344 15.5273-86.7676C14.0625-85.3027 13.1836-83.3984 13.1836-81.4941ZM47.998-72.7051L37.6465-85.498L24.9023-85.498L35.3027-72.7051ZM50.1465-72.7051L62.8418-72.7051L73.2422-85.498L60.498-85.498ZM26.5625 0.976562L17.7246 15.1367C16.2598 17.4805 17.1875 21.0938 20.7031 21.0938L24.2676 21.0938C26.1719 21.0938 27.3438 20.4102 28.3691 18.7988L39.4531 0.976562ZM58.7402 0.976562L69.8242 18.7988C70.8496 20.4102 72.0215 21.0938 73.9258 21.0938L76.5137 21.0938C80.0293 21.0938 81.9336 17.4805 80.0293 14.4531L71.6309 0.976562Z"/>
  </g>
  <g id="Regular-S" transform="matrix(1 0 0 1 1407.75 696)">
   <path class="monochrome-0 multicolor-0:tintColor hierarchical-0:primary SFSymbolsPreviewWireframe" d="M21.1426 2.73438L63.0371 2.73438C68.9453 2.73438 72.7539-1.36719 72.7539-7.61719L72.7539-34.2285C72.7539-43.1641 71.7285-52.1484 70.2637-58.252C68.75-64.9414 64.3555-69.9219 57.4219-70.6543C55.6152-70.8008 49.5117-71.3379 42.0898-71.3379C34.6191-71.3379 28.5645-70.8008 26.7578-70.6543C19.8242-69.9219 15.4297-64.9414 13.916-58.252C12.4512-52.1484 11.4258-43.2129 11.4258-34.2285L11.4258-7.61719C11.4258-1.36719 15.2344 2.73438 21.1426 2.73438ZM42.0898-23.0957C33.3984-23.1445 25.2441-23.5352 21.4355-24.0723C19.3359-24.3652 18.6523-25.6836 18.6523-27.6367L18.6523-34.375C18.6523-41.9922 19.4336-47.9004 19.9707-50C20.3125-51.4648 21.1914-52.5879 22.7539-52.7832C26.8066-53.2715 31.8359-53.5645 42.0898-53.6133C52.3438-53.6621 57.373-53.2715 61.4258-52.7832C62.9883-52.5879 63.8672-51.4648 64.209-50C64.7461-47.9004 65.5273-41.9922 65.5273-34.375L65.5273-27.6367C65.5273-25.6348 64.8438-24.3164 62.7441-24.0723C56.5918-23.3887 48.4375-23.0469 42.0898-23.0957ZM25.2441-6.20117C22.2168-6.20117 20.0684-8.34961 20.0684-11.4258C20.0684-14.4043 22.2168-16.6016 25.2441-16.6016C28.2715-16.6016 30.4688-14.4043 30.4688-11.4258C30.4688-8.34961 28.1738-6.20117 25.2441-6.20117ZM58.8379-6.15234C55.8594-6.15234 53.6133-8.39844 53.6133-11.4258C53.6133-14.3555 55.8594-16.6504 58.8379-16.6504C61.8164-16.6504 64.0625-14.3555 64.0625-11.4258C64.0625-8.39844 61.7676-6.15234 58.8379-6.15234ZM32.8613-59.9609C31.4453-59.9609 30.4688-60.9375 30.4688-62.3535C30.4688-63.8184 31.4453-64.7461 32.8613-64.7461L51.3184-64.7461C52.7344-64.7461 53.7109-63.8184 53.7109-62.3535C53.7109-60.9375 52.7344-59.9609 51.3184-59.9609ZM9.91211-78.6133C9.91211-76.9043 11.1816-75.8301 12.7441-75.8301C13.5742-75.8301 14.4531-76.2695 15.1367-77.1484C17.2363-79.7852 19.5801-80.8105 23.9258-80.8105L60.2539-80.8105C64.5996-80.8105 66.9434-79.7852 69.043-77.1484C69.7266-76.2695 70.6055-75.8301 71.4355-75.8301C72.998-75.8301 74.2676-76.9043 74.2676-78.6133C74.2676-79.834 73.3887-81.1523 72.2656-82.1777C68.8477-85.4492 64.9414-86.5234 60.2539-86.5234L23.9258-86.5234C19.2383-86.5234 15.332-85.4492 11.9141-82.1777C10.791-81.1523 9.91211-79.834 9.91211-78.6133ZM39.7949-69.3359L30.1758-81.1523L22.4121-81.1523L32.0312-69.3359ZM44.3848-69.3359L52.1484-69.3359L61.7676-81.1523L54.0039-81.1523ZM22.0703 2.29492L15.7227 12.4512C14.6484 14.209 15.6738 16.1133 17.627 16.1133L19.9219 16.1133C21.0938 16.1133 21.7285 15.7227 22.3633 14.7461L30.0781 2.29492ZM54.2969 2.29492L61.9629 14.7461C62.5977 15.7227 63.2812 16.1133 64.4043 16.1133L66.6992 16.1133C68.6523 16.1133 69.5312 14.1602 68.5059 12.4512L62.207 2.29492Z"/>
  </g>
  <g id="Ultralight-S" transform="matrix(1 0 0 1 518.87 696)">
   <path class="monochrome-0 multicolor-0:tintColor hierarchical-0:primary SFSymbolsPreviewWireframe" d="M21.3242 0.463885L60.3125 0.463885C67.3106 0.463885 71.8457-4.27341 71.8457-11.6587L71.8457-31.5493C71.8457-40.2578 70.8657-49.4693 69.2647-56.0723C67.5693-63.6245 62.5391-68.4688 55.5601-69.2012C53.7534-69.3931 47.6045-69.8848 40.8184-69.8848C33.2568-69.8848 27.8833-69.3931 26.0767-69.2012C19.0977-68.4688 14.0674-63.6245 12.3721-56.0723C10.771-49.3784 9.83644-40.5337 9.83644-31.958L9.83644-11.6587C9.83644-4.27341 14.3262 0.463885 21.3242 0.463885ZM40.8184-21.688C33.1714-21.7368 26.9243-21.9912 22.0259-22.3921C19.3813-22.6397 17.7896-24.3667 17.7896-27.0464L17.7896-34.375C17.7896-40.4483 18.2075-43.7681 18.9263-47.9111C19.3135-50.148 20.9644-51.6797 23.2534-51.9204C27.3516-52.3179 33.4707-52.6563 40.8184-52.6597C48.2115-52.6631 54.2852-52.3179 58.3833-51.9204C60.7178-51.6797 62.3233-50.148 62.7105-47.9111C63.4292-43.7681 63.8472-40.4483 63.8472-34.375L63.8472-27.0464C63.8472-24.3633 62.3008-22.6362 59.6109-22.3921C54.6392-21.981 48.3921-21.73 40.8184-21.688ZM24.3814-8.33543C21.8989-8.33543 20.0229-10.2114 20.0229-12.7427C20.0229-15.2217 21.8989-17.1011 24.3814-17.1011C26.9092-17.1011 28.834-15.2217 28.834-12.7427C28.834-10.2114 26.9024-8.33543 24.3814-8.33543ZM57.1577-8.33201C54.6333-8.33201 52.7505-10.2148 52.7505-12.7427C52.7505-15.2183 54.6333-17.1045 57.1577-17.1045C59.6821-17.1045 61.6104-15.2183 61.6104-12.7427C61.6104-10.2148 59.6787-8.33201 57.1577-8.33201ZM31.0449-58.2354C30.1738-58.2354 29.5151-58.8941 29.5151-59.7652C29.5151-60.5943 30.1738-61.2495 31.0449-61.2495L50.5918-61.2495C51.4629-61.2495 52.1216-60.5943 52.1216-59.7652C52.1216-58.8941 51.4629-58.2354 50.5918-58.2354ZM12.001-75.1621C12.001-74.3159 12.5893-73.6958 13.4253-73.6958C13.9829-73.6958 14.4531-73.9082 14.8643-74.4693C17.1001-77.333 19.4438-78.313 23.9258-78.313L57.7564-78.313C62.2383-78.313 64.582-77.333 66.8179-74.4693C67.229-73.9082 67.6538-73.6958 68.2115-73.6958C69.0474-73.6958 69.6812-74.3159 69.6812-75.1621C69.6812-75.8833 69.2564-76.7022 68.2696-77.6368C65.4873-80.3179 62.3076-81.3921 57.7564-81.3921L23.9258-81.3921C19.3291-81.3921 16.1494-80.3179 13.3672-77.6368C12.4258-76.7022 12.001-75.8833 12.001-75.1621ZM35.8897-68.3369L26.6792-79.2451L22.6846-79.2451L31.895-68.3369ZM45.7471-68.3369L49.7871-68.3369L58.9522-79.2451L54.9575-79.2451ZM23.2964-0.338846L17.3574 9.18167C16.7827 10.0767 17.1269 10.982 18.1719 10.982L19.6494 10.982C20.3218 10.982 20.6387 10.773 21.001 10.2051L27.626-0.338846ZM53.5249-0.338846L60.1465 10.2051C60.5088 10.773 60.8291 10.982 61.4981 10.982L62.9756 10.982C64.0205 10.982 64.3545 10.0733 63.8287 9.18167L57.8477-0.338846Z"/>
  </g>
 </g>
</svg>
