<?xml version="1.0" encoding="UTF-8"?>
<!--Generator: Apple Native CoreSVG 360-->
<!DOCTYPE svg
PUBLIC "-//W3C//DTD SVG 1.1//EN"
       "http://www.w3.org/Graphics/SVG/1.1/DTD/svg11.dtd">
<svg version="1.1" xmlns="http://www.w3.org/2000/svg" xmlns:xlink="http://www.w3.org/1999/xlink" viewBox="0 0 3300 2200">
 <!--glyph: "1019C6", point size: 100.0, font version: "21.1d1e1", template writer version: "138.0.0"-->
 <style>.defaults {-sfsymbols-draw-reverses-motion-groups:true}

.monochrome-0 {-sfsymbols-motion-group:1;-sfsymbols-layer-tags:list.clipboard.fill}
.monochrome-1 {opacity:0.0;-sfsymbols-clear-behind:true;-sfsymbols-motion-group:1;-sfsymbols-layer-tags:list.clipboard.fill}
.monochrome-2 {-sfsymbols-motion-group:1;-sfsymbols-layer-tags:list.clipboard.fill}
.monochrome-3 {opacity:0.0;-sfsymbols-clear-behind:true;-sfsymbols-motion-group:0;-sfsymbols-layer-tags:list.clipboard.fill}

.multicolor-0:tintColor {-sfsymbols-motion-group:1;-sfsymbols-layer-tags:list.clipboard.fill}
.multicolor-1:tintColor {opacity:0.0;-sfsymbols-clear-behind:true;-sfsymbols-motion-group:1;-sfsymbols-layer-tags:list.clipboard.fill}
.multicolor-2:tintColor {-sfsymbols-motion-group:1;-sfsymbols-layer-tags:list.clipboard.fill}
.multicolor-3:tintColor {opacity:0.0;-sfsymbols-clear-behind:true;-sfsymbols-motion-group:0;-sfsymbols-layer-tags:list.clipboard.fill}

.hierarchical-0:tertiary {-sfsymbols-motion-group:1;-sfsymbols-layer-tags:list.clipboard.fill}
.hierarchical-1:primary {opacity:0.0;-sfsymbols-clear-behind:true;-sfsymbols-motion-group:1;-sfsymbols-layer-tags:list.clipboard.fill}
.hierarchical-2:tertiary {-sfsymbols-motion-group:1;-sfsymbols-layer-tags:list.clipboard.fill}
.hierarchical-3:primary {-sfsymbols-motion-group:0;-sfsymbols-layer-tags:list.clipboard.fill}

.SFSymbolsPreviewWireframe {fill:none;opacity:1.0;stroke:black;stroke-width:0.5}
</style>
 <g id="Notes">
  <rect height="2200" id="artboard" style="fill:white;opacity:1" width="3300" x="0" y="0"/>
  <line style="fill:none;stroke:black;opacity:1;stroke-width:0.5;" x1="263" x2="3036" y1="292" y2="292"/>
  <text style="stroke:none;fill:black;font-family:sans-serif;font-size:13;font-weight:bold;" transform="matrix(1 0 0 1 263 322)">Weight/Scale Variations</text>
  <text style="stroke:none;fill:black;font-family:sans-serif;font-size:13;text-anchor:middle;" transform="matrix(1 0 0 1 559.711 322)">Ultralight</text>
  <text style="stroke:none;fill:black;font-family:sans-serif;font-size:13;text-anchor:middle;" transform="matrix(1 0 0 1 856.422 322)">Thin</text>
  <text style="stroke:none;fill:black;font-family:sans-serif;font-size:13;text-anchor:middle;" transform="matrix(1 0 0 1 1153.13 322)">Light</text>
  <text style="stroke:none;fill:black;font-family:sans-serif;font-size:13;text-anchor:middle;" transform="matrix(1 0 0 1 1449.84 322)">Regular</text>
  <text style="stroke:none;fill:black;font-family:sans-serif;font-size:13;text-anchor:middle;" transform="matrix(1 0 0 1 1746.56 322)">Medium</text>
  <text style="stroke:none;fill:black;font-family:sans-serif;font-size:13;text-anchor:middle;" transform="matrix(1 0 0 1 2043.27 322)">Semibold</text>
  <text style="stroke:none;fill:black;font-family:sans-serif;font-size:13;text-anchor:middle;" transform="matrix(1 0 0 1 2339.98 322)">Bold</text>
  <text style="stroke:none;fill:black;font-family:sans-serif;font-size:13;text-anchor:middle;" transform="matrix(1 0 0 1 2636.69 322)">Heavy</text>
  <text style="stroke:none;fill:black;font-family:sans-serif;font-size:13;text-anchor:middle;" transform="matrix(1 0 0 1 2933.4 322)">Black</text>
  <line style="fill:none;stroke:black;opacity:1;stroke-width:0.5;" x1="263" x2="3036" y1="1903" y2="1903"/>
  <g transform="matrix(0.2 0 0 0.2 263 1933)">
   <path d="m46.2402 4.15039c21.7773 0 39.4531-17.627 39.4531-39.4043s-17.6758-39.4043-39.4531-39.4043c-21.7285 0-39.4043 17.627-39.4043 39.4043s17.6758 39.4043 39.4043 39.4043Zm0-7.42188c-17.6758 0-31.9336-14.3066-31.9336-31.9824s14.2578-31.9824 31.9336-31.9824 31.9824 14.3066 31.9824 31.9824-14.3066 31.9824-31.9824 31.9824Zm3.61328-17.7734v-28.4668c0-2.24609-1.46484-3.75977-3.71094-3.75977-2.14844 0-3.61328 1.51367-3.61328 3.75977v28.4668c0 2.19727 1.46484 3.71094 3.61328 3.71094 2.24609 0 3.71094-1.51367 3.71094-3.71094Zm-17.8223-10.5957h28.418c2.19727 0 3.71094-1.46484 3.71094-3.61328 0-2.19727-1.51367-3.71094-3.71094-3.71094h-28.418c-2.24609 0-3.75977 1.51367-3.75977 3.71094 0 2.14844 1.51367 3.61328 3.75977 3.61328Z"/>
  </g>
  <g transform="matrix(0.2 0 0 0.2 281.506 1933)">
   <path d="m58.5449 14.5508c27.4902 0 49.8047-22.3145 49.8047-49.8047s-22.3145-49.8047-49.8047-49.8047-49.8047 22.3145-49.8047 49.8047 22.3145 49.8047 49.8047 49.8047Zm0-8.30078c-22.9492 0-41.5039-18.5547-41.5039-41.5039s18.5547-41.5039 41.5039-41.5039 41.5039 18.5547 41.5039 41.5039-18.5547 41.5039-41.5039 41.5039Zm4.05273-23.0957v-36.9141c0-2.49023-1.70898-4.19922-4.15039-4.19922-2.39258 0-4.05273 1.70898-4.05273 4.19922v36.9141c0 2.44141 1.66016 4.15039 4.05273 4.15039 2.44141 0 4.15039-1.66016 4.15039-4.15039Zm-22.5586-14.4043h36.9629c2.44141 0 4.15039-1.61133 4.15039-4.00391 0-2.44141-1.70898-4.15039-4.15039-4.15039h-36.9629c-2.49023 0-4.15039 1.70898-4.15039 4.15039 0 2.39258 1.66016 4.00391 4.15039 4.00391Z"/>
  </g>
  <g transform="matrix(0.2 0 0 0.2 304.924 1933)">
   <path d="m74.8535 28.3203c35.1074 0 63.623-28.4668 63.623-63.5742s-28.5156-63.623-63.623-63.623-63.5742 28.5156-63.5742 63.623 28.4668 63.5742 63.5742 63.5742Zm0-9.08203c-30.127 0-54.4922-24.3652-54.4922-54.4922s24.3652-54.4922 54.4922-54.4922 54.4922 24.3652 54.4922 54.4922-24.3652 54.4922-54.4922 54.4922Zm4.44336-30.3223v-48.4863c0-2.73438-1.85547-4.63867-4.54102-4.63867-2.58789 0-4.44336 1.9043-4.44336 4.63867v48.4863c0 2.68555 1.85547 4.58984 4.44336 4.58984 2.68555 0 4.54102-1.85547 4.54102-4.58984Zm-28.7109-19.7754h48.4863c2.68555 0 4.58984-1.80664 4.58984-4.39453 0-2.73438-1.85547-4.58984-4.58984-4.58984h-48.4863c-2.73438 0-4.58984 1.85547-4.58984 4.58984 0 2.58789 1.85547 4.39453 4.58984 4.39453Z"/>
  </g>
  <text style="stroke:none;fill:black;font-family:sans-serif;font-size:13;font-weight:bold;" transform="matrix(1 0 0 1 263 1953)">Design Variations</text>
  <text style="stroke:none;fill:black;font-family:sans-serif;font-size:13;" transform="matrix(1 0 0 1 263 1971)">Symbols are supported in up to nine weights and three scales.</text>
  <text style="stroke:none;fill:black;font-family:sans-serif;font-size:13;" transform="matrix(1 0 0 1 263 1989)">For optimal layout with text and other symbols, vertically align</text>
  <text style="stroke:none;fill:black;font-family:sans-serif;font-size:13;" transform="matrix(1 0 0 1 263 2007)">symbols with the adjacent text.</text>
  <line style="fill:none;stroke:#00AEEF;stroke-width:0.5;opacity:1.0;" x1="776" x2="776" y1="1919" y2="1933"/>
  <g transform="matrix(0.2 0 0 0.2 776 1933)">
   <path d="m16.5527 0.78125c2.58789 0 3.85742-0.976562 4.78516-3.71094l20.5566-57.5195h0.244141l20.6055 57.5195c0.927734 2.73438 2.19727 3.71094 4.73633 3.71094 2.58789 0 4.24805-1.5625 4.24805-4.00391 0-0.830078-0.146484-1.61133-0.537109-2.63672l-22.9004-60.9863c-1.12305-2.97852-3.125-4.49219-6.25-4.49219-3.02734 0-5.07812 1.46484-6.15234 4.44336l-22.9004 61.084c-0.390625 1.02539-0.537109 1.80664-0.537109 2.63672 0 2.44141 1.5625 3.95508 4.10156 3.95508Zm10.2051-20.9473h30.6641c2.00195 0 3.66211-1.66016 3.66211-3.66211 0-2.05078-1.66016-3.66211-3.66211-3.66211h-30.6641c-2.00195 0-3.66211 1.61133-3.66211 3.66211 0 2.00195 1.66016 3.66211 3.66211 3.66211Z"/>
  </g>
  <line style="fill:none;stroke:#00AEEF;stroke-width:0.5;opacity:1.0;" x1="792.836" x2="792.836" y1="1919" y2="1933"/>
  <text style="stroke:none;fill:black;font-family:sans-serif;font-size:13;font-weight:bold;" transform="matrix(1 0 0 1 776 1953)">Margins</text>
  <text style="stroke:none;fill:black;font-family:sans-serif;font-size:13;" transform="matrix(1 0 0 1 776 1971)">Leading and trailing margins on the left and right side of each symbol</text>
  <text style="stroke:none;fill:black;font-family:sans-serif;font-size:13;" transform="matrix(1 0 0 1 776 1989)">can be adjusted by modifying the x-location of the margin guidelines.</text>
  <text style="stroke:none;fill:black;font-family:sans-serif;font-size:13;" transform="matrix(1 0 0 1 776 2007)">Modifications are automatically applied proportionally to all</text>
  <text style="stroke:none;fill:black;font-family:sans-serif;font-size:13;" transform="matrix(1 0 0 1 776 2025)">scales and weights.</text>
  <g transform="matrix(0.2 0 0 0.2 1289 1933)">
   <path d="m14.209 13.1348 7.86133 7.86133c4.29688 4.39453 9.32617 4.10156 13.8672-1.02539l60.6934-68.2129-4.88281-4.88281-60.2539 67.6758c-1.80664 1.95312-3.4668 2.44141-5.81055 0.0976562l-5.17578-5.12695c-2.29492-2.29492-1.80664-3.95508 0.195312-5.81055l67.4805-62.1582-4.88281-4.83398-68.0664 62.5977c-4.98047 4.58984-5.32227 9.47266-1.02539 13.8184Zm44.873-97.4609c-2.05078 2.00195-2.24609 4.88281-1.07422 6.78711 1.12305 1.80664 3.4668 3.02734 6.5918 2.24609 5.85938-1.66016 12.5977-2.39258 18.8965 0.927734l-2.68555 7.12891c-1.61133 4.00391-0.732422 6.88477 1.70898 9.42383l10.2539 10.3027c2.34375 2.39258 4.54102 2.44141 7.08008 1.95312l4.44336-0.732422 2.58789 2.53906-0.195312 2.24609c-0.0976562 2.29492 0.537109 4.29688 2.7832 6.49414l3.36914 3.32031c2.29492 2.29492 5.51758 2.49023 7.8125 0.195312l12.9883-13.0371c2.29492-2.34375 2.14844-5.37109-0.195312-7.66602l-3.41797-3.41797c-2.19727-2.19727-4.05273-3.02734-6.34766-2.88086l-2.34375 0.244141-2.44141-2.44141 1.02539-4.6875c0.634766-2.73438-0.244141-4.98047-2.88086-7.61719l-11.2793-11.1816c-12.9395-12.8418-35.5957-11.0352-46.6797-0.146484Zm7.08008 2.05078c8.78906-6.39648 25.9766-5.66406 33.6914 1.95312l12.3047 12.207c1.02539 1.02539 1.2207 1.80664 0.927734 3.32031l-1.46484 6.64062 6.73828 6.68945 4.39453-0.244141c1.12305-0.0488281 1.51367 0.0488281 2.34375 0.878906l2.53906 2.49023-10.8398 10.8398-2.49023-2.49023c-0.830078-0.878906-0.976562-1.2207-0.927734-2.39258l0.292969-4.3457-6.68945-6.73828-6.83594 1.17188c-1.41602 0.292969-2.05078 0.195312-3.17383-0.878906l-8.93555-8.88672c-1.07422-1.02539-1.17188-1.70898-0.488281-3.36914l4.58984-11.4746c-6.10352-6.34766-17.041-7.51953-25.5859-4.58984-0.683594 0.244141-0.927734-0.390625-0.390625-0.78125Z"/>
  </g>
  <text style="stroke:none;fill:black;font-family:sans-serif;font-size:13;font-weight:bold;" transform="matrix(1 0 0 1 1289 1953)">Exporting</text>
  <text style="stroke:none;fill:black;font-family:sans-serif;font-size:13;" transform="matrix(1 0 0 1 1289 1971)">Symbols should be outlined when exporting to ensure the</text>
  <text style="stroke:none;fill:black;font-family:sans-serif;font-size:13;" transform="matrix(1 0 0 1 1289 1989)">design is preserved when submitting to Xcode.</text>
  <text id="template-version" style="stroke:none;fill:black;font-family:sans-serif;font-size:13;text-anchor:end;" transform="matrix(1 0 0 1 3036 1933)">Template v.7.0</text>
  <text style="stroke:none;fill:black;font-family:sans-serif;font-size:13;text-anchor:end;" transform="matrix(1 0 0 1 3036 1951)">Requires Xcode 26 or greater</text>
  <text id="descriptive-name" style="stroke:none;fill:black;font-family:sans-serif;font-size:13;text-anchor:end;" transform="matrix(1 0 0 1 3036 1969)">Generated from list.clipboard.fill</text>
  <text style="stroke:none;fill:black;font-family:sans-serif;font-size:13;text-anchor:end;" transform="matrix(1 0 0 1 3036 1987)">Typeset at 100.0 points</text>
  <text style="stroke:none;fill:black;font-family:sans-serif;font-size:13;" transform="matrix(1 0 0 1 263 726)">Small</text>
  <text style="stroke:none;fill:black;font-family:sans-serif;font-size:13;" transform="matrix(1 0 0 1 263 1156)">Medium</text>
  <text style="stroke:none;fill:black;font-family:sans-serif;font-size:13;" transform="matrix(1 0 0 1 263 1586)">Large</text>
 </g>
 <g id="Guides">
  <g id="H-reference" style="fill:#27AAE1;stroke:none;" transform="matrix(1 0 0 1 339 696)">
   <path d="M0.993654 0L3.63775 0L29.3281-67.1323L30.0303-67.1323L30.0303-70.459L28.1226-70.459ZM11.6885-24.4799L46.9815-24.4799L46.2315-26.7285L12.4385-26.7285ZM55.1196 0L57.7637 0L30.6382-70.459L29.4326-70.459L29.4326-67.1323Z"/>
  </g>
  <line id="Baseline-S" style="fill:none;stroke:#27AAE1;opacity:1;stroke-width:0.5;" x1="263" x2="3036" y1="696" y2="696"/>
  <line id="Capline-S" style="fill:none;stroke:#27AAE1;opacity:1;stroke-width:0.5;" x1="263" x2="3036" y1="625.541" y2="625.541"/>
  <g id="H-reference" style="fill:#27AAE1;stroke:none;" transform="matrix(1 0 0 1 339 1126)">
   <path d="M0.993654 0L3.63775 0L29.3281-67.1323L30.0303-67.1323L30.0303-70.459L28.1226-70.459ZM11.6885-24.4799L46.9815-24.4799L46.2315-26.7285L12.4385-26.7285ZM55.1196 0L57.7637 0L30.6382-70.459L29.4326-70.459L29.4326-67.1323Z"/>
  </g>
  <line id="Baseline-M" style="fill:none;stroke:#27AAE1;opacity:1;stroke-width:0.5;" x1="263" x2="3036" y1="1126" y2="1126"/>
  <line id="Capline-M" style="fill:none;stroke:#27AAE1;opacity:1;stroke-width:0.5;" x1="263" x2="3036" y1="1055.54" y2="1055.54"/>
  <g id="H-reference" style="fill:#27AAE1;stroke:none;" transform="matrix(1 0 0 1 339 1556)">
   <path d="M0.993654 0L3.63775 0L29.3281-67.1323L30.0303-67.1323L30.0303-70.459L28.1226-70.459ZM11.6885-24.4799L46.9815-24.4799L46.2315-26.7285L12.4385-26.7285ZM55.1196 0L57.7637 0L30.6382-70.459L29.4326-70.459L29.4326-67.1323Z"/>
  </g>
  <line id="Baseline-L" style="fill:none;stroke:#27AAE1;opacity:1;stroke-width:0.5;" x1="263" x2="3036" y1="1556" y2="1556"/>
  <line id="Capline-L" style="fill:none;stroke:#27AAE1;opacity:1;stroke-width:0.5;" x1="263" x2="3036" y1="1485.54" y2="1485.54"/>
  <line id="right-margin-Black-S" style="fill:none;stroke:#00AEEF;stroke-width:0.5;opacity:1.0;" x1="2978.71" x2="2978.71" y1="600.785" y2="720.121"/>
  <line id="left-margin-Black-S" style="fill:none;stroke:#00AEEF;stroke-width:0.5;opacity:1.0;" x1="2888.09" x2="2888.09" y1="600.785" y2="720.121"/>
  <line id="right-margin-Regular-S" style="fill:none;stroke:#00AEEF;stroke-width:0.5;opacity:1.0;" x1="1492.13" x2="1492.13" y1="600.785" y2="720.121"/>
  <line id="left-margin-Regular-S" style="fill:none;stroke:#00AEEF;stroke-width:0.5;opacity:1.0;" x1="1407.56" x2="1407.56" y1="600.785" y2="720.121"/>
  <line id="right-margin-Ultralight-S" style="fill:none;stroke:#00AEEF;stroke-width:0.5;opacity:1.0;" x1="600.134" x2="600.134" y1="600.785" y2="720.121"/>
  <line id="left-margin-Ultralight-S" style="fill:none;stroke:#00AEEF;stroke-width:0.5;opacity:1.0;" x1="519.288" x2="519.288" y1="600.785" y2="720.121"/>
 </g>
 <g id="Symbols">
  <g id="Black-S" transform="matrix(1 0 0 1 2888.09 696)">
   <path class="monochrome-0 multicolor-0:tintColor hierarchical-0:tertiary SFSymbolsPreviewWireframe" d="M80.8594-4.54102L80.8594-61.9141C80.8594-71.2402 74.707-77.4414 65.5273-77.4414L25.0977-77.4414C15.918-77.4414 9.76562-71.2402 9.76562-61.9141L9.76562-4.54102C9.76562 4.78516 15.918 10.9863 25.0977 10.9863L65.5273 10.9863C74.707 10.9863 80.8594 4.78516 80.8594-4.54102Z"/>
   <path class="monochrome-1 multicolor-1:tintColor hierarchical-1:primary SFSymbolsPreviewWireframe" d="M33.6914-59.6191L56.9336-59.6191C62.1582-59.6191 65.8691-63.4277 65.8691-68.8477L65.8691-72.8516C65.8691-78.3203 62.1582-82.0801 56.8359-82.0801C55.2246-82.0801 53.418-82.0801 51.5625-82.0801L59.6191-75.6836C60.2051-84.082 53.6621-91.1133 45.3125-91.1133C36.9629-91.1133 30.4199-84.082 31.0059-75.6836L39.0625-82.0801C37.207-82.0801 35.4004-82.0801 33.7891-82.0801C28.4668-82.0801 24.7559-78.3203 24.7559-72.8516L24.7559-68.8477C24.7559-63.4277 28.4668-59.6191 33.6914-59.6191Z"/>
   <path class="monochrome-2 multicolor-2:tintColor hierarchical-2:tertiary SFSymbolsPreviewWireframe" d="M33.6914-64.2578L56.9336-64.2578C59.6191-64.2578 61.2305-65.9668 61.2305-68.8477L61.2305-72.8516C61.2305-75.7324 59.6191-77.4414 56.9336-77.4414L55.0293-77.4414C54.6387-82.4707 50.4883-86.4746 45.3125-86.4746C40.1367-86.4746 35.9863-82.4707 35.5957-77.4414L33.6914-77.4414C31.0059-77.4414 29.3945-75.7324 29.3945-72.8516L29.3945-68.8477C29.3945-65.9668 31.0059-64.2578 33.6914-64.2578ZM45.3125-73.4375C43.3105-73.4375 41.6992-75.0977 41.6992-77.0508C41.6992-79.0039 43.3105-80.6152 45.3125-80.6152C47.3145-80.6152 48.9258-79.0039 48.9258-77.0508C48.9258-75.0977 47.3145-73.4375 45.3125-73.4375Z"/>
   <path class="monochrome-3 multicolor-3:tintColor hierarchical-3:primary SFSymbolsPreviewWireframe" d="M31.1523-37.3535C28.6133-37.3535 26.5625-39.4043 26.5625-41.9434C26.5625-44.4824 28.6133-46.5332 31.1523-46.5332L59.5215-46.5332C62.0605-46.5332 64.1113-44.4824 64.1113-41.9434C64.1113-39.4043 62.0605-37.3535 59.5215-37.3535ZM31.1523-22.9004C28.5645-22.9004 26.5625-24.9023 26.5625-27.4902C26.5625-30.0293 28.6133-32.0312 31.1523-32.0312L59.5215-32.0312C62.0605-32.0312 64.1113-30.0293 64.1113-27.4902C64.1113-24.9023 62.1094-22.9004 59.5215-22.9004ZM31.1523-7.61719C28.6133-7.61719 26.5625-9.66797 26.5625-12.207C26.5625-14.7461 28.6133-16.748 31.1523-16.748L47.3633-16.748C49.9023-16.748 51.9531-14.7461 51.9531-12.207C51.9531-9.66797 49.9023-7.61719 47.3633-7.61719Z"/>
  </g>
  <g id="Regular-S" transform="matrix(1 0 0 1 1407.56 696)">
   <path class="monochrome-0 multicolor-0:tintColor hierarchical-0:tertiary SFSymbolsPreviewWireframe" d="M74.8047-3.32031L74.8047-60.791C74.8047-69.0918 70.7031-73.2422 62.5-73.2422L22.0215-73.2422C13.8184-73.2422 9.76562-69.0918 9.76562-60.791L9.76562-3.32031C9.76562 5.0293 13.8184 9.13086 22.0215 9.13086L62.5 9.13086C70.7031 9.13086 74.8047 5.0293 74.8047-3.32031Z"/>
   <path class="monochrome-1 multicolor-1:tintColor hierarchical-1:primary SFSymbolsPreviewWireframe" d="M30.3711-59.1309L54.1504-59.1309C59.1797-59.1309 62.793-62.793 62.793-68.0176L62.793-72.1191C62.793-77.3438 59.1797-81.0059 54.1504-81.0059C53.5156-81.0059 52.832-81.0059 52.0996-81.0059L55.4688-78.6621C54.4434-84.7656 48.6328-89.1113 42.2852-89.1113C35.9375-89.1113 30.0781-84.7656 29.1016-78.6621L32.4219-81.0059C31.7383-81.0059 31.0547-81.0059 30.3711-81.0059C25.3418-81.0059 21.7773-77.3438 21.7773-72.1191L21.7773-68.0176C21.7773-62.793 25.3418-59.1309 30.3711-59.1309Z"/>
   <path class="monochrome-2 multicolor-2:tintColor hierarchical-2:tertiary SFSymbolsPreviewWireframe" d="M30.3711-63.916L54.1504-63.916C56.543-63.916 58.0078-65.4297 58.0078-68.0176L58.0078-72.1191C58.0078-74.707 56.543-76.2207 54.1504-76.2207L50.9766-76.2207C50.6836-80.7129 46.9238-84.3262 42.2852-84.3262C37.6465-84.3262 33.8867-80.7129 33.5449-76.2207L30.3711-76.2207C27.9785-76.2207 26.5625-74.707 26.5625-72.1191L26.5625-68.0176C26.5625-65.4297 27.9785-63.916 30.3711-63.916ZM42.2852-72.5586C40.4785-72.5586 38.9648-74.0723 38.9648-75.8789C38.9648-77.6855 40.4785-79.1504 42.2852-79.1504C44.0918-79.1504 45.5566-77.6855 45.5566-75.8789C45.5566-74.0723 44.0918-72.5586 42.2852-72.5586Z"/>
   <path class="monochrome-3 multicolor-3:tintColor hierarchical-3:primary SFSymbolsPreviewWireframe" d="M25.0488-39.3066C23.5352-39.3066 22.2656-40.5762 22.2656-42.0898C22.2656-43.6035 23.5352-44.873 25.0488-44.873L59.5215-44.873C61.0352-44.873 62.3047-43.6035 62.3047-42.0898C62.3047-40.5762 61.0352-39.3066 59.5215-39.3066ZM25.0488-25.3418C23.4863-25.3418 22.2656-26.5625 22.2656-28.125C22.2656-29.6875 23.4863-30.9082 25.0488-30.9082L59.5215-30.9082C61.084-30.9082 62.3047-29.6875 62.3047-28.125C62.3047-26.5625 61.084-25.3418 59.5215-25.3418ZM25.0488-10.6445C23.5352-10.6445 22.2656-11.9629 22.2656-13.4766C22.2656-14.9902 23.4863-16.2109 25.0488-16.2109L41.8457-16.2109C43.4082-16.2109 44.6289-14.9902 44.6289-13.4766C44.6289-11.9629 43.3594-10.6445 41.8457-10.6445Z"/>
  </g>
  <g id="Ultralight-S" transform="matrix(1 0 0 1 519.288 696)">
   <path class="monochrome-0 multicolor-0:tintColor hierarchical-0:tertiary SFSymbolsPreviewWireframe" d="M71.0811-2.18507L71.0811-62.8799C71.0811-69.4097 67.6607-72.8789 61.0923-72.8789L19.751-72.8789C13.228-72.8789 9.76562-69.4097 9.76562-62.8799L9.76562-2.18507C9.76562 4.34815 13.228 7.76857 19.751 7.76857L61.0923 7.76857C67.6607 7.76857 71.0811 4.34815 71.0811-2.18507Z"/>
   <path class="monochrome-1 multicolor-1:tintColor hierarchical-1:primary SFSymbolsPreviewWireframe" d="M28.9634-63.354L51.8799-63.354C55.0928-63.354 57.3892-65.563 57.3892-68.6987L57.3892-72.3916C57.3892-75.5274 55.0928-77.7364 51.8799-77.7364C50.6548-77.7364 49.4263-77.7364 48.1944-77.7364L49.6563-76.8911C48.7217-81.1328 44.9092-84.2979 40.4234-84.2979C35.9375-84.2979 32.1216-81.1328 31.1904-76.8911L32.6489-77.7364C31.4204-77.7364 30.2373-77.7364 28.9634-77.7364C25.7505-77.7364 23.4575-75.5274 23.4575-72.3916L23.4575-68.6987C23.4575-65.563 25.7505-63.354 28.9634-63.354Z"/>
   <path class="monochrome-2 multicolor-2:tintColor hierarchical-2:tertiary SFSymbolsPreviewWireframe" d="M28.9634-66.3681L51.8799-66.3681C53.4551-66.3681 54.375-67.2461 54.375-68.6987L54.375-72.3916C54.375-73.8897 53.4551-74.7222 51.8799-74.7222L46.9351-74.7222C46.9146-78.3516 44.0176-81.2837 40.4234-81.2837C36.8745-81.2837 33.9321-78.3516 33.9082-74.7222L28.9634-74.7222C27.4336-74.7222 26.4717-73.8897 26.4717-72.3916L26.4717-68.6987C26.4717-67.2461 27.4336-66.3681 28.9634-66.3681ZM40.4234-71.1963C38.4351-71.1963 36.876-72.8008 36.876-74.7437C36.876-76.7774 38.4351-78.333 40.4234-78.333C42.4116-78.333 43.9673-76.7774 43.9673-74.7437C43.9673-72.8008 42.4116-71.1963 40.4234-71.1963Z"/>
   <path class="monochrome-3 multicolor-3:tintColor hierarchical-3:primary SFSymbolsPreviewWireframe" d="M22.2334-44.8012C21.6279-44.8012 21.1304-45.2534 21.1304-45.8589C21.1304-46.4189 21.6279-46.9165 22.2334-46.9165L58.6587-46.9165C59.2188-46.9165 59.7163-46.4189 59.7163-45.8589C59.7163-45.2534 59.2188-44.8012 58.6587-44.8012ZM22.2334-30.6093C21.6245-30.6093 21.1304-31.0581 21.1304-31.667C21.1304-32.2304 21.6245-32.7246 22.2334-32.7246L58.6587-32.7246C59.2222-32.7246 59.7163-32.2304 59.7163-31.667C59.7163-31.0581 59.2222-30.6093 58.6587-30.6093ZM22.2334-15.5034C21.6279-15.5034 21.1304-16.0044 21.1304-16.5644C21.1304-17.1699 21.6245-17.6641 22.2334-17.6641L42.9355-17.6641C43.499-17.6641 43.9932-17.1699 43.9932-16.5644C43.9932-16.0044 43.4956-15.5034 42.9355-15.5034Z"/>
  </g>
 </g>
</svg>
