<?xml version="1.0" encoding="UTF-8"?>
<!--Generator: Apple Native CoreSVG 360-->
<!DOCTYPE svg
PUBLIC "-//W3C//DTD SVG 1.1//EN"
       "http://www.w3.org/Graphics/SVG/1.1/DTD/svg11.dtd">
<svg version="1.1" xmlns="http://www.w3.org/2000/svg" xmlns:xlink="http://www.w3.org/1999/xlink" viewBox="0 0 3300 2200">
 <!--glyph: "101BAA", point size: 100.0, font version: "21.1d1e1", template writer version: "138.0.0"-->
 <style>.defaults {-sfsymbols-draw-reverses-motion-groups:true}

.monochrome-0 {-sfsymbols-motion-group:1;-sfsymbols-layer-tags:car.2.fill}
.monochrome-1 {opacity:0.0;-sfsymbols-clear-behind:true;-sfsymbols-motion-group:0;-sfsymbols-layer-tags:car.2.fill}
.monochrome-2 {-sfsymbols-motion-group:0;-sfsymbols-layer-tags:car.2.fill}

.multicolor-0:tintColor {-sfsymbols-motion-group:1;-sfsymbols-layer-tags:car.2.fill}
.multicolor-1:tintColor {opacity:0.0;-sfsymbols-clear-behind:true;-sfsymbols-motion-group:0;-sfsymbols-layer-tags:car.2.fill}
.multicolor-2:tintColor {-sfsymbols-motion-group:0;-sfsymbols-layer-tags:car.2.fill}

.hierarchical-0:secondary {-sfsymbols-motion-group:1;-sfsymbols-layer-tags:car.2.fill}
.hierarchical-1:primary {opacity:0.0;-sfsymbols-clear-behind:true;-sfsymbols-motion-group:0;-sfsymbols-layer-tags:car.2.fill}
.hierarchical-2:primary {-sfsymbols-motion-group:0;-sfsymbols-layer-tags:car.2.fill}

.SFSymbolsPreviewWireframe {fill:none;opacity:1.0;stroke:black;stroke-width:0.5}
</style>
 <g id="Notes">
  <rect height="2200" id="artboard" style="fill:white;opacity:1" width="3300" x="0" y="0"/>
  <line style="fill:none;stroke:black;opacity:1;stroke-width:0.5;" x1="263" x2="3036" y1="292" y2="292"/>
  <text style="stroke:none;fill:black;font-family:sans-serif;font-size:13;font-weight:bold;" transform="matrix(1 0 0 1 263 322)">Weight/Scale Variations</text>
  <text style="stroke:none;fill:black;font-family:sans-serif;font-size:13;text-anchor:middle;" transform="matrix(1 0 0 1 559.711 322)">Ultralight</text>
  <text style="stroke:none;fill:black;font-family:sans-serif;font-size:13;text-anchor:middle;" transform="matrix(1 0 0 1 856.422 322)">Thin</text>
  <text style="stroke:none;fill:black;font-family:sans-serif;font-size:13;text-anchor:middle;" transform="matrix(1 0 0 1 1153.13 322)">Light</text>
  <text style="stroke:none;fill:black;font-family:sans-serif;font-size:13;text-anchor:middle;" transform="matrix(1 0 0 1 1449.84 322)">Regular</text>
  <text style="stroke:none;fill:black;font-family:sans-serif;font-size:13;text-anchor:middle;" transform="matrix(1 0 0 1 1746.56 322)">Medium</text>
  <text style="stroke:none;fill:black;font-family:sans-serif;font-size:13;text-anchor:middle;" transform="matrix(1 0 0 1 2043.27 322)">Semibold</text>
  <text style="stroke:none;fill:black;font-family:sans-serif;font-size:13;text-anchor:middle;" transform="matrix(1 0 0 1 2339.98 322)">Bold</text>
  <text style="stroke:none;fill:black;font-family:sans-serif;font-size:13;text-anchor:middle;" transform="matrix(1 0 0 1 2636.69 322)">Heavy</text>
  <text style="stroke:none;fill:black;font-family:sans-serif;font-size:13;text-anchor:middle;" transform="matrix(1 0 0 1 2933.4 322)">Black</text>
  <line style="fill:none;stroke:black;opacity:1;stroke-width:0.5;" x1="263" x2="3036" y1="1903" y2="1903"/>
  <g transform="matrix(0.2 0 0 0.2 263 1933)">
   <path d="m46.2402 4.15039c21.7773 0 39.4531-17.627 39.4531-39.4043s-17.6758-39.4043-39.4531-39.4043c-21.7285 0-39.4043 17.627-39.4043 39.4043s17.6758 39.4043 39.4043 39.4043Zm0-7.42188c-17.6758 0-31.9336-14.3066-31.9336-31.9824s14.2578-31.9824 31.9336-31.9824 31.9824 14.3066 31.9824 31.9824-14.3066 31.9824-31.9824 31.9824Zm3.61328-17.7734v-28.4668c0-2.24609-1.46484-3.75977-3.71094-3.75977-2.14844 0-3.61328 1.51367-3.61328 3.75977v28.4668c0 2.19727 1.46484 3.71094 3.61328 3.71094 2.24609 0 3.71094-1.51367 3.71094-3.71094Zm-17.8223-10.5957h28.418c2.19727 0 3.71094-1.46484 3.71094-3.61328 0-2.19727-1.51367-3.71094-3.71094-3.71094h-28.418c-2.24609 0-3.75977 1.51367-3.75977 3.71094 0 2.14844 1.51367 3.61328 3.75977 3.61328Z"/>
  </g>
  <g transform="matrix(0.2 0 0 0.2 281.506 1933)">
   <path d="m58.5449 14.5508c27.4902 0 49.8047-22.3145 49.8047-49.8047s-22.3145-49.8047-49.8047-49.8047-49.8047 22.3145-49.8047 49.8047 22.3145 49.8047 49.8047 49.8047Zm0-8.30078c-22.9492 0-41.5039-18.5547-41.5039-41.5039s18.5547-41.5039 41.5039-41.5039 41.5039 18.5547 41.5039 41.5039-18.5547 41.5039-41.5039 41.5039Zm4.05273-23.0957v-36.9141c0-2.49023-1.70898-4.19922-4.15039-4.19922-2.39258 0-4.05273 1.70898-4.05273 4.19922v36.9141c0 2.44141 1.66016 4.15039 4.05273 4.15039 2.44141 0 4.15039-1.66016 4.15039-4.15039Zm-22.5586-14.4043h36.9629c2.44141 0 4.15039-1.61133 4.15039-4.00391 0-2.44141-1.70898-4.15039-4.15039-4.15039h-36.9629c-2.49023 0-4.15039 1.70898-4.15039 4.15039 0 2.39258 1.66016 4.00391 4.15039 4.00391Z"/>
  </g>
  <g transform="matrix(0.2 0 0 0.2 304.924 1933)">
   <path d="m74.8535 28.3203c35.1074 0 63.623-28.4668 63.623-63.5742s-28.5156-63.623-63.623-63.623-63.5742 28.5156-63.5742 63.623 28.4668 63.5742 63.5742 63.5742Zm0-9.08203c-30.127 0-54.4922-24.3652-54.4922-54.4922s24.3652-54.4922 54.4922-54.4922 54.4922 24.3652 54.4922 54.4922-24.3652 54.4922-54.4922 54.4922Zm4.44336-30.3223v-48.4863c0-2.73438-1.85547-4.63867-4.54102-4.63867-2.58789 0-4.44336 1.9043-4.44336 4.63867v48.4863c0 2.68555 1.85547 4.58984 4.44336 4.58984 2.68555 0 4.54102-1.85547 4.54102-4.58984Zm-28.7109-19.7754h48.4863c2.68555 0 4.58984-1.80664 4.58984-4.39453 0-2.73438-1.85547-4.58984-4.58984-4.58984h-48.4863c-2.73438 0-4.58984 1.85547-4.58984 4.58984 0 2.58789 1.85547 4.39453 4.58984 4.39453Z"/>
  </g>
  <text style="stroke:none;fill:black;font-family:sans-serif;font-size:13;font-weight:bold;" transform="matrix(1 0 0 1 263 1953)">Design Variations</text>
  <text style="stroke:none;fill:black;font-family:sans-serif;font-size:13;" transform="matrix(1 0 0 1 263 1971)">Symbols are supported in up to nine weights and three scales.</text>
  <text style="stroke:none;fill:black;font-family:sans-serif;font-size:13;" transform="matrix(1 0 0 1 263 1989)">For optimal layout with text and other symbols, vertically align</text>
  <text style="stroke:none;fill:black;font-family:sans-serif;font-size:13;" transform="matrix(1 0 0 1 263 2007)">symbols with the adjacent text.</text>
  <line style="fill:none;stroke:#00AEEF;stroke-width:0.5;opacity:1.0;" x1="776" x2="776" y1="1919" y2="1933"/>
  <g transform="matrix(0.2 0 0 0.2 776 1933)">
   <path d="m16.5527 0.78125c2.58789 0 3.85742-0.976562 4.78516-3.71094l20.5566-57.5195h0.244141l20.6055 57.5195c0.927734 2.73438 2.19727 3.71094 4.73633 3.71094 2.58789 0 4.24805-1.5625 4.24805-4.00391 0-0.830078-0.146484-1.61133-0.537109-2.63672l-22.9004-60.9863c-1.12305-2.97852-3.125-4.49219-6.25-4.49219-3.02734 0-5.07812 1.46484-6.15234 4.44336l-22.9004 61.084c-0.390625 1.02539-0.537109 1.80664-0.537109 2.63672 0 2.44141 1.5625 3.95508 4.10156 3.95508Zm10.2051-20.9473h30.6641c2.00195 0 3.66211-1.66016 3.66211-3.66211 0-2.05078-1.66016-3.66211-3.66211-3.66211h-30.6641c-2.00195 0-3.66211 1.61133-3.66211 3.66211 0 2.00195 1.66016 3.66211 3.66211 3.66211Z"/>
  </g>
  <line style="fill:none;stroke:#00AEEF;stroke-width:0.5;opacity:1.0;" x1="792.836" x2="792.836" y1="1919" y2="1933"/>
  <text style="stroke:none;fill:black;font-family:sans-serif;font-size:13;font-weight:bold;" transform="matrix(1 0 0 1 776 1953)">Margins</text>
  <text style="stroke:none;fill:black;font-family:sans-serif;font-size:13;" transform="matrix(1 0 0 1 776 1971)">Leading and trailing margins on the left and right side of each symbol</text>
  <text style="stroke:none;fill:black;font-family:sans-serif;font-size:13;" transform="matrix(1 0 0 1 776 1989)">can be adjusted by modifying the x-location of the margin guidelines.</text>
  <text style="stroke:none;fill:black;font-family:sans-serif;font-size:13;" transform="matrix(1 0 0 1 776 2007)">Modifications are automatically applied proportionally to all</text>
  <text style="stroke:none;fill:black;font-family:sans-serif;font-size:13;" transform="matrix(1 0 0 1 776 2025)">scales and weights.</text>
  <g transform="matrix(0.2 0 0 0.2 1289 1933)">
   <path d="m14.209 13.1348 7.86133 7.86133c4.29688 4.39453 9.32617 4.10156 13.8672-1.02539l60.6934-68.2129-4.88281-4.88281-60.2539 67.6758c-1.80664 1.95312-3.4668 2.44141-5.81055 0.0976562l-5.17578-5.12695c-2.29492-2.29492-1.80664-3.95508 0.195312-5.81055l67.4805-62.1582-4.88281-4.83398-68.0664 62.5977c-4.98047 4.58984-5.32227 9.47266-1.02539 13.8184Zm44.873-97.4609c-2.05078 2.00195-2.24609 4.88281-1.07422 6.78711 1.12305 1.80664 3.4668 3.02734 6.5918 2.24609 5.85938-1.66016 12.5977-2.39258 18.8965 0.927734l-2.68555 7.12891c-1.61133 4.00391-0.732422 6.88477 1.70898 9.42383l10.2539 10.3027c2.34375 2.39258 4.54102 2.44141 7.08008 1.95312l4.44336-0.732422 2.58789 2.53906-0.195312 2.24609c-0.0976562 2.29492 0.537109 4.29688 2.7832 6.49414l3.36914 3.32031c2.29492 2.29492 5.51758 2.49023 7.8125 0.195312l12.9883-13.0371c2.29492-2.34375 2.14844-5.37109-0.195312-7.66602l-3.41797-3.41797c-2.19727-2.19727-4.05273-3.02734-6.34766-2.88086l-2.34375 0.244141-2.44141-2.44141 1.02539-4.6875c0.634766-2.73438-0.244141-4.98047-2.88086-7.61719l-11.2793-11.1816c-12.9395-12.8418-35.5957-11.0352-46.6797-0.146484Zm7.08008 2.05078c8.78906-6.39648 25.9766-5.66406 33.6914 1.95312l12.3047 12.207c1.02539 1.02539 1.2207 1.80664 0.927734 3.32031l-1.46484 6.64062 6.73828 6.68945 4.39453-0.244141c1.12305-0.0488281 1.51367 0.0488281 2.34375 0.878906l2.53906 2.49023-10.8398 10.8398-2.49023-2.49023c-0.830078-0.878906-0.976562-1.2207-0.927734-2.39258l0.292969-4.3457-6.68945-6.73828-6.83594 1.17188c-1.41602 0.292969-2.05078 0.195312-3.17383-0.878906l-8.93555-8.88672c-1.07422-1.02539-1.17188-1.70898-0.488281-3.36914l4.58984-11.4746c-6.10352-6.34766-17.041-7.51953-25.5859-4.58984-0.683594 0.244141-0.927734-0.390625-0.390625-0.78125Z"/>
  </g>
  <text style="stroke:none;fill:black;font-family:sans-serif;font-size:13;font-weight:bold;" transform="matrix(1 0 0 1 1289 1953)">Exporting</text>
  <text style="stroke:none;fill:black;font-family:sans-serif;font-size:13;" transform="matrix(1 0 0 1 1289 1971)">Symbols should be outlined when exporting to ensure the</text>
  <text style="stroke:none;fill:black;font-family:sans-serif;font-size:13;" transform="matrix(1 0 0 1 1289 1989)">design is preserved when submitting to Xcode.</text>
  <text id="template-version" style="stroke:none;fill:black;font-family:sans-serif;font-size:13;text-anchor:end;" transform="matrix(1 0 0 1 3036 1933)">Template v.7.0</text>
  <text style="stroke:none;fill:black;font-family:sans-serif;font-size:13;text-anchor:end;" transform="matrix(1 0 0 1 3036 1951)">Requires Xcode 26 or greater</text>
  <text id="descriptive-name" style="stroke:none;fill:black;font-family:sans-serif;font-size:13;text-anchor:end;" transform="matrix(1 0 0 1 3036 1969)">Generated from car.2.fill</text>
  <text style="stroke:none;fill:black;font-family:sans-serif;font-size:13;text-anchor:end;" transform="matrix(1 0 0 1 3036 1987)">Typeset at 100.0 points</text>
  <text style="stroke:none;fill:black;font-family:sans-serif;font-size:13;" transform="matrix(1 0 0 1 263 726)">Small</text>
  <text style="stroke:none;fill:black;font-family:sans-serif;font-size:13;" transform="matrix(1 0 0 1 263 1156)">Medium</text>
  <text style="stroke:none;fill:black;font-family:sans-serif;font-size:13;" transform="matrix(1 0 0 1 263 1586)">Large</text>
 </g>
 <g id="Guides">
  <g id="H-reference" style="fill:#27AAE1;stroke:none;" transform="matrix(1 0 0 1 339 696)">
   <path d="M0.993654 0L3.63775 0L29.3281-67.1323L30.0303-67.1323L30.0303-70.459L28.1226-70.459ZM11.6885-24.4799L46.9815-24.4799L46.2315-26.7285L12.4385-26.7285ZM55.1196 0L57.7637 0L30.6382-70.459L29.4326-70.459L29.4326-67.1323Z"/>
  </g>
  <line id="Baseline-S" style="fill:none;stroke:#27AAE1;opacity:1;stroke-width:0.5;" x1="263" x2="3036" y1="696" y2="696"/>
  <line id="Capline-S" style="fill:none;stroke:#27AAE1;opacity:1;stroke-width:0.5;" x1="263" x2="3036" y1="625.541" y2="625.541"/>
  <g id="H-reference" style="fill:#27AAE1;stroke:none;" transform="matrix(1 0 0 1 339 1126)">
   <path d="M0.993654 0L3.63775 0L29.3281-67.1323L30.0303-67.1323L30.0303-70.459L28.1226-70.459ZM11.6885-24.4799L46.9815-24.4799L46.2315-26.7285L12.4385-26.7285ZM55.1196 0L57.7637 0L30.6382-70.459L29.4326-70.459L29.4326-67.1323Z"/>
  </g>
  <line id="Baseline-M" style="fill:none;stroke:#27AAE1;opacity:1;stroke-width:0.5;" x1="263" x2="3036" y1="1126" y2="1126"/>
  <line id="Capline-M" style="fill:none;stroke:#27AAE1;opacity:1;stroke-width:0.5;" x1="263" x2="3036" y1="1055.54" y2="1055.54"/>
  <g id="H-reference" style="fill:#27AAE1;stroke:none;" transform="matrix(1 0 0 1 339 1556)">
   <path d="M0.993654 0L3.63775 0L29.3281-67.1323L30.0303-67.1323L30.0303-70.459L28.1226-70.459ZM11.6885-24.4799L46.9815-24.4799L46.2315-26.7285L12.4385-26.7285ZM55.1196 0L57.7637 0L30.6382-70.459L29.4326-70.459L29.4326-67.1323Z"/>
  </g>
  <line id="Baseline-L" style="fill:none;stroke:#27AAE1;opacity:1;stroke-width:0.5;" x1="263" x2="3036" y1="1556" y2="1556"/>
  <line id="Capline-L" style="fill:none;stroke:#27AAE1;opacity:1;stroke-width:0.5;" x1="263" x2="3036" y1="1485.54" y2="1485.54"/>
  <line id="right-margin-Black-S" style="fill:none;stroke:#00AEEF;stroke-width:0.5;opacity:1.0;" x1="3013.09" x2="3013.09" y1="600.785" y2="720.121"/>
  <line id="left-margin-Black-S" style="fill:none;stroke:#00AEEF;stroke-width:0.5;opacity:1.0;" x1="2853.71" x2="2853.71" y1="600.785" y2="720.121"/>
  <line id="right-margin-Regular-S" style="fill:none;stroke:#00AEEF;stroke-width:0.5;opacity:1.0;" x1="1521.4" x2="1521.4" y1="600.785" y2="720.121"/>
  <line id="left-margin-Regular-S" style="fill:none;stroke:#00AEEF;stroke-width:0.5;opacity:1.0;" x1="1378.29" x2="1378.29" y1="600.785" y2="720.121"/>
  <line id="right-margin-Ultralight-S" style="fill:none;stroke:#00AEEF;stroke-width:0.5;opacity:1.0;" x1="626.682" x2="626.682" y1="600.785" y2="720.121"/>
  <line id="left-margin-Ultralight-S" style="fill:none;stroke:#00AEEF;stroke-width:0.5;opacity:1.0;" x1="492.74" x2="492.74" y1="600.785" y2="720.121"/>
 </g>
 <g id="Symbols">
  <g id="Black-S" transform="matrix(1 0 0 1 2853.71 696)">
   <path class="monochrome-0 multicolor-0:tintColor hierarchical-0:secondary SFSymbolsPreviewWireframe" d="M60.1562-9.17969C74.2676-9.17969 91.6016-9.81445 98.9746-10.6934C106.152-11.5723 110.547-16.0156 110.547-22.9492L110.547-28.2227C110.547-36.2793 109.57-40.625 105.811-45.5078L101.709-50.1953C100.244-57.0801 97.7051-64.2578 96.3379-67.1387C93.8477-72.5586 88.9648-75.8789 82.7148-76.709C79.0527-77.1973 71.6309-77.4902 60.1562-77.4902C48.6816-77.4902 41.2598-77.1973 37.5977-76.709C31.3477-75.8789 26.4648-72.5586 23.9746-67.1387C22.6074-64.2578 20.0684-57.0801 18.6035-50.1953L14.502-45.5078C10.7422-40.625 9.76562-36.2793 9.76562-28.2227L9.76562-2.58789C9.76562 0.585938 12.2559 3.07617 15.4297 3.07617L20.5078 3.07617C23.6816 3.07617 26.1719 0.585938 26.1719-2.58789L26.1719-10.2539C34.8145-9.61914 48.584-9.17969 60.1562-9.17969ZM31.1523-55.2246C31.6895-57.3242 32.666-60.4004 33.252-61.6211C34.7168-64.6973 36.7188-65.8203 40.4785-66.3086C42.3828-66.6016 49.1211-66.6992 60.1562-66.6992C71.1914-66.6992 77.9297-66.6016 79.8828-66.3086C83.5938-65.8203 85.5957-64.6973 87.0605-61.6211C87.6465-60.4004 88.6719-57.3242 89.1602-55.2246C89.7949-52.5391 88.623-50.7812 85.6934-50.8301C81.9824-50.8789 75.1465-51.2207 60.1562-51.2207C45.2148-51.2207 38.3789-50.8789 34.6191-50.8301C31.6895-50.7812 30.4688-52.5391 31.1523-55.2246ZM27.1973-23.5352C23.4375-23.5352 20.6055-26.3672 20.6055-30.127C20.6055-33.8867 23.4375-36.7188 27.1973-36.7188C30.957-36.7188 33.7891-33.8867 33.7891-30.127C33.7891-26.3672 30.957-23.5352 27.1973-23.5352ZM48.8281-23.4375C45.6055-23.4375 43.2617-25.7812 43.2617-29.0039C43.2617-32.2266 45.6055-34.5703 48.8281-34.5703L71.4844-34.5703C74.707-34.5703 77.0508-32.2266 77.0508-29.0039C77.0508-25.7812 74.707-23.4375 71.4844-23.4375ZM90.1855-23.3887C86.4258-23.3887 83.5938-26.2207 83.5938-29.9805C83.5938-33.7402 86.4258-36.5723 90.1855-36.5723C93.9453-36.5723 96.7773-33.7402 96.7773-29.9805C96.7773-26.2207 93.9453-23.3887 90.1855-23.3887Z"/>
   <path class="monochrome-1 multicolor-1:tintColor hierarchical-1:primary SFSymbolsPreviewWireframe" d="M54.4922 10.4004L59.5703 10.4004C66.6992 10.4004 72.5586 4.78516 72.5586-2.34375L72.5586-2.49023C80.8105-2.09961 90.625-1.85547 99.2188-1.85547C107.812-1.85547 117.627-2.09961 125.879-2.49023L125.879-2.39258C125.879 4.73633 131.738 10.4004 138.867 10.4004L143.945 10.4004C151.172 10.4004 156.934 4.63867 156.934-2.58789L156.934-28.2227C156.934-37.5488 155.615-43.6035 150.537-50.1465L147.51-53.6133C145.898-60.4492 143.457-67.1875 142.041-70.2148C138.428-78.0273 131.299-82.8125 122.754-83.9844C118.75-84.5215 110.84-84.8145 99.2188-84.8145C87.5977-84.8145 79.6875-84.5215 75.6836-83.9844C67.1387-82.8125 60.0098-78.0273 56.3965-70.2148C54.9805-67.1875 52.5391-60.4492 50.9277-53.6133L47.9004-50.1465C42.8223-43.6035 41.5039-37.5488 41.5039-28.2227L41.5039-2.58789C41.5039 4.63867 47.2656 10.4004 54.4922 10.4004Z"/>
   <path class="monochrome-2 multicolor-2:tintColor hierarchical-2:primary SFSymbolsPreviewWireframe" d="M70.2148-55.2246C70.752-57.3242 71.7285-60.4004 72.3145-61.6211C73.7793-64.6973 75.7812-65.8203 79.541-66.3086C81.4453-66.6016 88.1836-66.6992 99.2188-66.6992C110.254-66.6992 116.992-66.6016 118.945-66.3086C122.656-65.8203 124.658-64.6973 126.123-61.6211C126.709-60.4004 127.734-57.3242 128.223-55.2246C128.857-52.5391 127.686-50.7812 124.756-50.8301C121.045-50.8789 114.209-51.2207 99.2188-51.2207C84.2773-51.2207 77.4414-50.8789 73.6816-50.8301C70.752-50.7812 69.5312-52.5391 70.2148-55.2246ZM69.1895-21.4355C64.8926-21.4355 61.6211-24.707 61.6211-29.0039C61.6211-33.3008 64.8926-36.5723 69.1895-36.5723C73.4863-36.5723 76.7578-33.3008 76.7578-29.0039C76.7578-24.707 73.4863-21.4355 69.1895-21.4355ZM87.8906-23.4375C84.668-23.4375 82.3242-25.7812 82.3242-29.0039C82.3242-32.2266 84.668-34.5703 87.8906-34.5703L110.547-34.5703C113.77-34.5703 116.113-32.2266 116.113-29.0039C116.113-25.7812 113.77-23.4375 110.547-23.4375ZM129.248-21.4355C124.951-21.4355 121.68-24.707 121.68-29.0039C121.68-33.3008 124.951-36.5723 129.248-36.5723C133.545-36.5723 136.816-33.3008 136.816-29.0039C136.816-24.707 133.545-21.4355 129.248-21.4355ZM99.2188-9.17969C113.33-9.17969 130.664-9.81445 138.037-10.6934C145.215-11.5723 149.609-16.0156 149.609-22.9492L149.609-28.2227C149.609-36.2793 148.633-40.625 144.873-45.5078L140.771-50.1953C139.307-57.0801 136.768-64.2578 135.4-67.1387C132.91-72.5586 128.027-75.8789 121.777-76.709C118.115-77.1973 110.693-77.4902 99.2188-77.4902C87.7441-77.4902 80.3223-77.1973 76.6602-76.709C70.4102-75.8789 65.5273-72.5586 63.0371-67.1387C61.6699-64.2578 59.1309-57.0801 57.666-50.1953L53.5645-45.5078C49.8047-40.625 48.8281-36.2793 48.8281-28.2227L48.8281-22.9492C48.8281-16.0156 53.2227-11.5234 60.4004-10.6934C67.7734-9.86328 85.1074-9.17969 99.2188-9.17969ZM54.4922 3.07617L59.5703 3.07617C62.7441 3.07617 65.2344 0.585938 65.2344-2.58789L65.2344-13.2812L48.8281-22.9492L48.8281-2.58789C48.8281 0.585938 51.3184 3.07617 54.4922 3.07617ZM138.867 3.07617L143.945 3.07617C147.119 3.07617 149.609 0.585938 149.609-2.58789L149.609-22.9492L133.203-13.2812L133.203-2.58789C133.203 0.585938 135.693 3.07617 138.867 3.07617Z"/>
  </g>
  <g id="Regular-S" transform="matrix(1 0 0 1 1378.29 696)">
   <path class="monochrome-0 multicolor-0:tintColor hierarchical-0:secondary SFSymbolsPreviewWireframe" d="M55.5176-10.3027C68.5547-10.3027 85.6445-10.9375 92.9199-11.7676C98.291-12.3535 101.27-15.3809 101.27-20.4102L101.27-27.1484C101.27-33.4961 100.049-37.207 96.3379-41.9922L93.1641-46.1426C91.748-53.0273 89.209-60.2539 87.8906-63.0859C85.8398-67.3828 81.8359-70.1172 76.5625-70.8008C73.9746-71.1426 65.7227-71.3379 55.5176-71.3379C45.3125-71.3379 37.0117-71.0938 34.4727-70.8008C29.1992-70.166 25.1953-67.3828 23.1445-63.0859C21.8262-60.2539 19.2871-53.0273 17.8711-46.1426L14.6973-41.9922C10.9863-37.207 9.76562-33.4961 9.76562-27.1484L9.76562-4.6875C9.76562-1.80664 12.0117 0.390625 14.8926 0.390625L19.4824 0.390625C22.4121 0.390625 24.6582-1.80664 24.6582-4.6875L24.6582-11.1816C33.1055-10.6445 45.5078-10.3027 55.5176-10.3027ZM26.0254-49.4141C26.8555-53.3203 28.7598-58.9844 30.0293-61.1816C31.0059-62.9395 31.9824-63.5742 33.8379-63.8184C36.6699-64.209 43.1152-64.502 55.5176-64.502C67.9199-64.502 74.3652-64.3066 77.1973-63.8184C79.0039-63.5254 79.9316-62.9395 81.0059-61.1816C82.3242-59.0332 84.0332-53.3203 85.0098-49.4141C85.4004-47.9004 84.7168-47.4121 83.2031-47.5098C76.9531-47.9004 69.2871-48.3398 55.5176-48.3398C41.748-48.3398 34.0332-47.9004 27.832-47.5098C26.3184-47.4121 25.6836-47.9004 26.0254-49.4141ZM24.1699-23.0469C20.8984-23.0469 18.3594-25.5371 18.3594-28.8574C18.3594-32.1289 20.8984-34.668 24.1699-34.668C27.4414-34.668 29.9805-32.1289 29.9805-28.8574C29.9805-25.5371 27.4414-23.0469 24.1699-23.0469ZM45.2148-22.2656C42.4805-22.2656 40.5762-24.2188 40.5762-26.9531C40.5762-29.6875 42.4805-31.5918 45.2148-31.5918L65.8203-31.5918C68.5547-31.5918 70.459-29.6875 70.459-26.9531C70.459-24.2188 68.5547-22.2656 65.8203-22.2656ZM83.1055-21.8262C79.7852-21.8262 77.2949-24.3652 77.2949-27.6367C77.2949-30.957 79.7852-33.4473 83.1055-33.4473C86.377-33.4473 88.916-30.957 88.916-27.6367C88.916-24.3652 86.377-21.8262 83.1055-21.8262Z"/>
   <path class="monochrome-1 multicolor-1:tintColor hierarchical-1:primary SFSymbolsPreviewWireframe" d="M47.0215 6.10352L51.5625 6.10352C57.6172 6.10352 62.4512 1.31836 62.4512-4.6875L62.4512-5.17578C70.2637-4.83398 79.6875-4.58984 87.5977-4.58984C95.5078-4.58984 104.932-4.83398 112.793-5.17578L112.793-4.6875C112.793 1.31836 117.578 6.10352 123.633 6.10352L128.223 6.10352C134.229 6.10352 139.062 1.31836 139.062-4.6875L139.062-27.1484C139.062-34.7168 137.451-39.6484 132.959-45.5078L130.566-48.584C129.004-55.4688 126.514-62.5 125.146-65.4785C122.217-71.6797 116.504-75.5371 109.375-76.4648C106.543-76.8555 97.9004-77.0508 87.5977-77.0508C77.2949-77.0508 68.7012-76.8066 65.918-76.4648C58.6914-75.5859 52.9785-71.6309 50.0488-65.4785C48.6816-62.5 46.1914-55.4688 44.6289-48.584L42.2363-45.5078C37.7441-39.6484 36.1328-34.7168 36.1328-27.1484L36.1328-4.6875C36.1328 1.31836 40.9668 6.10352 47.0215 6.10352Z"/>
   <path class="monochrome-2 multicolor-2:tintColor hierarchical-2:primary SFSymbolsPreviewWireframe" d="M58.1055-49.4141C58.9844-53.3203 60.8398-58.9844 62.1094-61.1816C63.1348-62.9395 64.1113-63.5742 65.918-63.8184C68.75-64.209 75.1953-64.502 87.5977-64.502C100-64.502 106.445-64.3066 109.277-63.8184C111.133-63.5254 112.061-62.9395 113.086-61.1816C114.404-59.0332 116.162-53.3203 117.09-49.4141C117.48-47.9004 116.797-47.4121 115.283-47.5098C109.082-47.9004 101.367-48.3398 87.5977-48.3398C73.8281-48.3398 66.1621-47.9004 59.9121-47.5098C58.3984-47.4121 57.7637-47.9004 58.1055-49.4141ZM60.0098-20.5566C56.3477-20.5566 53.5645-23.3398 53.5645-27.002C53.5645-30.6641 56.3477-33.4473 60.0098-33.4473C63.6719-33.4473 66.4551-30.6641 66.4551-27.002C66.4551-23.3398 63.6719-20.5566 60.0098-20.5566ZM77.2949-22.2656C74.5605-22.2656 72.6562-24.2188 72.6562-26.9531C72.6562-29.6875 74.5605-31.5918 77.2949-31.5918L97.9004-31.5918C100.635-31.5918 102.539-29.6875 102.539-26.9531C102.539-24.2188 100.635-22.2656 97.9004-22.2656ZM115.186-20.5566C111.523-20.5566 108.74-23.3398 108.74-27.002C108.74-30.6641 111.523-33.4473 115.186-33.4473C118.848-33.4473 121.631-30.6641 121.631-27.002C121.631-23.3398 118.848-20.5566 115.186-20.5566ZM87.5977-10.3027C100.635-10.3027 117.725-10.9375 125-11.7676C130.371-12.3535 133.35-15.3809 133.35-20.4102L133.35-27.1484C133.35-33.4961 132.129-37.207 128.418-41.9922L125.244-46.1426C123.828-53.0273 121.289-60.2539 119.971-63.0859C117.92-67.3828 113.916-70.1172 108.643-70.8008C106.104-71.1426 97.8027-71.3379 87.5977-71.3379C77.3926-71.3379 69.1406-71.0938 66.5527-70.8008C61.2793-70.166 57.2754-67.3828 55.2246-63.0859C53.9062-60.2539 51.3672-53.0273 49.9512-46.1426L46.7773-41.9922C43.0664-37.207 41.8457-33.4961 41.8457-27.1484L41.8457-20.4102C41.8457-15.3809 44.8242-12.3535 50.1953-11.7676C57.4707-10.9375 74.5605-10.3027 87.5977-10.3027ZM47.0215 0.390625L51.5625 0.390625C54.4922 0.390625 56.7383-1.80664 56.7383-4.6875L56.7383-14.3555L41.8457-21.4355L41.8457-4.6875C41.8457-1.80664 44.0918 0.390625 47.0215 0.390625ZM123.633 0.390625L128.223 0.390625C131.104 0.390625 133.35-1.80664 133.35-4.6875L133.35-21.4355L118.457-14.3555L118.457-4.6875C118.457-1.80664 120.703 0.390625 123.633 0.390625Z"/>
  </g>
  <g id="Ultralight-S" transform="matrix(1 0 0 1 492.74 696)">
   <path class="monochrome-0 multicolor-0:tintColor hierarchical-0:secondary SFSymbolsPreviewWireframe" d="M52.8838-10.7114C64.9673-10.7114 81.9663-11.3462 89.1509-12.1763C93.3868-12.6714 95.9566-14.7451 95.9566-19.0933L95.9566-25.8316C95.9566-32.7695 94.2364-35.8901 91.4336-39.6309L88.0328-44.0537C86.6621-50.9385 84.1231-58.2105 82.8047-60.9971C80.7994-65.2486 76.9317-67.211 72.7935-67.7583C70.1602-68.1001 61.3633-68.2954 52.8838-68.2954C44.4043-68.2954 35.5586-68.0967 32.9287-67.7583C28.8359-67.2144 24.9683-65.2486 22.9629-60.9971C21.6445-58.2105 19.1055-50.9385 17.7349-44.0537L14.334-39.6309C11.4858-35.8901 9.76562-32.7695 9.76562-25.8316L9.76562-5.5957C9.76562-2.9873 11.8301-0.926259 14.4839-0.926259L18.7105-0.926259C21.3223-0.926259 23.3867-2.9873 23.3867-5.5957L23.3867-11.5903C31.7886-11.0532 43.7368-10.7114 52.8838-10.7114ZM23.437-46.7803C24.6304-52.3213 26.353-56.9409 27.5772-59.0474C28.7808-61.1231 30.5293-62.6206 33.6563-63.001C36.7153-63.3916 43.6147-63.5483 52.8838-63.5483C62.1075-63.5483 69.0069-63.3984 72.1114-63.001C75.1895-62.6172 76.98-61.1231 78.1905-59.0474C79.418-56.9444 81.0816-52.3213 82.3306-46.7803C82.5396-45.8569 82.2193-45.0054 80.8418-45.103C74.0015-45.5845 66.9258-45.8423 52.8838-45.8423C38.8418-45.8423 31.7627-45.5845 24.9258-45.103C23.5484-45.0054 23.2315-45.8569 23.437-46.7803ZM24.1699-21.4121C21.3979-21.4121 19.3584-23.4483 19.3584-26.2237C19.3584-28.9502 21.3979-30.9898 24.1699-30.9898C26.9419-30.9898 28.9815-28.9502 28.9815-26.2237C28.9815-23.4483 26.9419-21.4121 24.1699-21.4121ZM43.5347-21.8115C41.5269-21.8115 40.1675-23.1289 40.1675-25.1821C40.1675-27.2354 41.5269-28.5948 43.5347-28.5948L62.1875-28.5948C64.2408-28.5948 65.6001-27.2354 65.6001-25.1821C65.6001-23.1289 64.2408-21.8115 62.1875-21.8115ZM80.4717-21.3721C77.6963-21.3721 75.6602-23.4116 75.6602-26.1382C75.6602-28.9136 77.6963-30.9497 80.4717-30.9497C83.1983-30.9497 85.2378-28.9136 85.2378-26.1382C85.2378-23.4116 83.1983-21.3721 80.4717-21.3721Z"/>
   <path class="monochrome-1 multicolor-1:tintColor hierarchical-1:primary SFSymbolsPreviewWireframe" d="M42.6621 2.15286L46.8853 2.15286C51.2144 2.15286 54.6407-1.27 54.6407-5.5957L54.6407-8.35447C62.7256-7.87644 73.0123-7.6323 81.0586-7.6323C89.105-7.6323 99.3462-7.87644 107.435-8.35447L107.435-5.5957C107.435-1.27 110.903 2.15286 115.232 2.15286L119.459 2.15286C123.784 2.15286 127.211-1.27 127.211-5.5957L127.211-25.8316C127.211-33.627 125.1-37.4688 122.061-41.4663L119.032-45.3599C117.651-52.2447 115.116-59.503 113.749-62.2998C111.182-67.729 106.241-70.1333 101.383-70.7432C98.5963-71.1338 89.5904-71.3291 81.0586-71.3291C72.5269-71.3291 63.5245-71.1304 60.7413-70.7432C55.876-70.1368 50.9351-67.7256 48.3687-62.2998C47.0015-59.503 44.4658-52.2447 43.0396-45.3599L40.0567-41.4663C37.0176-37.4688 34.8613-33.627 34.8613-25.8316L34.8613-5.5957C34.8613-1.27 38.333 2.15286 42.6621 2.15286Z"/>
   <path class="monochrome-2 multicolor-2:tintColor hierarchical-2:primary SFSymbolsPreviewWireframe" d="M51.6119-46.7803C52.8086-52.3213 54.5279-56.9409 55.752-59.0474C56.959-61.1231 58.7076-62.6206 61.8311-63.001C64.8902-63.3916 71.7896-63.5483 81.0586-63.5483C90.2823-63.5483 97.2271-63.3984 100.286-63.001C103.368-62.6172 105.158-61.1231 106.365-59.0474C107.593-56.9444 109.26-52.3213 110.505-46.7803C110.714-45.8569 110.394-45.0054 109.017-45.103C102.18-45.5845 95.1006-45.8423 81.0586-45.8423C67.0167-45.8423 59.941-45.5845 53.1006-45.103C51.7232-45.0054 51.4063-45.8569 51.6119-46.7803ZM53.4708-21.2832C50.6714-21.2832 48.6602-23.3398 48.6602-26.1392C48.6602-28.8931 50.6714-30.9497 53.4708-30.9497C56.2247-30.9497 58.2813-28.8931 58.2813-26.1392C58.2813-23.3398 56.2247-21.2832 53.4708-21.2832ZM71.7095-21.8115C69.7017-21.8115 68.3423-23.1289 68.3423-25.1821C68.3423-27.2354 69.7017-28.5948 71.7095-28.5948L90.3624-28.5948C92.4156-28.5948 93.775-27.2354 93.775-25.1821C93.775-23.1289 92.4156-21.8115 90.3624-21.8115ZM108.647-21.2832C105.847-21.2832 103.836-23.3398 103.836-26.1392C103.836-28.8931 105.847-30.9497 108.647-30.9497C111.4-30.9497 113.457-28.8931 113.457-26.1392C113.457-23.3398 111.4-21.2832 108.647-21.2832ZM81.0586-10.7114C93.1421-10.7114 110.141-11.3462 117.326-12.1763C121.562-12.6714 124.177-14.7451 124.177-19.0933L124.177-25.8316C124.177-32.7695 122.411-35.8901 119.608-39.6309L116.208-44.0537C114.837-50.9385 112.298-58.2105 110.98-60.9971C108.974-65.2486 105.107-67.211 100.968-67.7583C98.3384-68.1001 89.5382-68.2954 81.0586-68.2954C72.5791-68.2954 63.7369-68.0967 61.1036-67.7583C57.0108-67.2144 53.1431-65.2486 51.1377-60.9971C49.8194-58.2105 47.2803-50.9385 45.9097-44.0537L42.5088-39.6309C39.6607-35.8901 37.9405-32.7695 37.9405-25.8316L37.9405-19.0933C37.9405-14.7451 40.5557-12.6714 44.7461-12.1763C51.9307-11.3462 68.9297-10.7114 81.0586-10.7114ZM42.6621-0.926259L46.8853-0.926259C49.5425-0.926259 51.607-2.9873 51.607-5.5957L51.607-14.4917L37.9405-21.0269L37.9405-5.5957C37.9405-2.9873 40.0049-0.926259 42.6621-0.926259ZM115.232-0.926259L119.459-0.926259C122.112-0.926259 124.177-2.9873 124.177-5.5957L124.177-21.0269L110.51-14.4917L110.51-5.5957C110.51-2.9873 112.575-0.926259 115.232-0.926259Z"/>
  </g>
 </g>
</svg>
