<?xml version="1.0" encoding="UTF-8" standalone="no"?>
<!DOCTYPE svg PUBLIC "-//W3C//DTD SVG 1.1//EN" "http://www.w3.org/Graphics/SVG/1.1/DTD/svg11.dtd">
<svg width="100%" height="100%" viewBox="0 0 16 19" version="1.1" xmlns="http://www.w3.org/2000/svg" xmlns:xlink="http://www.w3.org/1999/xlink" xml:space="preserve" xmlns:serif="http://www.serif.com/" style="fill-rule:evenodd;clip-rule:evenodd;stroke-linejoin:round;stroke-miterlimit:2;">
    <g id="layer1" transform="matrix(2.834641,0,0,2.834641,-244.970506,-365.150635)">
        <g>
            <g id="path7" transform="matrix(0.949812,0,0,0.949812,4.477952,6.592042)">
                <path d="M89.126,128.979C89.138,128.951 89.165,128.933 89.194,128.933C89.224,128.933 89.251,128.951 89.263,128.978C89.656,129.894 91.604,134.439 91.969,135.291C91.98,135.317 91.976,135.347 91.958,135.368C91.939,135.39 91.91,135.399 91.883,135.392C91.47,135.289 90.278,134.991 89.613,134.825C89.309,134.749 88.992,134.751 88.69,134.831C88.059,134.997 86.96,135.286 86.566,135.39C86.539,135.397 86.51,135.388 86.491,135.367C86.472,135.345 86.468,135.315 86.479,135.289C86.837,134.435 88.742,129.896 89.126,128.979Z" style="fill:rgb(255,202,48);fill-rule:nonzero;"/>
                <path d="M88.942,128.901L88.984,128.832L89.042,128.779L89.114,128.745L89.194,128.733L89.274,128.745L89.345,128.778L89.405,128.831L89.447,128.899L92.153,135.212L92.173,135.286L92.172,135.361L92.151,135.433L92.11,135.498L92.053,135.549L91.985,135.581L91.911,135.594L91.835,135.586L89.564,135.019C89.294,134.952 89.01,134.953 88.741,135.024L86.617,135.583L86.541,135.592L86.466,135.58L86.398,135.548L86.34,135.498L86.298,135.434L86.276,135.362L86.275,135.286L86.294,135.212L88.942,128.901ZM89.126,128.979L86.479,135.289C86.468,135.315 86.472,135.345 86.491,135.367C86.51,135.388 86.539,135.397 86.566,135.39L88.69,134.831C88.992,134.751 89.309,134.749 89.613,134.825L91.883,135.392C91.91,135.399 91.939,135.39 91.958,135.368C91.976,135.347 91.98,135.317 91.969,135.291L89.263,128.978C89.251,128.951 89.224,128.933 89.194,128.933C89.165,128.933 89.138,128.951 89.126,128.979Z" style="fill:white;"/>
            </g>
        </g>
    </g>
</svg>
