<?xml version="1.0" encoding="UTF-8"?>
<!--Generator: Apple Native CoreSVG 360-->
<!DOCTYPE svg
PUBLIC "-//W3C//DTD SVG 1.1//EN"
       "http://www.w3.org/Graphics/SVG/1.1/DTD/svg11.dtd">
<svg version="1.1" xmlns="http://www.w3.org/2000/svg" xmlns:xlink="http://www.w3.org/1999/xlink" viewBox="0 0 3300 2200">
 <!--glyph: "10301D", point size: 100.0, font version: "21.1d1e1", template writer version: "138.0.0"-->
 <style>.defaults {-sfsymbols-variable-value-mode:color;-sfsymbols-draw-reverses-motion-groups:false}

.monochrome-0 {-sfsymbols-motion-group:1;-sfsymbols-layer-tags:tram.card.fill}
.monochrome-1 {opacity:0.0;-sfsymbols-clear-behind:true;-sfsymbols-motion-group:0;-sfsymbols-always-pulses:true;-sfsymbols-layer-tags:tram.card.fill}

.multicolor-0:tintColor {-sfsymbols-motion-group:1;-sfsymbols-layer-tags:tram.card.fill}
.multicolor-1:white {-sfsymbols-motion-group:0;-sfsymbols-always-pulses:true;-sfsymbols-layer-tags:tram.card.fill}

.hierarchical-0:tertiary {-sfsymbols-motion-group:1;-sfsymbols-layer-tags:tram.card.fill}
.hierarchical-1:primary {-sfsymbols-motion-group:0;-sfsymbols-always-pulses:true;-sfsymbols-layer-tags:tram.card.fill}

.SFSymbolsPreviewWireframe {fill:none;opacity:1.0;stroke:black;stroke-width:0.5}
</style>
 <g id="Notes">
  <rect height="2200" id="artboard" style="fill:white;opacity:1" width="3300" x="0" y="0"/>
  <line style="fill:none;stroke:black;opacity:1;stroke-width:0.5;" x1="263" x2="3036" y1="292" y2="292"/>
  <text style="stroke:none;fill:black;font-family:sans-serif;font-size:13;font-weight:bold;" transform="matrix(1 0 0 1 263 322)">Weight/Scale Variations</text>
  <text style="stroke:none;fill:black;font-family:sans-serif;font-size:13;text-anchor:middle;" transform="matrix(1 0 0 1 559.711 322)">Ultralight</text>
  <text style="stroke:none;fill:black;font-family:sans-serif;font-size:13;text-anchor:middle;" transform="matrix(1 0 0 1 856.422 322)">Thin</text>
  <text style="stroke:none;fill:black;font-family:sans-serif;font-size:13;text-anchor:middle;" transform="matrix(1 0 0 1 1153.13 322)">Light</text>
  <text style="stroke:none;fill:black;font-family:sans-serif;font-size:13;text-anchor:middle;" transform="matrix(1 0 0 1 1449.84 322)">Regular</text>
  <text style="stroke:none;fill:black;font-family:sans-serif;font-size:13;text-anchor:middle;" transform="matrix(1 0 0 1 1746.56 322)">Medium</text>
  <text style="stroke:none;fill:black;font-family:sans-serif;font-size:13;text-anchor:middle;" transform="matrix(1 0 0 1 2043.27 322)">Semibold</text>
  <text style="stroke:none;fill:black;font-family:sans-serif;font-size:13;text-anchor:middle;" transform="matrix(1 0 0 1 2339.98 322)">Bold</text>
  <text style="stroke:none;fill:black;font-family:sans-serif;font-size:13;text-anchor:middle;" transform="matrix(1 0 0 1 2636.69 322)">Heavy</text>
  <text style="stroke:none;fill:black;font-family:sans-serif;font-size:13;text-anchor:middle;" transform="matrix(1 0 0 1 2933.4 322)">Black</text>
  <line style="fill:none;stroke:black;opacity:1;stroke-width:0.5;" x1="263" x2="3036" y1="1903" y2="1903"/>
  <g transform="matrix(0.2 0 0 0.2 263 1933)">
   <path d="m46.2402 4.15039c21.7773 0 39.4531-17.627 39.4531-39.4043s-17.6758-39.4043-39.4531-39.4043c-21.7285 0-39.4043 17.627-39.4043 39.4043s17.6758 39.4043 39.4043 39.4043Zm0-7.42188c-17.6758 0-31.9336-14.3066-31.9336-31.9824s14.2578-31.9824 31.9336-31.9824 31.9824 14.3066 31.9824 31.9824-14.3066 31.9824-31.9824 31.9824Zm3.61328-17.7734v-28.4668c0-2.24609-1.46484-3.75977-3.71094-3.75977-2.14844 0-3.61328 1.51367-3.61328 3.75977v28.4668c0 2.19727 1.46484 3.71094 3.61328 3.71094 2.24609 0 3.71094-1.51367 3.71094-3.71094Zm-17.8223-10.5957h28.418c2.19727 0 3.71094-1.46484 3.71094-3.61328 0-2.19727-1.51367-3.71094-3.71094-3.71094h-28.418c-2.24609 0-3.75977 1.51367-3.75977 3.71094 0 2.14844 1.51367 3.61328 3.75977 3.61328Z"/>
  </g>
  <g transform="matrix(0.2 0 0 0.2 281.506 1933)">
   <path d="m58.5449 14.5508c27.4902 0 49.8047-22.3145 49.8047-49.8047s-22.3145-49.8047-49.8047-49.8047-49.8047 22.3145-49.8047 49.8047 22.3145 49.8047 49.8047 49.8047Zm0-8.30078c-22.9492 0-41.5039-18.5547-41.5039-41.5039s18.5547-41.5039 41.5039-41.5039 41.5039 18.5547 41.5039 41.5039-18.5547 41.5039-41.5039 41.5039Zm4.05273-23.0957v-36.9141c0-2.49023-1.70898-4.19922-4.15039-4.19922-2.39258 0-4.05273 1.70898-4.05273 4.19922v36.9141c0 2.44141 1.66016 4.15039 4.05273 4.15039 2.44141 0 4.15039-1.66016 4.15039-4.15039Zm-22.5586-14.4043h36.9629c2.44141 0 4.15039-1.61133 4.15039-4.00391 0-2.44141-1.70898-4.15039-4.15039-4.15039h-36.9629c-2.49023 0-4.15039 1.70898-4.15039 4.15039 0 2.39258 1.66016 4.00391 4.15039 4.00391Z"/>
  </g>
  <g transform="matrix(0.2 0 0 0.2 304.924 1933)">
   <path d="m74.8535 28.3203c35.1074 0 63.623-28.4668 63.623-63.5742s-28.5156-63.623-63.623-63.623-63.5742 28.5156-63.5742 63.623 28.4668 63.5742 63.5742 63.5742Zm0-9.08203c-30.127 0-54.4922-24.3652-54.4922-54.4922s24.3652-54.4922 54.4922-54.4922 54.4922 24.3652 54.4922 54.4922-24.3652 54.4922-54.4922 54.4922Zm4.44336-30.3223v-48.4863c0-2.73438-1.85547-4.63867-4.54102-4.63867-2.58789 0-4.44336 1.9043-4.44336 4.63867v48.4863c0 2.68555 1.85547 4.58984 4.44336 4.58984 2.68555 0 4.54102-1.85547 4.54102-4.58984Zm-28.7109-19.7754h48.4863c2.68555 0 4.58984-1.80664 4.58984-4.39453 0-2.73438-1.85547-4.58984-4.58984-4.58984h-48.4863c-2.73438 0-4.58984 1.85547-4.58984 4.58984 0 2.58789 1.85547 4.39453 4.58984 4.39453Z"/>
  </g>
  <text style="stroke:none;fill:black;font-family:sans-serif;font-size:13;font-weight:bold;" transform="matrix(1 0 0 1 263 1953)">Design Variations</text>
  <text style="stroke:none;fill:black;font-family:sans-serif;font-size:13;" transform="matrix(1 0 0 1 263 1971)">Symbols are supported in up to nine weights and three scales.</text>
  <text style="stroke:none;fill:black;font-family:sans-serif;font-size:13;" transform="matrix(1 0 0 1 263 1989)">For optimal layout with text and other symbols, vertically align</text>
  <text style="stroke:none;fill:black;font-family:sans-serif;font-size:13;" transform="matrix(1 0 0 1 263 2007)">symbols with the adjacent text.</text>
  <line style="fill:none;stroke:#00AEEF;stroke-width:0.5;opacity:1.0;" x1="776" x2="776" y1="1919" y2="1933"/>
  <g transform="matrix(0.2 0 0 0.2 776 1933)">
   <path d="m16.5527 0.78125c2.58789 0 3.85742-0.976562 4.78516-3.71094l20.5566-57.5195h0.244141l20.6055 57.5195c0.927734 2.73438 2.19727 3.71094 4.73633 3.71094 2.58789 0 4.24805-1.5625 4.24805-4.00391 0-0.830078-0.146484-1.61133-0.537109-2.63672l-22.9004-60.9863c-1.12305-2.97852-3.125-4.49219-6.25-4.49219-3.02734 0-5.07812 1.46484-6.15234 4.44336l-22.9004 61.084c-0.390625 1.02539-0.537109 1.80664-0.537109 2.63672 0 2.44141 1.5625 3.95508 4.10156 3.95508Zm10.2051-20.9473h30.6641c2.00195 0 3.66211-1.66016 3.66211-3.66211 0-2.05078-1.66016-3.66211-3.66211-3.66211h-30.6641c-2.00195 0-3.66211 1.61133-3.66211 3.66211 0 2.00195 1.66016 3.66211 3.66211 3.66211Z"/>
  </g>
  <line style="fill:none;stroke:#00AEEF;stroke-width:0.5;opacity:1.0;" x1="792.836" x2="792.836" y1="1919" y2="1933"/>
  <text style="stroke:none;fill:black;font-family:sans-serif;font-size:13;font-weight:bold;" transform="matrix(1 0 0 1 776 1953)">Margins</text>
  <text style="stroke:none;fill:black;font-family:sans-serif;font-size:13;" transform="matrix(1 0 0 1 776 1971)">Leading and trailing margins on the left and right side of each symbol</text>
  <text style="stroke:none;fill:black;font-family:sans-serif;font-size:13;" transform="matrix(1 0 0 1 776 1989)">can be adjusted by modifying the x-location of the margin guidelines.</text>
  <text style="stroke:none;fill:black;font-family:sans-serif;font-size:13;" transform="matrix(1 0 0 1 776 2007)">Modifications are automatically applied proportionally to all</text>
  <text style="stroke:none;fill:black;font-family:sans-serif;font-size:13;" transform="matrix(1 0 0 1 776 2025)">scales and weights.</text>
  <g transform="matrix(0.2 0 0 0.2 1289 1933)">
   <path d="m14.209 13.1348 7.86133 7.86133c4.29688 4.39453 9.32617 4.10156 13.8672-1.02539l60.6934-68.2129-4.88281-4.88281-60.2539 67.6758c-1.80664 1.95312-3.4668 2.44141-5.81055 0.0976562l-5.17578-5.12695c-2.29492-2.29492-1.80664-3.95508 0.195312-5.81055l67.4805-62.1582-4.88281-4.83398-68.0664 62.5977c-4.98047 4.58984-5.32227 9.47266-1.02539 13.8184Zm44.873-97.4609c-2.05078 2.00195-2.24609 4.88281-1.07422 6.78711 1.12305 1.80664 3.4668 3.02734 6.5918 2.24609 5.85938-1.66016 12.5977-2.39258 18.8965 0.927734l-2.68555 7.12891c-1.61133 4.00391-0.732422 6.88477 1.70898 9.42383l10.2539 10.3027c2.34375 2.39258 4.54102 2.44141 7.08008 1.95312l4.44336-0.732422 2.58789 2.53906-0.195312 2.24609c-0.0976562 2.29492 0.537109 4.29688 2.7832 6.49414l3.36914 3.32031c2.29492 2.29492 5.51758 2.49023 7.8125 0.195312l12.9883-13.0371c2.29492-2.34375 2.14844-5.37109-0.195312-7.66602l-3.41797-3.41797c-2.19727-2.19727-4.05273-3.02734-6.34766-2.88086l-2.34375 0.244141-2.44141-2.44141 1.02539-4.6875c0.634766-2.73438-0.244141-4.98047-2.88086-7.61719l-11.2793-11.1816c-12.9395-12.8418-35.5957-11.0352-46.6797-0.146484Zm7.08008 2.05078c8.78906-6.39648 25.9766-5.66406 33.6914 1.95312l12.3047 12.207c1.02539 1.02539 1.2207 1.80664 0.927734 3.32031l-1.46484 6.64062 6.73828 6.68945 4.39453-0.244141c1.12305-0.0488281 1.51367 0.0488281 2.34375 0.878906l2.53906 2.49023-10.8398 10.8398-2.49023-2.49023c-0.830078-0.878906-0.976562-1.2207-0.927734-2.39258l0.292969-4.3457-6.68945-6.73828-6.83594 1.17188c-1.41602 0.292969-2.05078 0.195312-3.17383-0.878906l-8.93555-8.88672c-1.07422-1.02539-1.17188-1.70898-0.488281-3.36914l4.58984-11.4746c-6.10352-6.34766-17.041-7.51953-25.5859-4.58984-0.683594 0.244141-0.927734-0.390625-0.390625-0.78125Z"/>
  </g>
  <text style="stroke:none;fill:black;font-family:sans-serif;font-size:13;font-weight:bold;" transform="matrix(1 0 0 1 1289 1953)">Exporting</text>
  <text style="stroke:none;fill:black;font-family:sans-serif;font-size:13;" transform="matrix(1 0 0 1 1289 1971)">Symbols should be outlined when exporting to ensure the</text>
  <text style="stroke:none;fill:black;font-family:sans-serif;font-size:13;" transform="matrix(1 0 0 1 1289 1989)">design is preserved when submitting to Xcode.</text>
  <text id="template-version" style="stroke:none;fill:black;font-family:sans-serif;font-size:13;text-anchor:end;" transform="matrix(1 0 0 1 3036 1933)">Template v.7.0</text>
  <text style="stroke:none;fill:black;font-family:sans-serif;font-size:13;text-anchor:end;" transform="matrix(1 0 0 1 3036 1951)">Requires Xcode 26 or greater</text>
  <text id="descriptive-name" style="stroke:none;fill:black;font-family:sans-serif;font-size:13;text-anchor:end;" transform="matrix(1 0 0 1 3036 1969)">Generated from tram.card.fill</text>
  <text style="stroke:none;fill:black;font-family:sans-serif;font-size:13;text-anchor:end;" transform="matrix(1 0 0 1 3036 1987)">Typeset at 100.0 points</text>
  <text style="stroke:none;fill:black;font-family:sans-serif;font-size:13;" transform="matrix(1 0 0 1 263 726)">Small</text>
  <text style="stroke:none;fill:black;font-family:sans-serif;font-size:13;" transform="matrix(1 0 0 1 263 1156)">Medium</text>
  <text style="stroke:none;fill:black;font-family:sans-serif;font-size:13;" transform="matrix(1 0 0 1 263 1586)">Large</text>
 </g>
 <g id="Guides">
  <g id="H-reference" style="fill:#27AAE1;stroke:none;" transform="matrix(1 0 0 1 339 696)">
   <path d="M0.993654 0L3.63775 0L29.3281-67.1323L30.0303-67.1323L30.0303-70.459L28.1226-70.459ZM11.6885-24.4799L46.9815-24.4799L46.2315-26.7285L12.4385-26.7285ZM55.1196 0L57.7637 0L30.6382-70.459L29.4326-70.459L29.4326-67.1323Z"/>
  </g>
  <line id="Baseline-S" style="fill:none;stroke:#27AAE1;opacity:1;stroke-width:0.5;" x1="263" x2="3036" y1="696" y2="696"/>
  <line id="Capline-S" style="fill:none;stroke:#27AAE1;opacity:1;stroke-width:0.5;" x1="263" x2="3036" y1="625.541" y2="625.541"/>
  <g id="H-reference" style="fill:#27AAE1;stroke:none;" transform="matrix(1 0 0 1 339 1126)">
   <path d="M0.993654 0L3.63775 0L29.3281-67.1323L30.0303-67.1323L30.0303-70.459L28.1226-70.459ZM11.6885-24.4799L46.9815-24.4799L46.2315-26.7285L12.4385-26.7285ZM55.1196 0L57.7637 0L30.6382-70.459L29.4326-70.459L29.4326-67.1323Z"/>
  </g>
  <line id="Baseline-M" style="fill:none;stroke:#27AAE1;opacity:1;stroke-width:0.5;" x1="263" x2="3036" y1="1126" y2="1126"/>
  <line id="Capline-M" style="fill:none;stroke:#27AAE1;opacity:1;stroke-width:0.5;" x1="263" x2="3036" y1="1055.54" y2="1055.54"/>
  <g id="H-reference" style="fill:#27AAE1;stroke:none;" transform="matrix(1 0 0 1 339 1556)">
   <path d="M0.993654 0L3.63775 0L29.3281-67.1323L30.0303-67.1323L30.0303-70.459L28.1226-70.459ZM11.6885-24.4799L46.9815-24.4799L46.2315-26.7285L12.4385-26.7285ZM55.1196 0L57.7637 0L30.6382-70.459L29.4326-70.459L29.4326-67.1323Z"/>
  </g>
  <line id="Baseline-L" style="fill:none;stroke:#27AAE1;opacity:1;stroke-width:0.5;" x1="263" x2="3036" y1="1556" y2="1556"/>
  <line id="Capline-L" style="fill:none;stroke:#27AAE1;opacity:1;stroke-width:0.5;" x1="263" x2="3036" y1="1485.54" y2="1485.54"/>
  <line id="right-margin-Black-S" style="fill:none;stroke:#00AEEF;stroke-width:0.5;opacity:1.0;" x1="2989.94" x2="2989.94" y1="600.785" y2="720.121"/>
  <line id="left-margin-Black-S" style="fill:none;stroke:#00AEEF;stroke-width:0.5;opacity:1.0;" x1="2876.86" x2="2876.86" y1="600.785" y2="720.121"/>
  <line id="right-margin-Regular-S" style="fill:none;stroke:#00AEEF;stroke-width:0.5;opacity:1.0;" x1="1504.87" x2="1504.87" y1="600.785" y2="720.121"/>
  <line id="left-margin-Regular-S" style="fill:none;stroke:#00AEEF;stroke-width:0.5;opacity:1.0;" x1="1394.82" x2="1394.82" y1="600.785" y2="720.121"/>
  <line id="right-margin-Ultralight-S" style="fill:none;stroke:#00AEEF;stroke-width:0.5;opacity:1.0;" x1="613.015" x2="613.015" y1="600.785" y2="720.121"/>
  <line id="left-margin-Ultralight-S" style="fill:none;stroke:#00AEEF;stroke-width:0.5;opacity:1.0;" x1="506.407" x2="506.407" y1="600.785" y2="720.121"/>
 </g>
 <g id="Symbols">
  <g id="Black-S" transform="matrix(1 0 0 1 2876.86 696)">
   <path class="monochrome-0 multicolor-0:tintColor hierarchical-0:tertiary SFSymbolsPreviewWireframe" d="M25-0.0488281L88.0859-0.0488281C97.6562-0.0488281 103.32-5.71289 103.32-15.2832L103.32-55.2246C103.32-64.7949 97.6562-70.459 88.0859-70.459L25-70.459C15.4297-70.459 9.76562-64.7949 9.76562-55.2246L9.76562-15.2832C9.76562-5.71289 15.4297-0.0488281 25-0.0488281Z"/>
   <path class="monochrome-1 multicolor-1:white hierarchical-1:primary SFSymbolsPreviewWireframe" d="M47.0703-15.6738C42.334-15.6738 39.502-18.457 39.502-23.2422L39.502-36.2793C39.502-40.9668 39.6973-42.4316 40.1367-44.6777C41.2598-50.8301 43.8477-53.4668 49.6094-54.4434C51.5137-54.7363 53.8574-54.834 56.543-54.834C59.2285-54.834 61.5723-54.7363 63.4766-54.4434C69.2383-53.4668 71.8262-50.8301 72.9492-44.6777C73.3887-42.4316 73.584-40.9668 73.584-36.2793L73.584-23.2422C73.584-18.457 70.752-15.6738 66.0156-15.6738ZM56.543-27.7344C60.791-27.7832 63.7207-27.9297 65.4297-28.125C66.6992-28.2715 67.4805-29.1992 67.4805-30.4688L67.4805-35.1074C67.4805-38.0859 67.0898-41.1133 66.9922-41.9922C66.8457-43.0664 66.0645-43.8477 64.9902-43.9453C63.2324-44.1895 60.498-44.2871 56.543-44.3359C52.5391-44.2871 49.8047-44.1895 48.0957-43.9453C47.0215-43.8477 46.2402-43.0664 46.0938-41.9922C45.9961-41.1133 45.6055-38.0859 45.6055-35.1074L45.6055-30.4688C45.6055-29.1992 46.3867-28.2715 47.6562-28.125C49.3652-27.9297 52.2461-27.7832 56.543-27.7344ZM48.2422-20.3125C49.6094-20.3125 50.6836-21.2891 50.6836-22.7051C50.6836-24.0723 49.6094-25.0488 48.2422-25.0488C46.9238-25.0488 45.8984-24.0723 45.8984-22.7051C45.8984-21.2891 46.875-20.3125 48.2422-20.3125ZM64.8438-20.3125C66.1621-20.3125 67.1875-21.2891 67.1875-22.7051C67.1875-24.0723 66.2109-25.0488 64.8438-25.0488C63.4766-25.0488 62.4023-24.0723 62.4023-22.7051C62.4023-21.2891 63.4766-20.3125 64.8438-20.3125ZM52.1973-46.9238L60.8887-46.9238C61.8652-46.9238 62.6465-47.6562 62.6465-48.6816C62.6465-49.6582 61.8652-50.3906 60.8887-50.3906L52.1973-50.3906C51.2207-50.3906 50.4883-49.6582 50.4883-48.6816C50.4883-47.6562 51.2207-46.9238 52.1973-46.9238Z"/>
  </g>
  <g id="Regular-S" transform="matrix(1 0 0 1 1394.82 696)">
   <path class="monochrome-0 multicolor-0:tintColor hierarchical-0:tertiary SFSymbolsPreviewWireframe" d="M22.2168-2.09961L87.8418-2.09961C96.1914-2.09961 100.293-6.15234 100.293-14.3555L100.293-56.0547C100.293-64.2578 96.1914-68.3105 87.8418-68.3105L22.2168-68.3105C13.916-68.3105 9.76562-64.2578 9.76562-56.0547L9.76562-14.3555C9.76562-6.15234 13.916-2.09961 22.2168-2.09961Z"/>
   <path class="monochrome-1 multicolor-1:white hierarchical-1:primary SFSymbolsPreviewWireframe" d="M44.043-15.625C40.918-15.625 38.8672-17.7734 38.8672-21.0449L38.8672-35.1562C38.8672-39.9902 39.502-44.7266 40.2344-47.998C41.0645-51.416 43.3105-54.0039 46.875-54.3457C47.8516-54.4434 51.0742-54.7363 55.0293-54.7363C58.9844-54.7363 62.207-54.4434 63.1836-54.3457C66.748-54.0039 68.9941-51.416 69.8242-47.998C70.5566-44.7266 71.1914-39.9902 71.1914-35.1562L71.1914-21.0449C71.1914-17.7734 69.1406-15.625 66.0156-15.625ZM55.0293-28.5156C58.3496-28.5156 62.6465-28.6621 65.8691-29.0039C66.9922-29.1504 67.3828-29.8828 67.3828-30.9082L67.3828-35.2051C67.3828-39.209 66.8945-42.4316 66.6504-43.5547C66.4551-44.3359 65.9668-44.9219 65.1855-45.0195C63.0371-45.2637 60.4004-45.459 55.0293-45.4102C49.6582-45.4102 47.0215-45.2637 44.873-45.0195C44.043-44.9219 43.6035-44.3359 43.4082-43.5547C43.1641-42.4316 42.6758-39.209 42.6758-35.2051L42.6758-30.9082C42.6758-29.8828 43.0664-29.1504 44.1895-29.0039C46.1426-28.7598 50.4395-28.5645 55.0293-28.5156ZM46.1426-19.6289C47.6562-19.6289 48.8281-20.7031 48.8281-22.3145C48.8281-23.877 47.7051-25 46.1426-25C44.5801-25 43.4082-23.877 43.4082-22.3145C43.4082-20.7031 44.5801-19.6289 46.1426-19.6289ZM63.8672-19.5801C65.3809-19.5801 66.6504-20.752 66.6504-22.3145C66.6504-23.877 65.4297-25.0488 63.8672-25.0488C62.3535-25.0488 61.1328-23.877 61.1328-22.3145C61.1328-20.752 62.3535-19.5801 63.8672-19.5801ZM50.1953-48.7305L59.8633-48.7305C60.5957-48.7305 61.1816-49.2676 61.1816-50.0488C61.1816-50.7324 60.5957-51.2695 59.8633-51.2695L50.1953-51.2695C49.4629-51.2695 48.877-50.7324 48.877-50.0488C48.877-49.2676 49.4629-48.7305 50.1953-48.7305Z"/>
  </g>
  <g id="Ultralight-S" transform="matrix(1 0 0 1 506.407 696)">
   <path class="monochrome-0 multicolor-0:tintColor hierarchical-0:tertiary SFSymbolsPreviewWireframe" d="M19.7647-4.46092L86.8882-4.46092C93.4214-4.46092 96.8418-8.01415 96.8418-14.4463L96.8418-55.873C96.8418-62.3052 93.4214-65.8584 86.8882-65.8584L19.7647-65.8584C13.2349-65.8584 9.76562-62.396 9.76562-55.873L9.76562-14.4463C9.76562-7.92333 13.2349-4.46092 19.7647-4.46092Z"/>
   <path class="monochrome-1 multicolor-1:white hierarchical-1:primary SFSymbolsPreviewWireframe" d="M43.7251-15.8066C38.9653-15.8066 37.2324-18.7725 37.2324-22.2256L37.2324-34.3843C37.2324-40.7168 38.2759-46.7246 39.0991-49.6328C39.793-52.188 41.7666-53.9131 44.3775-54.2095C46.4439-54.4888 49.6211-54.6909 53.3037-54.6909C56.9863-54.6909 60.1636-54.4888 62.2754-54.2095C64.8408-53.9131 66.8145-52.188 67.5083-49.6328C68.3316-46.7246 69.375-40.7168 69.375-34.3843L69.375-22.2256C69.375-18.7725 67.6421-15.8066 62.9278-15.8066ZM53.3037-27.562C57.0781-27.562 60.2398-27.7085 62.7813-27.8687C64.086-27.9697 64.8853-28.8838 64.8853-30.2271L64.8853-35.0688C64.8853-38.3008 64.5332-41.2056 64.062-43.6455C63.8667-44.79 63.0606-45.5122 61.8706-45.6553C59.813-45.854 56.9947-46.0039 53.3037-46.0005C49.5674-46.0005 46.749-45.854 44.4644-45.6099C43.4526-45.5122 42.7407-44.79 42.5454-43.6455C42.0288-41.2056 41.7222-38.3008 41.7222-35.0688L41.7222-30.2271C41.7222-28.8838 42.5215-27.9697 43.8262-27.8687C46.2788-27.6699 49.4404-27.5654 53.3037-27.562ZM44.3262-20.1284C45.5674-20.1284 46.5576-21.0664 46.5576-22.3599C46.5576-23.6045 45.5708-24.5459 44.3262-24.5459C43.0361-24.5459 42.0913-23.6045 42.0913-22.3599C42.0913-21.0664 43.0361-20.1284 44.3262-20.1284ZM62.3233-20.125C63.5645-20.125 64.5615-21.0698 64.5615-22.3599C64.5615-23.6045 63.6133-24.5493 62.3233-24.5493C61.082-24.5493 60.1338-23.6045 60.1338-22.3599C60.1338-21.0698 61.082-20.125 62.3233-20.125ZM48.1519-48.8667L58.4556-48.8667C58.961-48.8667 59.229-49.1768 59.229-49.6401C59.229-50.0967 58.961-50.4067 58.4556-50.4067L48.1519-50.4067C47.6465-50.4067 47.3784-50.0967 47.3784-49.6401C47.3784-49.1768 47.6465-48.8667 48.1519-48.8667Z"/>
  </g>
 </g>
</svg>
