<?xml version="1.0" encoding="UTF-8" standalone="no"?>
<!DOCTYPE svg PUBLIC "-//W3C//DTD SVG 1.1//EN" "http://www.w3.org/Graphics/SVG/1.1/DTD/svg11.dtd">
<svg width="100%" height="100%" viewBox="0 0 19 19" version="1.1" xmlns="http://www.w3.org/2000/svg" xmlns:xlink="http://www.w3.org/1999/xlink" xml:space="preserve" xmlns:serif="http://www.serif.com/" style="fill-rule:evenodd;clip-rule:evenodd;stroke-linecap:round;stroke-linejoin:round;stroke-miterlimit:1.5;">
    <g transform="matrix(0.907227,0,0,0.907227,0.881348,0.881348)">
        <path d="M19,3.717C19,1.666 17.334,0 15.283,0L3.717,0C1.666,0 0,1.666 0,3.717L0,15.283C0,17.334 1.666,19 3.717,19L15.283,19C17.334,19 19,17.334 19,15.283L19,3.717Z" style="fill:rgb(43,69,140);stroke:white;stroke-width:0.66px;"/>
    </g>
    <g transform="matrix(0.80362,0,0,0.80362,1.865606,1.818388)">
        <path d="M9.5,17.058L9.5,9.5" style="fill:none;stroke:white;stroke-width:1.24px;"/>
    </g>
    <g transform="matrix(0.556636,0,0,0.80362,4.094904,1.818388)">
        <path d="M16.452,3.893L16.452,7.667C16.452,8.679 15.266,9.5 13.805,9.5L5.615,9.5C4.155,9.5 2.969,8.679 2.969,7.667L2.969,3.893C2.969,2.881 4.155,2.06 5.615,2.06L13.805,2.06C15.266,2.06 16.452,2.881 16.452,3.893Z" style="fill:none;stroke:white;stroke-width:1.45px;"/>
    </g>
</svg>
