<?xml version="1.0" encoding="UTF-8"?>
<!--Generator: Apple Native CoreSVG 360-->
<!DOCTYPE svg
PUBLIC "-//W3C//DTD SVG 1.1//EN"
       "http://www.w3.org/Graphics/SVG/1.1/DTD/svg11.dtd">
<svg version="1.1" xmlns="http://www.w3.org/2000/svg" xmlns:xlink="http://www.w3.org/1999/xlink" viewBox="0 0 3300 2200">
 <!--glyph: "100749", point size: 100.0, font version: "21.1d1e1", template writer version: "138.0.0"-->
 <style>.defaults {-sfsymbols-draw-reverses-motion-groups:true}

.monochrome-0 {-sfsymbols-motion-group:0;-sfsymbols-layer-tags:bus.fill}

.multicolor-0:tintColor {-sfsymbols-motion-group:0;-sfsymbols-layer-tags:bus.fill}

.hierarchical-0:primary {-sfsymbols-motion-group:0;-sfsymbols-layer-tags:bus.fill}

.SFSymbolsPreviewWireframe {fill:none;opacity:1.0;stroke:black;stroke-width:0.5}
</style>
 <g id="Notes">
  <rect height="2200" id="artboard" style="fill:white;opacity:1" width="3300" x="0" y="0"/>
  <line style="fill:none;stroke:black;opacity:1;stroke-width:0.5;" x1="263" x2="3036" y1="292" y2="292"/>
  <text style="stroke:none;fill:black;font-family:sans-serif;font-size:13;font-weight:bold;" transform="matrix(1 0 0 1 263 322)">Weight/Scale Variations</text>
  <text style="stroke:none;fill:black;font-family:sans-serif;font-size:13;text-anchor:middle;" transform="matrix(1 0 0 1 559.711 322)">Ultralight</text>
  <text style="stroke:none;fill:black;font-family:sans-serif;font-size:13;text-anchor:middle;" transform="matrix(1 0 0 1 856.422 322)">Thin</text>
  <text style="stroke:none;fill:black;font-family:sans-serif;font-size:13;text-anchor:middle;" transform="matrix(1 0 0 1 1153.13 322)">Light</text>
  <text style="stroke:none;fill:black;font-family:sans-serif;font-size:13;text-anchor:middle;" transform="matrix(1 0 0 1 1449.84 322)">Regular</text>
  <text style="stroke:none;fill:black;font-family:sans-serif;font-size:13;text-anchor:middle;" transform="matrix(1 0 0 1 1746.56 322)">Medium</text>
  <text style="stroke:none;fill:black;font-family:sans-serif;font-size:13;text-anchor:middle;" transform="matrix(1 0 0 1 2043.27 322)">Semibold</text>
  <text style="stroke:none;fill:black;font-family:sans-serif;font-size:13;text-anchor:middle;" transform="matrix(1 0 0 1 2339.98 322)">Bold</text>
  <text style="stroke:none;fill:black;font-family:sans-serif;font-size:13;text-anchor:middle;" transform="matrix(1 0 0 1 2636.69 322)">Heavy</text>
  <text style="stroke:none;fill:black;font-family:sans-serif;font-size:13;text-anchor:middle;" transform="matrix(1 0 0 1 2933.4 322)">Black</text>
  <line style="fill:none;stroke:black;opacity:1;stroke-width:0.5;" x1="263" x2="3036" y1="1903" y2="1903"/>
  <g transform="matrix(0.2 0 0 0.2 263 1933)">
   <path d="m46.2402 4.15039c21.7773 0 39.4531-17.627 39.4531-39.4043s-17.6758-39.4043-39.4531-39.4043c-21.7285 0-39.4043 17.627-39.4043 39.4043s17.6758 39.4043 39.4043 39.4043Zm0-7.42188c-17.6758 0-31.9336-14.3066-31.9336-31.9824s14.2578-31.9824 31.9336-31.9824 31.9824 14.3066 31.9824 31.9824-14.3066 31.9824-31.9824 31.9824Zm3.61328-17.7734v-28.4668c0-2.24609-1.46484-3.75977-3.71094-3.75977-2.14844 0-3.61328 1.51367-3.61328 3.75977v28.4668c0 2.19727 1.46484 3.71094 3.61328 3.71094 2.24609 0 3.71094-1.51367 3.71094-3.71094Zm-17.8223-10.5957h28.418c2.19727 0 3.71094-1.46484 3.71094-3.61328 0-2.19727-1.51367-3.71094-3.71094-3.71094h-28.418c-2.24609 0-3.75977 1.51367-3.75977 3.71094 0 2.14844 1.51367 3.61328 3.75977 3.61328Z"/>
  </g>
  <g transform="matrix(0.2 0 0 0.2 281.506 1933)">
   <path d="m58.5449 14.5508c27.4902 0 49.8047-22.3145 49.8047-49.8047s-22.3145-49.8047-49.8047-49.8047-49.8047 22.3145-49.8047 49.8047 22.3145 49.8047 49.8047 49.8047Zm0-8.30078c-22.9492 0-41.5039-18.5547-41.5039-41.5039s18.5547-41.5039 41.5039-41.5039 41.5039 18.5547 41.5039 41.5039-18.5547 41.5039-41.5039 41.5039Zm4.05273-23.0957v-36.9141c0-2.49023-1.70898-4.19922-4.15039-4.19922-2.39258 0-4.05273 1.70898-4.05273 4.19922v36.9141c0 2.44141 1.66016 4.15039 4.05273 4.15039 2.44141 0 4.15039-1.66016 4.15039-4.15039Zm-22.5586-14.4043h36.9629c2.44141 0 4.15039-1.61133 4.15039-4.00391 0-2.44141-1.70898-4.15039-4.15039-4.15039h-36.9629c-2.49023 0-4.15039 1.70898-4.15039 4.15039 0 2.39258 1.66016 4.00391 4.15039 4.00391Z"/>
  </g>
  <g transform="matrix(0.2 0 0 0.2 304.924 1933)">
   <path d="m74.8535 28.3203c35.1074 0 63.623-28.4668 63.623-63.5742s-28.5156-63.623-63.623-63.623-63.5742 28.5156-63.5742 63.623 28.4668 63.5742 63.5742 63.5742Zm0-9.08203c-30.127 0-54.4922-24.3652-54.4922-54.4922s24.3652-54.4922 54.4922-54.4922 54.4922 24.3652 54.4922 54.4922-24.3652 54.4922-54.4922 54.4922Zm4.44336-30.3223v-48.4863c0-2.73438-1.85547-4.63867-4.54102-4.63867-2.58789 0-4.44336 1.9043-4.44336 4.63867v48.4863c0 2.68555 1.85547 4.58984 4.44336 4.58984 2.68555 0 4.54102-1.85547 4.54102-4.58984Zm-28.7109-19.7754h48.4863c2.68555 0 4.58984-1.80664 4.58984-4.39453 0-2.73438-1.85547-4.58984-4.58984-4.58984h-48.4863c-2.73438 0-4.58984 1.85547-4.58984 4.58984 0 2.58789 1.85547 4.39453 4.58984 4.39453Z"/>
  </g>
  <text style="stroke:none;fill:black;font-family:sans-serif;font-size:13;font-weight:bold;" transform="matrix(1 0 0 1 263 1953)">Design Variations</text>
  <text style="stroke:none;fill:black;font-family:sans-serif;font-size:13;" transform="matrix(1 0 0 1 263 1971)">Symbols are supported in up to nine weights and three scales.</text>
  <text style="stroke:none;fill:black;font-family:sans-serif;font-size:13;" transform="matrix(1 0 0 1 263 1989)">For optimal layout with text and other symbols, vertically align</text>
  <text style="stroke:none;fill:black;font-family:sans-serif;font-size:13;" transform="matrix(1 0 0 1 263 2007)">symbols with the adjacent text.</text>
  <line style="fill:none;stroke:#00AEEF;stroke-width:0.5;opacity:1.0;" x1="776" x2="776" y1="1919" y2="1933"/>
  <g transform="matrix(0.2 0 0 0.2 776 1933)">
   <path d="m16.5527 0.78125c2.58789 0 3.85742-0.976562 4.78516-3.71094l20.5566-57.5195h0.244141l20.6055 57.5195c0.927734 2.73438 2.19727 3.71094 4.73633 3.71094 2.58789 0 4.24805-1.5625 4.24805-4.00391 0-0.830078-0.146484-1.61133-0.537109-2.63672l-22.9004-60.9863c-1.12305-2.97852-3.125-4.49219-6.25-4.49219-3.02734 0-5.07812 1.46484-6.15234 4.44336l-22.9004 61.084c-0.390625 1.02539-0.537109 1.80664-0.537109 2.63672 0 2.44141 1.5625 3.95508 4.10156 3.95508Zm10.2051-20.9473h30.6641c2.00195 0 3.66211-1.66016 3.66211-3.66211 0-2.05078-1.66016-3.66211-3.66211-3.66211h-30.6641c-2.00195 0-3.66211 1.61133-3.66211 3.66211 0 2.00195 1.66016 3.66211 3.66211 3.66211Z"/>
  </g>
  <line style="fill:none;stroke:#00AEEF;stroke-width:0.5;opacity:1.0;" x1="792.836" x2="792.836" y1="1919" y2="1933"/>
  <text style="stroke:none;fill:black;font-family:sans-serif;font-size:13;font-weight:bold;" transform="matrix(1 0 0 1 776 1953)">Margins</text>
  <text style="stroke:none;fill:black;font-family:sans-serif;font-size:13;" transform="matrix(1 0 0 1 776 1971)">Leading and trailing margins on the left and right side of each symbol</text>
  <text style="stroke:none;fill:black;font-family:sans-serif;font-size:13;" transform="matrix(1 0 0 1 776 1989)">can be adjusted by modifying the x-location of the margin guidelines.</text>
  <text style="stroke:none;fill:black;font-family:sans-serif;font-size:13;" transform="matrix(1 0 0 1 776 2007)">Modifications are automatically applied proportionally to all</text>
  <text style="stroke:none;fill:black;font-family:sans-serif;font-size:13;" transform="matrix(1 0 0 1 776 2025)">scales and weights.</text>
  <g transform="matrix(0.2 0 0 0.2 1289 1933)">
   <path d="m14.209 13.1348 7.86133 7.86133c4.29688 4.39453 9.32617 4.10156 13.8672-1.02539l60.6934-68.2129-4.88281-4.88281-60.2539 67.6758c-1.80664 1.95312-3.4668 2.44141-5.81055 0.0976562l-5.17578-5.12695c-2.29492-2.29492-1.80664-3.95508 0.195312-5.81055l67.4805-62.1582-4.88281-4.83398-68.0664 62.5977c-4.98047 4.58984-5.32227 9.47266-1.02539 13.8184Zm44.873-97.4609c-2.05078 2.00195-2.24609 4.88281-1.07422 6.78711 1.12305 1.80664 3.4668 3.02734 6.5918 2.24609 5.85938-1.66016 12.5977-2.39258 18.8965 0.927734l-2.68555 7.12891c-1.61133 4.00391-0.732422 6.88477 1.70898 9.42383l10.2539 10.3027c2.34375 2.39258 4.54102 2.44141 7.08008 1.95312l4.44336-0.732422 2.58789 2.53906-0.195312 2.24609c-0.0976562 2.29492 0.537109 4.29688 2.7832 6.49414l3.36914 3.32031c2.29492 2.29492 5.51758 2.49023 7.8125 0.195312l12.9883-13.0371c2.29492-2.34375 2.14844-5.37109-0.195312-7.66602l-3.41797-3.41797c-2.19727-2.19727-4.05273-3.02734-6.34766-2.88086l-2.34375 0.244141-2.44141-2.44141 1.02539-4.6875c0.634766-2.73438-0.244141-4.98047-2.88086-7.61719l-11.2793-11.1816c-12.9395-12.8418-35.5957-11.0352-46.6797-0.146484Zm7.08008 2.05078c8.78906-6.39648 25.9766-5.66406 33.6914 1.95312l12.3047 12.207c1.02539 1.02539 1.2207 1.80664 0.927734 3.32031l-1.46484 6.64062 6.73828 6.68945 4.39453-0.244141c1.12305-0.0488281 1.51367 0.0488281 2.34375 0.878906l2.53906 2.49023-10.8398 10.8398-2.49023-2.49023c-0.830078-0.878906-0.976562-1.2207-0.927734-2.39258l0.292969-4.3457-6.68945-6.73828-6.83594 1.17188c-1.41602 0.292969-2.05078 0.195312-3.17383-0.878906l-8.93555-8.88672c-1.07422-1.02539-1.17188-1.70898-0.488281-3.36914l4.58984-11.4746c-6.10352-6.34766-17.041-7.51953-25.5859-4.58984-0.683594 0.244141-0.927734-0.390625-0.390625-0.78125Z"/>
  </g>
  <text style="stroke:none;fill:black;font-family:sans-serif;font-size:13;font-weight:bold;" transform="matrix(1 0 0 1 1289 1953)">Exporting</text>
  <text style="stroke:none;fill:black;font-family:sans-serif;font-size:13;" transform="matrix(1 0 0 1 1289 1971)">Symbols should be outlined when exporting to ensure the</text>
  <text style="stroke:none;fill:black;font-family:sans-serif;font-size:13;" transform="matrix(1 0 0 1 1289 1989)">design is preserved when submitting to Xcode.</text>
  <text id="template-version" style="stroke:none;fill:black;font-family:sans-serif;font-size:13;text-anchor:end;" transform="matrix(1 0 0 1 3036 1933)">Template v.7.0</text>
  <text style="stroke:none;fill:black;font-family:sans-serif;font-size:13;text-anchor:end;" transform="matrix(1 0 0 1 3036 1951)">Requires Xcode 26 or greater</text>
  <text id="descriptive-name" style="stroke:none;fill:black;font-family:sans-serif;font-size:13;text-anchor:end;" transform="matrix(1 0 0 1 3036 1969)">Generated from bus.fill</text>
  <text style="stroke:none;fill:black;font-family:sans-serif;font-size:13;text-anchor:end;" transform="matrix(1 0 0 1 3036 1987)">Typeset at 100.0 points</text>
  <text style="stroke:none;fill:black;font-family:sans-serif;font-size:13;" transform="matrix(1 0 0 1 263 726)">Small</text>
  <text style="stroke:none;fill:black;font-family:sans-serif;font-size:13;" transform="matrix(1 0 0 1 263 1156)">Medium</text>
  <text style="stroke:none;fill:black;font-family:sans-serif;font-size:13;" transform="matrix(1 0 0 1 263 1586)">Large</text>
 </g>
 <g id="Guides">
  <g id="H-reference" style="fill:#27AAE1;stroke:none;" transform="matrix(1 0 0 1 339 696)">
   <path d="M0.993654 0L3.63775 0L29.3281-67.1323L30.0303-67.1323L30.0303-70.459L28.1226-70.459ZM11.6885-24.4799L46.9815-24.4799L46.2315-26.7285L12.4385-26.7285ZM55.1196 0L57.7637 0L30.6382-70.459L29.4326-70.459L29.4326-67.1323Z"/>
  </g>
  <line id="Baseline-S" style="fill:none;stroke:#27AAE1;opacity:1;stroke-width:0.5;" x1="263" x2="3036" y1="696" y2="696"/>
  <line id="Capline-S" style="fill:none;stroke:#27AAE1;opacity:1;stroke-width:0.5;" x1="263" x2="3036" y1="625.541" y2="625.541"/>
  <g id="H-reference" style="fill:#27AAE1;stroke:none;" transform="matrix(1 0 0 1 339 1126)">
   <path d="M0.993654 0L3.63775 0L29.3281-67.1323L30.0303-67.1323L30.0303-70.459L28.1226-70.459ZM11.6885-24.4799L46.9815-24.4799L46.2315-26.7285L12.4385-26.7285ZM55.1196 0L57.7637 0L30.6382-70.459L29.4326-70.459L29.4326-67.1323Z"/>
  </g>
  <line id="Baseline-M" style="fill:none;stroke:#27AAE1;opacity:1;stroke-width:0.5;" x1="263" x2="3036" y1="1126" y2="1126"/>
  <line id="Capline-M" style="fill:none;stroke:#27AAE1;opacity:1;stroke-width:0.5;" x1="263" x2="3036" y1="1055.54" y2="1055.54"/>
  <g id="H-reference" style="fill:#27AAE1;stroke:none;" transform="matrix(1 0 0 1 339 1556)">
   <path d="M0.993654 0L3.63775 0L29.3281-67.1323L30.0303-67.1323L30.0303-70.459L28.1226-70.459ZM11.6885-24.4799L46.9815-24.4799L46.2315-26.7285L12.4385-26.7285ZM55.1196 0L57.7637 0L30.6382-70.459L29.4326-70.459L29.4326-67.1323Z"/>
  </g>
  <line id="Baseline-L" style="fill:none;stroke:#27AAE1;opacity:1;stroke-width:0.5;" x1="263" x2="3036" y1="1556" y2="1556"/>
  <line id="Capline-L" style="fill:none;stroke:#27AAE1;opacity:1;stroke-width:0.5;" x1="263" x2="3036" y1="1485.54" y2="1485.54"/>
  <line id="right-margin-Black-S" style="fill:none;stroke:#00AEEF;stroke-width:0.5;opacity:1.0;" x1="2994.53" x2="2994.53" y1="600.785" y2="720.121"/>
  <line id="left-margin-Black-S" style="fill:none;stroke:#00AEEF;stroke-width:0.5;opacity:1.0;" x1="2872.27" x2="2872.27" y1="600.785" y2="720.121"/>
  <line id="right-margin-Regular-S" style="fill:none;stroke:#00AEEF;stroke-width:0.5;opacity:1.0;" x1="1502.16" x2="1502.16" y1="600.785" y2="720.121"/>
  <line id="left-margin-Regular-S" style="fill:none;stroke:#00AEEF;stroke-width:0.5;opacity:1.0;" x1="1397.53" x2="1397.53" y1="600.785" y2="720.121"/>
  <line id="right-margin-Ultralight-S" style="fill:none;stroke:#00AEEF;stroke-width:0.5;opacity:1.0;" x1="608.057" x2="608.057" y1="600.785" y2="720.121"/>
  <line id="left-margin-Ultralight-S" style="fill:none;stroke:#00AEEF;stroke-width:0.5;opacity:1.0;" x1="511.365" x2="511.365" y1="600.785" y2="720.121"/>
 </g>
 <g id="Symbols">
  <g id="Black-S" transform="matrix(1 0 0 1 2872.27 696)">
   <path class="monochrome-0 multicolor-0:tintColor hierarchical-0:primary SFSymbolsPreviewWireframe" d="M26.2695 14.3066L31.3477 14.3066C36.7676 14.3066 39.2578 11.8164 39.2578 6.44531L39.2578 1.9043C45.3125 2.39258 52.3926 2.58789 61.1328 2.58789C69.873 2.58789 76.9531 2.39258 83.0078 1.9043L83.0078 6.44531C83.0078 11.8164 85.498 14.3066 90.918 14.3066L95.9961 14.3066C101.416 14.3066 103.906 11.8164 103.906 6.44531L103.906-74.2676C103.906-81.6406 100.049-86.6211 92.5293-87.8906C85.1074-89.1602 74.2676-89.6973 61.1328-89.6973C47.8027-89.6973 37.1094-89.2578 29.7363-87.8906C22.2168-86.4746 18.3594-81.543 18.3594-74.2676L18.3594 6.44531C18.3594 11.8164 20.8496 14.3066 26.2695 14.3066ZM33.4961-26.9043C30.9082-27.4902 29.6875-29.1992 29.6875-32.373L29.6875-71.3379C29.6875-74.5117 30.9082-76.2207 33.4961-76.8066C43.4082-79.0527 77.832-78.8086 88.7695-76.7578C91.3574-76.2695 92.5781-74.6094 92.5781-71.3379L92.5781-32.373C92.5781-29.1016 91.3574-27.3926 88.7695-26.9531C77.2949-25 43.8965-24.5605 33.4961-26.9043ZM36.4258-8.10547C33.4473-8.10547 31.1035-10.4492 31.1035-13.4277C31.1035-16.4062 33.4473-18.75 36.4258-18.75C39.4043-18.75 41.748-16.4062 41.748-13.4277C41.748-10.4492 39.4043-8.10547 36.4258-8.10547ZM52.9297-9.13086C50.3906-9.13086 48.5352-10.9863 48.5352-13.4766C48.5352-16.0156 50.3906-17.8223 52.9297-17.8223L69.3359-17.8223C71.875-17.8223 73.7305-16.0156 73.7305-13.4766C73.7305-10.9863 71.875-9.13086 69.3359-9.13086ZM85.8398-8.10547C82.8613-8.10547 80.5176-10.4492 80.5176-13.4277C80.5176-16.4062 82.8613-18.75 85.8398-18.75C88.8184-18.75 91.1621-16.4062 91.1621-13.4277C91.1621-10.4492 88.8184-8.10547 85.8398-8.10547ZM18.3594-39.1602L18.3594-71.9238L16.5039-71.9238C12.6953-71.9238 9.76562-69.2383 9.76562-65.5273L9.76562-45.5566C9.76562-41.8457 12.6953-39.1602 16.5039-39.1602ZM103.906-39.1602L105.762-39.1602C109.57-39.1602 112.5-41.8457 112.5-45.5566L112.5-65.5273C112.5-69.2383 109.57-71.9238 105.762-71.9238L103.906-71.9238Z"/>
  </g>
  <g id="Regular-S" transform="matrix(1 0 0 1 1397.53 696)">
   <path class="monochrome-0 multicolor-0:tintColor hierarchical-0:primary SFSymbolsPreviewWireframe" d="M20.5078 9.57031L25.0488 9.57031C27.9785 9.57031 30.2246 7.32422 30.2246 4.44336L30.2246-2.00195C38.0859-1.46484 45.6543-1.17188 52.2949-1.17188C58.9355-1.17188 66.5039-1.41602 74.4141-2.00195L74.4141 4.44336C74.4141 7.32422 76.6113 9.57031 79.541 9.57031L84.1309 9.57031C87.0117 9.57031 89.2578 7.32422 89.2578 4.44336L89.2578-69.7266C89.2578-74.7559 86.3281-77.7832 80.9082-78.418C72.8027-79.3457 62.1094-79.8828 52.2949-79.8828C42.5781-79.8828 31.9336-79.3945 23.7305-78.418C18.3105-77.7832 15.332-74.7559 15.332-69.7266L15.332 4.44336C15.332 7.32422 17.5781 9.57031 20.5078 9.57031ZM26.9043-27.832C24.2188-28.2715 22.9492-29.7363 22.9492-32.5684L22.9492-66.1133C22.9492-69.3848 24.4629-71.0938 27.5879-71.4355C43.1152-73.0957 61.5234-73.0957 77.1484-71.4355C80.2246-71.0938 81.6895-69.3848 81.6895-66.1133L81.6895-32.5684C81.6895-29.7363 80.4199-28.2715 77.7832-27.832C61.8652-25.293 42.6758-25.293 26.9043-27.832ZM29.0527-10.1074C26.0742-10.1074 23.8281-12.3535 23.8281-15.332C23.8281-18.3105 26.0742-20.5566 29.0527-20.5566C32.0312-20.5566 34.2773-18.3105 34.2773-15.332C34.2773-12.3535 32.0312-10.1074 29.0527-10.1074ZM44.1895-11.9141C42.0898-11.9141 40.6738-13.3789 40.6738-15.4297C40.6738-17.5293 42.0898-18.8965 44.1895-18.8965L60.4004-18.8965C62.5-18.8965 63.916-17.5293 63.916-15.4297C63.916-13.3789 62.5-11.9141 60.4004-11.9141ZM75.5859-10.1074C72.6074-10.1074 70.3613-12.3535 70.3613-15.332C70.3613-18.3105 72.6074-20.5566 75.5859-20.5566C78.5645-20.5566 80.8105-18.3105 80.8105-15.332C80.8105-12.3535 78.5645-10.1074 75.5859-10.1074ZM15.332-43.3594L15.332-65.5762L13.6719-65.5762C11.4258-65.5762 9.76562-64.1602 9.76562-62.0117L9.76562-46.9238C9.76562-44.7754 11.4258-43.3594 13.6719-43.3594ZM89.2578-43.3594L90.918-43.3594C93.2129-43.3594 94.873-44.7754 94.873-46.9238L94.873-62.0117C94.873-64.1602 93.2129-65.5762 90.918-65.5762L89.2578-65.5762Z"/>
  </g>
  <g id="Ultralight-S" transform="matrix(1 0 0 1 511.365 696)">
   <path class="monochrome-0 multicolor-0:tintColor hierarchical-0:primary SFSymbolsPreviewWireframe" d="M18.7368 6.7549L22.96 6.7549C25.6172 6.7549 27.6817 4.69045 27.6817 2.03664L27.6817-3.90916C34.0899-3.37206 41.0679-3.1245 48.2989-3.1245C55.4844-3.1245 62.5533-3.36864 69.0103-3.86375L69.0103 2.03664C69.0103 4.69045 71.0713 6.7549 73.7286 6.7549L77.9551 6.7549C80.6089 6.7549 82.6734 4.64504 82.6734 2.03664L82.6734-69.0908C82.6734-73.439 80.0616-75.5127 75.8677-76.0112C67.7168-76.9844 58.2041-77.4307 48.2989-77.4307C38.355-77.4307 28.9365-76.9424 20.8697-76.0112C16.6304-75.5127 14.0151-73.439 14.0151-69.0908L14.0151 2.03664C14.0151 4.64504 16.0796 6.7549 18.7368 6.7549ZM23.2261-27.0601C21.2217-27.2725 20.043-28.5557 20.043-30.6611L20.043-66.6128C20.043-68.749 21.1934-70.0947 23.274-70.2549C41.1172-72.0059 55.938-71.9605 73.4248-70.2549C75.502-70.0947 76.6944-68.749 76.6944-66.6128L76.6944-30.6611C76.6944-28.5557 75.5157-27.2725 73.4693-27.0601C57.6875-25.4292 38.5889-25.4746 23.2261-27.0601ZM26.5098-12.8774C24.3941-12.8774 22.8745-14.397 22.8745-16.5127C22.8745-18.583 24.3941-20.148 26.5098-20.148C28.5801-20.148 30.0996-18.583 30.0996-16.5127C30.0996-14.397 28.5801-12.8774 26.5098-12.8774ZM39.0127-13.9121C37.458-13.9121 36.4053-14.9682 36.4053-16.5195C36.4053-18.0288 37.458-19.0781 39.0127-19.0781L57.4033-19.0781C58.9126-19.0781 59.9654-18.0288 59.9654-16.5195C59.9654-14.9682 58.9126-13.9121 57.4033-13.9121ZM70.1822-12.8774C68.1119-12.8774 66.5923-14.397 66.5923-16.5127C66.5923-18.583 68.1119-20.148 70.1822-20.148C72.2979-20.148 73.8628-18.583 73.8628-16.5127C73.8628-14.397 72.2979-12.8774 70.1822-12.8774ZM14.0151-44.8125L14.0151-63.8506L12.1734-63.8506C10.563-63.8506 9.76562-62.9795 9.76562-61.603L9.76562-47.0601C9.76562-45.6382 10.563-44.8125 12.1734-44.8125ZM82.6734-44.8125L84.5152-44.8125C86.1744-44.8125 86.9263-45.6382 86.9263-47.0601L86.9263-61.603C86.9263-62.9795 86.1744-63.8506 84.5152-63.8506L82.6734-63.8506Z"/>
  </g>
 </g>
</svg>
